<svg xmlns="http://www.w3.org/2000/svg" viewBox="0 0 750 500"><g id="freepik--background-complete--inject-25"><path d="M99.11,325.06,86,325.33l-6.66.12c-2.22,0-4.46,0-6.69.05h-.44v-.44l-.05-11.19v-.51h.5l13.24.06c4.41,0,8.83.11,13.24.16h.28v.27c0,1.89-.08,3.78-.13,5.65Zm0,0L99,319.4c0-1.86-.11-3.7-.13-5.53l.27.27c-4.41.05-8.83.16-13.24.16l-13.24.06.5-.49-.06,11.19-.44-.45c2.18,0,4.36,0,6.54.05l6.58.12Z" style="fill:#ebebeb"></path><path d="M84.34,339.17l-13.13.27-6.66.12c-2.22,0-4.46,0-6.69.05h-.45v-.44l0-11.19v-.51h.5l13.24.06c4.41,0,8.82.11,13.24.16h.27V328c0,1.89-.08,3.78-.13,5.65Zm0,0-.14-5.66c0-1.86-.12-3.7-.13-5.53l.27.27c-4.42.05-8.83.16-13.24.16l-13.24.06.5-.49-.06,11.19-.44-.45c2.18,0,4.36,0,6.54,0l6.58.12Z" style="fill:#ebebeb"></path><path d="M447.89,180.84l-13.12.27-6.66.12c-2.23,0-4.46,0-6.7.05H421v-.44l-.06-11.19v-.51h.5l13.24.06c4.42,0,8.83.11,13.24.16h.28v.27c0,1.89-.09,3.78-.13,5.65Zm0,0-.14-5.66c0-1.86-.11-3.7-.13-5.53l.27.27c-4.41.05-8.82.16-13.24.16l-13.24.07.5-.5-.05,11.19-.45-.45c2.19,0,4.36,0,6.55.05l6.58.12Z" style="fill:#ebebeb"></path><path d="M433.12,195l-13.12.27-6.66.12c-2.23,0-4.47,0-6.7,0h-.44V195l-.06-11.19v-.51h.5l13.24.06c4.42,0,8.83.11,13.24.16h.28v.27c0,1.89-.09,3.78-.14,5.65Zm0,0-.14-5.66c0-1.86-.11-3.7-.13-5.53l.27.27c-4.41.05-8.82.16-13.24.16l-13.24.07.5-.5L407.09,195l-.45-.45c2.18,0,4.36,0,6.55.05l6.58.12Z" style="fill:#ebebeb"></path><path d="M418.41,180.84l-13.13.27-6.66.12c-2.22,0-4.46,0-6.69.05h-.44v-.44l-.05-11.19v-.51h.5l13.24.06c4.41,0,8.83.11,13.24.16h.27v.27c0,1.89-.08,3.78-.13,5.65Zm0,0-.14-5.66c0-1.86-.11-3.7-.13-5.53l.27.27c-4.41.05-8.83.16-13.24.16l-13.24.07.5-.5-.06,11.19-.44-.45c2.18,0,4.36,0,6.54.05l6.58.12Z" style="fill:#ebebeb"></path><path d="M692.14,339.17l-13.12.27-6.66.12c-2.23,0-4.47,0-6.7.05h-.44v-.44L665.16,328v-.51h.5l13.24.06c4.42,0,8.83.11,13.24.16h.28V328c0,1.89-.09,3.78-.14,5.65Zm0,0-.14-5.66c0-1.86-.11-3.7-.13-5.53l.27.27c-4.41.05-8.82.16-13.24.16l-13.24.06.5-.49,0,11.19-.45-.45c2.18,0,4.36,0,6.55,0l6.58.12Z" style="fill:#ebebeb"></path><path d="M677.37,65.49l-13.12.27-6.67.12c-2.22,0-4.46,0-6.69.05h-.44v-.45l-.05-11.19v-.51h.5l13.24.06c4.41,0,8.83.11,13.24.16h.28v.27c0,1.9-.08,3.78-.13,5.65Zm0,0-.14-5.66c-.05-1.86-.11-3.7-.13-5.53l.27.27c-4.41,0-8.83.16-13.24.16l-13.24.07.5-.5,0,11.19-.45-.45c2.18,0,4.36,0,6.55.06l6.58.11Z" style="fill:#ebebeb"></path><path d="M692.14,79.6,679,79.87l-6.66.12c-2.23,0-4.47,0-6.7.05h-.44V79.6l-.06-11.19V67.9h.5L678.9,68c4.42,0,8.83.11,13.24.16h.28v.27c0,1.9-.09,3.78-.14,5.65Zm0,0L692,73.94c0-1.86-.11-3.7-.13-5.53l.27.27c-4.41,0-8.82.16-13.24.16l-13.24.07.5-.5,0,11.19-.45-.45c2.18,0,4.36,0,6.55.06l6.58.11Z" style="fill:#ebebeb"></path><path d="M99.11,65.49,86,65.76l-6.66.12c-2.22,0-4.46,0-6.69.05h-.44v-.45L72.13,54.3v-.51h.5l13.24.06c4.41,0,8.83.11,13.24.16h.28v.27c0,1.9-.08,3.78-.13,5.65Zm0,0L99,59.83c0-1.86-.11-3.7-.13-5.53l.27.27c-4.41,0-8.83.16-13.24.16l-13.24.07.5-.5-.06,11.19L72.63,65c2.18,0,4.36,0,6.54.06l6.58.11Z" style="fill:#ebebeb"></path><polygon points="509.32 345.65 685.05 345.65 688.71 273.54 505.66 273.54 509.32 345.65" style="fill:#ebebeb"></polygon><path d="M676.72,306.55H603.25l-1.37-25h76.45Zm-72.63-.89h71.8l1.49-23.26H602.81Z" style="fill:#dbdbdb"></path><path d="M675.37,335.34H606.13L605,312.75h71.77Zm-68.4-.88h67.56l1.3-20.82H605.94Z" style="fill:#dbdbdb"></path><path d="M647.06,296.74H634.72l-.78-6h13.9Zm-11.56-.88h10.78l.55-4.27H635Z" style="fill:#dbdbdb"></path><path d="M647.06,327.07H634.72l-.78-6h13.9Zm-11.56-.89h10.78l.55-4.27H635Z" style="fill:#dbdbdb"></path><path d="M590.3,306.55H516.83l-1.37-25h76.45Zm-72.63-.89h71.8L591,282.4H516.39Z" style="fill:#dbdbdb"></path><path d="M589,335.34H519.71l-1.12-22.59h71.77Zm-68.39-.88h67.55l1.31-20.82h-69.9Z" style="fill:#dbdbdb"></path><path d="M560.64,296.74H548.3l-.78-6h13.9Zm-11.56-.88h10.78l.55-4.27H548.53Z" style="fill:#dbdbdb"></path><path d="M560.64,327.07H548.3l-.78-6h13.9Zm-11.56-.89h10.78l.55-4.27H548.53Z" style="fill:#dbdbdb"></path><polygon points="525.08 345.64 523.97 353.5 521.75 369.29 517.41 369.29 517.41 345.64 525.08 345.64" style="fill:#ebebeb"></polygon><polygon points="525.08 345.64 523.97 353.5 517.41 353.5 517.41 345.64 525.08 345.64" style="fill:#dbdbdb"></polygon><polygon points="669.29 345.64 670.4 353.5 672.62 369.29 676.96 369.29 676.96 345.64 669.29 345.64" style="fill:#ebebeb"></polygon><polygon points="669.29 345.64 670.4 353.5 676.96 353.5 676.96 345.64 669.29 345.64" style="fill:#dbdbdb"></polygon><circle cx="614.57" cy="88.88" r="28.48" transform="translate(117.16 460.6) rotate(-45)" style="fill:#ebebeb"></circle><circle cx="615.87" cy="89.51" r="27.17" transform="translate(117.09 461.7) rotate(-45)" style="fill:#dbdbdb"></circle><circle cx="615.87" cy="89.51" r="25.46" transform="translate(-4.16 143.1) rotate(-13.21)" style="fill:#fff"></circle><path d="M640.75,84.11c-11.59,7-30.64,18.54-41.29,24.86a25.47,25.47,0,0,1-7-9.35L627.72,67A25.5,25.5,0,0,1,640.75,84.11Z" style="fill:#ebebeb;opacity:0.5"></path><path d="M641.31,90.4a25.22,25.22,0,0,1-1.68,8.27l-31.75,15a24.25,24.25,0,0,1-4-1.73C613.46,106.42,631,96.34,641.31,90.4Z" style="fill:#ebebeb;opacity:0.5"></path><rect x="615.63" y="65.9" width="0.49" height="3.86" style="fill:#c7c7c7"></rect><rect x="604.79" y="68.8" width="0.49" height="3.86" transform="translate(45.67 311.95) rotate(-30)" style="fill:#c7c7c7"></rect><rect x="596.85" y="76.74" width="0.49" height="3.86" transform="translate(230.39 556.41) rotate(-60)" style="fill:#c7c7c7"></rect><rect x="592.26" y="89.26" width="3.86" height="0.49" style="fill:#c7c7c7"></rect><rect x="595.17" y="100.1" width="3.86" height="0.49" transform="translate(29.84 312.04) rotate(-30)" style="fill:#c7c7c7"></rect><rect x="603.1" y="108.04" width="3.86" height="0.49" transform="translate(209.01 578.35) rotate(-60.03)" style="fill:#c7c7c7"></rect><rect x="615.63" y="109.26" width="0.49" height="3.86" style="fill:#c7c7c7"></rect><rect x="626.47" y="106.36" width="0.49" height="3.86" transform="translate(29.82 327.85) rotate(-30)" style="fill:#c7c7c7"></rect><rect x="634.4" y="98.42" width="0.49" height="3.86" transform="translate(230.36 599.75) rotate(-59.99)" style="fill:#c7c7c7"></rect><rect x="635.62" y="89.26" width="3.86" height="0.49" style="fill:#c7c7c7"></rect><rect x="632.72" y="78.42" width="3.86" height="0.49" transform="translate(45.74 327.97) rotate(-30.01)" style="fill:#c7c7c7"></rect><rect x="624.78" y="70.49" width="3.86" height="0.49" transform="translate(252.36 578.31) rotate(-60.03)" style="fill:#c7c7c7"></rect><polygon points="616.24 67.65 617.08 91.23 614.66 91.2 615.59 67.64 616.24 67.65" style="fill:#c7c7c7"></polygon><polygon points="630.93 81.29 615.07 91.41 613.91 89.29 630.62 80.71 630.93 81.29" style="fill:#a6a6a6"></polygon><path d="M616.7,89.51a.83.83,0,0,1-1.65,0,.83.83,0,0,1,1.65,0Z" style="fill:#c7c7c7"></path><rect x="420.68" y="102.43" width="111.82" height="6.64" transform="translate(953.18 211.49) rotate(180)" style="fill:#ebebeb"></rect><rect x="517.37" y="109.07" width="6.64" height="21.96" style="fill:#ebebeb"></rect><rect x="517.37" y="109.07" width="6.64" height="6.79" style="fill:#dbdbdb"></rect><rect x="429.16" y="109.07" width="6.64" height="21.96" style="fill:#ebebeb"></rect><rect x="429.16" y="109.07" width="6.64" height="6.79" style="fill:#dbdbdb"></rect><rect x="477.75" y="75.94" width="42.32" height="10.66" transform="translate(580.18 -417.64) rotate(90)" style="fill:#c7c7c7"></rect><rect x="496.58" y="54.85" width="4.65" height="10.66" transform="translate(559.08 -438.73) rotate(90)" style="fill:#dbdbdb"></rect><rect x="498.05" y="63.99" width="1.73" height="10.66" transform="translate(568.23 -429.59) rotate(90)" style="fill:#dbdbdb"></rect><rect x="495.92" y="88.56" width="4.65" height="11.98" transform="translate(592.8 -403.69) rotate(90)" style="fill:#dbdbdb"></rect><rect x="465.18" y="74.02" width="49.36" height="7.45" transform="translate(567.6 -412.11) rotate(90)" style="fill:#dbdbdb"></rect><rect x="480.4" y="64.97" width="18.99" height="4.47" transform="translate(557.09 -422.69) rotate(90)" style="fill:#ebebeb"></rect><rect x="428.64" y="78.71" width="49.36" height="7.45" transform="translate(833.68 -177.6) rotate(135.33)" style="fill:#c7c7c7"></rect><rect x="441.25" y="82.72" width="18.99" height="4.47" transform="translate(831.04 -171.48) rotate(135.33)" style="fill:#dbdbdb"></rect><rect x="461.07" y="77.37" width="37.49" height="12.65" transform="translate(563.5 -396.13) rotate(90)" style="fill:#a6a6a6"></rect><rect x="478.07" y="90.39" width="3.49" height="12.65" transform="translate(576.53 -383.1) rotate(90)" style="fill:#c7c7c7"></rect><rect x="479.14" y="85.67" width="1.36" height="12.65" transform="translate(571.81 -387.82) rotate(90)" style="fill:#c7c7c7"></rect><rect x="490.99" y="80.45" width="35.24" height="8.74" transform="translate(593.42 -423.79) rotate(90)" style="fill:#a6a6a6"></rect><rect x="506.96" y="92.69" width="3.28" height="8.74" transform="translate(605.66 -411.55) rotate(90)" style="fill:#c7c7c7"></rect><rect x="506.96" y="71.74" width="3.28" height="8.74" transform="translate(584.71 -432.5) rotate(90)" style="fill:#c7c7c7"></rect><rect x="507.97" y="76.27" width="1.27" height="8.74" transform="translate(589.24 -427.97) rotate(90)" style="fill:#c7c7c7"></rect><path d="M196.83,242.13H63.69V56.2H196.83ZM67.64,238.18H192.88v-178H67.64Z" style="fill:#ebebeb"></path><rect x="128.28" y="61.19" width="3.95" height="178.97" style="fill:#ebebeb"></rect><rect x="60.11" y="64.19" width="140.31" height="5.5" style="fill:#ebebeb"></rect><rect x="60.11" y="70.38" width="140.31" height="5.5" style="fill:#ebebeb"></rect><rect x="60.11" y="76.57" width="140.31" height="5.5" style="fill:#ebebeb"></rect><rect x="60.11" y="82.76" width="140.31" height="5.5" style="fill:#ebebeb"></rect><rect x="60.11" y="88.94" width="140.31" height="5.5" style="fill:#ebebeb"></rect><rect x="60.11" y="95.13" width="140.31" height="5.5" style="fill:#ebebeb"></rect><rect x="60.11" y="101.32" width="140.31" height="5.5" style="fill:#ebebeb"></rect><rect x="60.11" y="107.51" width="140.31" height="5.5" style="fill:#ebebeb"></rect><rect x="60.11" y="113.7" width="140.31" height="5.5" style="fill:#ebebeb"></rect><rect x="187.69" y="63.07" width="0.99" height="107.05" style="fill:#263238"></rect><polygon points="189.94 174.72 186.43 174.72 187.31 169.68 189.06 169.68 189.94 174.72" style="fill:#263238"></polygon><rect x="191.25" y="63.07" width="0.99" height="134.05" style="fill:#263238"></rect><polygon points="193.5 200.83 189.99 200.83 190.87 195.79 192.62 195.79 193.5 200.83" style="fill:#263238"></polygon><rect x="53.98" y="55.43" width="152.57" height="11.51" style="fill:#dbdbdb"></rect></g><g id="freepik--Shadow--inject-25"><ellipse cx="375" cy="434.86" rx="316.81" ry="26.78" style="fill:#ebebeb"></ellipse></g><g id="freepik--Floor--inject-25"><polygon points="54.95 369.32 134.97 369.08 214.98 368.99 375 368.82 535.02 368.99 615.03 369.08 695.05 369.32 615.03 369.57 535.02 369.66 375 369.82 214.98 369.65 134.97 369.57 54.95 369.32" style="fill:#263238"></polygon></g><g id="freepik--Plant--inject-25"><path d="M247.71,225.52c6.61,6.47,7.72,16.48,6.32,25.25,0,.2-.34.15-.34,0,0-2,.06-4,.05-5.95a2.77,2.77,0,0,0-.1-.26,13.37,13.37,0,0,1-4.29-4.62c-1.11-2.17-1.54-4.62-2.39-6.89-.07-.21.16-.15.31,0,4,3,5.3,6.16,6.46,10.42a36.61,36.61,0,0,0-.7-6.64,22.64,22.64,0,0,0-5.5-11.06A.12.12,0,0,1,247.71,225.52Z" style="fill:#263238"></path><path d="M246.46,226.27c-1.13,0-1.85,1.86-2.73,2.39a.86.86,0,0,1-1.26-.2c-.88-1.23.33-2.74,1.46-3.58a13.11,13.11,0,0,1-2.35,1.08.83.83,0,0,1-1.07-.64c-.38-1.67,1.71-2.41,3.15-2.45-.7-.48-2.69-1.8-1.63-2.45s3.42,1.24,4.18,1.86c1.13.91,2.47,2.27,2.52,3.7C248.8,227.64,247.34,226.62,246.46,226.27Z" style="fill:#FFC727"></path><path d="M246.46,226.27c-1.13,0-1.85,1.86-2.73,2.39a.86.86,0,0,1-1.26-.2c-.88-1.23.33-2.74,1.46-3.58a13.11,13.11,0,0,1-2.35,1.08.83.83,0,0,1-1.07-.64c-.38-1.67,1.71-2.41,3.15-2.45-.7-.48-2.69-1.8-1.63-2.45s3.42,1.24,4.18,1.86c1.13.91,2.47,2.27,2.52,3.7C248.8,227.64,247.34,226.62,246.46,226.27Z" style="opacity:0.1"></path><path d="M246.79,226.55c-1.45-.66-4.24.29-4.48-.26-.48-1.12,1.75-1.89,2.95-2-1.11-.3-3.23-.78-3.17-1.85.08-1.3,3.26-.18,4.87,1,2,1.56,2,3.06,1.68,3.36S247,226.66,246.79,226.55Z" style="fill:#FFC727"></path><path d="M262.76,224.87c-6.85,6.22-8.34,16.18-7.28,25,0,.2.34.16.34,0,.08-2,.1-4,.18-5.94,0-.09.07-.18.11-.26a13.4,13.4,0,0,0,4.47-4.45c1.18-2.13,1.71-4.56,2.64-6.79.09-.22-.15-.16-.3-.06-4.14,2.81-5.54,5.95-6.85,10.17a35.71,35.71,0,0,1,.95-6.61,22.6,22.6,0,0,1,5.91-10.84C263,225,262.88,224.76,262.76,224.87Z" style="fill:#263238"></path><path d="M264,225.68c1.13.08,1.77,1.92,2.64,2.48a.86.86,0,0,0,1.26-.14c.93-1.2-.22-2.75-1.32-3.64a12.85,12.85,0,0,0,2.31,1.17A.82.82,0,0,0,270,225c.45-1.66-1.62-2.48-3.06-2.57.72-.46,2.77-1.7,1.73-2.39s-3.46,1.1-4.25,1.7c-1.16.86-2.55,2.17-2.66,3.6C261.59,227,263.09,226,264,225.68Z" style="fill:#FFC727"></path><path d="M264,225.68c1.13.08,1.77,1.92,2.64,2.48a.86.86,0,0,0,1.26-.14c.93-1.2-.22-2.75-1.32-3.64a12.85,12.85,0,0,0,2.31,1.17A.82.82,0,0,0,270,225c.45-1.66-1.62-2.48-3.06-2.57.72-.46,2.77-1.7,1.73-2.39s-3.46,1.1-4.25,1.7c-1.16.86-2.55,2.17-2.66,3.6C261.59,227,263.09,226,264,225.68Z" style="opacity:0.1"></path><path d="M263.64,225.94c1.47-.6,4.23.46,4.49-.09.52-1.1-1.68-1.95-2.88-2.14,1.12-.26,3.26-.66,3.24-1.73,0-1.31-3.25-.31-4.91.86-2.08,1.48-2.13,3-1.8,3.29S263.39,226,263.64,225.94Z" style="fill:#FFC727"></path><path d="M255.76,241.29a68.58,68.58,0,0,1-2.13,9.83.25.25,0,0,1-.48-.1c.45-3,1.27-6,1.72-9a45.64,45.64,0,0,0,.53-9.27c-.29-5.1-1.68-10.53-5-14.52-.07-.1.08-.23.16-.15,6.67,7.78,5.61,17.31,5.6,18.17.94-3.22,1.92-6.91,5.49-10.19.15-.14.27-.07.25.17-.64,6-2.3,9.08-5.76,12.27C256,239.42,255.91,240.36,255.76,241.29Z" style="fill:#263238"></path><path d="M250.33,219.09c-1.2-.53-2.85,1-4,1.1a1,1,0,0,1-1.2-.84c-.3-1.71,1.71-2.67,3.32-3a14.9,14.9,0,0,1-3-.06,1,1,0,0,1-.79-1.2c.44-1.93,3-1.64,4.5-1-.48-.85-1.89-3.22-.46-3.36s2.93,3,3.41,4c.71,1.51,1.41,3.6.75,5.11C252.06,221.69,251.06,219.89,250.33,219.09Z" style="fill:#FFC727"></path><path d="M250.33,219.09c-1.2-.53-2.85,1-4,1.1a1,1,0,0,1-1.2-.84c-.3-1.71,1.71-2.67,3.32-3a14.9,14.9,0,0,1-3-.06,1,1,0,0,1-.79-1.2c.44-1.93,3-1.64,4.5-1-.48-.85-1.89-3.22-.46-3.36s2.93,3,3.41,4c.71,1.51,1.41,3.6.75,5.11C252.06,221.69,251.06,219.89,250.33,219.09Z" style="opacity:0.1"></path><path d="M250.53,219.55c-1.18-1.42-4.55-1.84-4.52-2.53.06-1.41,2.77-1.08,4.09-.63-1-.87-3-2.44-2.36-3.51.74-1.32,3.48,1.45,4.53,3.54,1.32,2.64.55,4.19,0,4.33C251.64,221,250.73,219.78,250.53,219.55Z" style="fill:#FFC727"></path><path d="M260.14,243.09l2.94,22.47H245.19c.37-2,3.7-22.5,3.7-22.5Z" style="fill:#FFC727"></path></g><g id="freepik--light-bulb--inject-25"><path d="M403.41,95.5c-2.23,18.66-14.22,22.06-16.24,27a86.59,86.59,0,0,0-2.52,9.54l-19.5,0a83.63,83.63,0,0,0-2.47-9.55c-2-5-14-8.44-16.1-27.1-1.4-12.27,7.86-31.6,28.49-31.55S404.86,83.25,403.41,95.5Z" style="fill:#FFC727"></path><rect x="366.76" y="102.02" width="1" height="31.55" transform="translate(-15.26 68.44) rotate(-10.43)" style="fill:#fff"></rect><rect x="366.85" y="117.33" width="31.55" height="1" transform="translate(195.85 471.95) rotate(-79.31)" style="fill:#fff"></rect><path d="M375,112.62h0c-1.52,0-3.06-1.22-4.33-3.43-.06-.1-.12-.2-.17-.3a2.36,2.36,0,0,1-1.67.91h0c-2.92,0-4.08-6-4.12-6.29l.49-.09c0,.06,1.12,5.87,3.63,5.88h0a2,2,0,0,0,1.42-.9c-1.23-2.53-1.91-5.85-1-7.36a1.49,1.49,0,0,1,1.35-.79h0a1.76,1.76,0,0,1,1.61.92c.88,1.53.23,4.68-.93,6.68a5.86,5.86,0,0,1-.4.61c.08.17.17.32.26.48.68,1.19,2.09,3.18,3.9,3.18h0c1.21,0,2.42-1,3.43-2.68l.24-.43a5.9,5.9,0,0,1-.69-1c-1.2-2.1-1.45-5.21-.53-6.79a1.79,1.79,0,0,1,1.58-1h0a1.37,1.37,0,0,1,1.23.76c.86,1.5.38,5.07-1,7.88a2.8,2.8,0,0,0,2,.82h0c1.78,0,3.37-4.26,3.83-5.9l.48.14c-.07.25-1.78,6.26-4.31,6.26h0a3.26,3.26,0,0,1-2.19-.85l-.18.32C378,111,376.75,112.62,375,112.62Zm4-11.85a1.3,1.3,0,0,0-1.15.74c-.82,1.42-.57,4.36.53,6.29a5.88,5.88,0,0,0,.5.72c1.22-2.62,1.68-5.92.92-7.24a.89.89,0,0,0-.8-.51Zm-8.48,0a1,1,0,0,0-.92.54c-.69,1.2-.24,4.12,1,6.66l.22-.35c1.06-1.84,1.71-4.83.93-6.18a1.26,1.26,0,0,0-1.18-.67Z" style="fill:#fff"></path><rect x="362.88" y="131.21" width="24.05" height="4.7" transform="translate(0.32 -0.88) rotate(0.14)" style="fill:#455a64"></rect><rect x="362.86" y="136.67" width="24.05" height="4.7" transform="translate(0.33 -0.88) rotate(0.14)" style="fill:#455a64"></rect><rect x="362.85" y="142.13" width="24.05" height="4.7" transform="translate(0.34 -0.88) rotate(0.13)" style="fill:#455a64"></rect><path d="M376,48.51a15.35,15.35,0,0,1-.12,7.77,13.29,13.29,0,0,1-.44-3.89A13.64,13.64,0,0,1,376,48.51Z" style="fill:#263238"></path><path d="M354.15,53.84A13.52,13.52,0,0,1,356.48,57a13.67,13.67,0,0,1,1.46,3.64,13.52,13.52,0,0,1-2.33-3.15A13.8,13.8,0,0,1,354.15,53.84Z" style="fill:#263238"></path><path d="M337.94,69.36a15.23,15.23,0,0,1,6.67,4,15.48,15.48,0,0,1-6.67-4Z" style="fill:#263238"></path><path d="M331.65,90.9a15.35,15.35,0,0,1,7.77.12,13.29,13.29,0,0,1-3.89.44A13.64,13.64,0,0,1,331.65,90.9Z" style="fill:#263238"></path><path d="M337,112.7a15.5,15.5,0,0,1,6.79-3.78A15.24,15.24,0,0,1,337,112.7Z" style="fill:#263238"></path><path d="M412.06,114.36a15.23,15.23,0,0,1-6.67-4,15.48,15.48,0,0,1,6.67,4Z" style="fill:#263238"></path><path d="M418.35,92.82a15.35,15.35,0,0,1-7.77-.12,13.29,13.29,0,0,1,3.89-.44A13.64,13.64,0,0,1,418.35,92.82Z" style="fill:#263238"></path><path d="M413,71a13.52,13.52,0,0,1-3.15,2.33,13.67,13.67,0,0,1-3.64,1.46,13.52,13.52,0,0,1,3.15-2.33A13.8,13.8,0,0,1,413,71Z" style="fill:#263238"></path><path d="M397.5,54.8a15.23,15.23,0,0,1-4,6.67,15.48,15.48,0,0,1,4-6.67Z" style="fill:#263238"></path></g><g id="freepik--Desk--inject-25"><polygon points="159.66 313.71 161.92 327.26 177.22 409.92 179.69 409.92 168.56 327.26 166.92 313.71 159.66 313.71" style="fill:#dbdbdb"></polygon><polygon points="166.92 313.71 159.66 313.71 161.92 327.26 168.56 327.26 166.92 313.71" style="fill:#a6a6a6"></polygon><polygon points="111.59 409.92 114.06 409.92 129.37 327.26 131.63 313.71 124.37 313.71 122.72 327.26 111.59 409.92" style="fill:#dbdbdb"></polygon><polygon points="124.37 313.71 122.72 327.26 129.37 327.26 131.63 313.71 124.37 313.71" style="fill:#a6a6a6"></polygon><polygon points="65.69 409.92 68.15 409.92 83.46 327.26 85.72 313.71 78.46 313.71 76.81 327.26 65.69 409.92" style="fill:#dbdbdb"></polygon><polygon points="76.81 327.26 83.46 327.26 85.72 313.71 78.46 313.71 76.81 327.26" style="fill:#a6a6a6"></polygon><polygon points="69.6 320.07 181.75 320.07 181.75 308.26 139.77 308.26 125.66 226.16 73.87 226.16 69.6 320.07" style="fill:#dbdbdb"></polygon><polygon points="69.6 320.07 75.71 320.07 79.7 226.16 73.87 226.16 69.6 320.07" style="fill:#a6a6a6"></polygon><rect x="257.36" y="265.56" width="70.28" height="157.25" style="fill:#263238"></rect><rect x="58.68" y="265.56" width="70.28" height="157.25" style="fill:#37474f"></rect><rect x="128.96" y="265.56" width="198.68" height="21.84" style="fill:#455a64"></rect><polygon points="129.41 276.48 154.19 276.29 178.96 276.23 228.52 276.1 278.08 276.23 302.86 276.29 327.64 276.48 302.86 276.66 278.08 276.73 228.52 276.85 178.96 276.73 154.19 276.66 129.41 276.48" style="opacity:0.1"></polygon><rect x="128.96" y="265.56" width="9.45" height="157.25" style="fill:#455a64"></rect><rect x="318.18" y="265.56" width="9.45" height="157.25" style="fill:#455a64"></rect></g><g id="freepik--character-2--inject-25"><path d="M493.68,433.16l-143.12.62C315.78,406.46,312.18,366,337,341.46c15-14.83,34.09-11.84,52.25-14.2h.05a53.56,53.56,0,0,0,18.42-5.4c18.7-9.87,29.25-33.14,45-52.72,2-2.45,4-4.84,6.16-7.14,12.93-13.81,38.68-14.26,52.15,5.16C545.23,316.49,529.56,389.94,493.68,433.16Z" style="fill:#FFC727"></path><path d="M493.68,433.16l-143.12.62C315.78,406.46,312.18,366,337,341.46c15-14.83,34.09-11.84,52.25-14.2h.05a53.56,53.56,0,0,0,18.42-5.4c18.7-9.87,29.25-33.14,45-52.72,2-2.45,4-4.84,6.16-7.14,12.93-13.81,38.68-14.26,52.15,5.16C545.23,316.49,529.56,389.94,493.68,433.16Z" style="opacity:0.2"></path><path d="M496.85,320.26c-3.74,58.71-71.55,80.63-113.91,63-36.82-15.29-24.77-50.2,6.31-56h.05a53.56,53.56,0,0,0,18.42-5.4c18.7-9.87,29.25-33.14,45-52.72C476.13,257,499.6,277.26,496.85,320.26Z" style="opacity:0.1"></path><path d="M380.59,437.81c2.06-.76,48.69-38,49.57-40.57.34-1-4.69-8.07-11-16.49-1.37-1.81-2.79-3.68-4.25-5.57-9.42-12.28-19.7-25.09-19.7-25.09l-31.27,24.84,20.57,24.4,4.51,5.36S377.54,427,376.87,429.84,378.52,438.57,380.59,437.81Z" style="fill:#d3766a"></path><path d="M380.59,437.81c2.06-.76,48.69-38,49.57-40.57.41-1.17-7.1-11.42-15.26-22.06l-30.4,24.15,4.51,5.36S377.54,427,376.87,429.84,378.52,438.57,380.59,437.81Z" style="fill:#fff"></path><path d="M380.59,437.81c2.06-.76,48.69-38,49.57-40.57.34-1-4.69-8.07-11-16.49L389,404.69S377.54,427,376.87,429.84,378.52,438.57,380.59,437.81Z" style="fill:#FFC727"></path><path d="M379.76,435.41c7.67-6.44,39.18-31.69,47.25-37.47.06-.05.1,0,0,.05-7.46,6.55-39.18,31.54-47.18,37.55C379.7,435.66,379.6,435.55,379.76,435.41Z" style="fill:#263238"></path><path d="M378.53,425.77a8,8,0,0,1,6.21-1.83,7.76,7.76,0,0,1,5.08,2.78s-.05.11-.1.07a9.29,9.29,0,0,0-11.11-.92C378.55,425.91,378.47,425.82,378.53,425.77Z" style="fill:#263238"></path><path d="M386.6,407.89c3.1-2.54,7.6-4.33,11.59-3.33.16,0,.1.26,0,.28a56,56,0,0,0-11.3,3.48A.25.25,0,0,1,386.6,407.89Z" style="fill:#263238"></path><path d="M384.94,410.77c3.09-2.55,7.6-4.34,11.59-3.34.16,0,.1.26,0,.29a55.38,55.38,0,0,0-11.31,3.47A.25.25,0,0,1,384.94,410.77Z" style="fill:#263238"></path><path d="M383.28,413.64c3.09-2.55,7.6-4.34,11.59-3.34.15,0,.1.26,0,.29a54.71,54.71,0,0,0-11.3,3.48A.25.25,0,0,1,383.28,413.64Z" style="fill:#263238"></path><path d="M381.61,416.51c3.1-2.54,7.61-4.34,11.6-3.33.15,0,.09.25,0,.28a54.71,54.71,0,0,0-11.3,3.48A.25.25,0,0,1,381.61,416.51Z" style="fill:#263238"></path><path d="M419.08,392.11c3.52-2.8,7.87,2.67,4.35,5.47S415.56,394.91,419.08,392.11Z" style="fill:#fff"></path><path d="M380.46,406.63c3.43.83,7.1.15,10.56-.09a.49.49,0,0,0,.36-.7.12.12,0,0,0,0-.17,20.94,20.94,0,0,0-9.24-5.73c-2.07-.58-5.09-.27-5.62,2.31S378.46,406.15,380.46,406.63Zm-2.21-2.47c-2.41-3.66,2.75-3.49,4.25-3a22,22,0,0,1,2.83,1.19,62.31,62.31,0,0,1,5.47,3.23c-1.71,0-3.4.17-5.1.25C383.67,405.92,379.57,406.17,378.25,404.16Z" style="fill:#263238"></path><path d="M400.92,394.79C399,393,396.36,394.37,395,396a21.08,21.08,0,0,0-4.5,9.9c0,.08,0,.12.12.12a.49.49,0,0,0,.69.39c3-1.73,6.44-3.2,8.83-5.79C401.5,399.1,402.7,396.54,400.92,394.79Zm-5.62,8.07c-1.45.88-2.95,1.69-4.37,2.63a60.1,60.1,0,0,1,2.75-5.72,21.82,21.82,0,0,1,1.68-2.57c1-1.25,5.18-4.25,5.21.13C400.59,399.74,397,401.81,395.3,402.86Z" style="fill:#263238"></path><path d="M332.35,327.17c2.14,16.24,42.18,63.13,46.8,68.51l1.05,1.22,33.12-25.44-.38-.49-29.16-38.18,87-.51-33-25.68s-2.68,1.54-8.25.73c-19.19-2.81-62.47-9-72.67-8.62C343.64,299.25,330.39,312.26,332.35,327.17Z" style="fill:#455a64"></path><path d="M373.31,318.59a38.69,38.69,0,0,1,3,3.86c1,1.35,2.08,2.69,3.11,4l0,0c-.18-.39-.36-.79-.55-1.18-.65-1.35-1.17-2.74-1.94-4,0-.07.07-.15.12-.07.79,1.28,1.71,2.49,2.38,3.84q.48.95.9,1.92c.16.35.32.71.45,1.07a3.63,3.63,0,0,1,.19.52c.46.63.92,1.26,1.36,1.9,1,1.43,1.85,2.93,2.84,4.34.06.08-.06.15-.12.07-1-1.32-2.13-2.56-3.15-3.88s-2-2.71-3-4.1-1.88-2.73-2.83-4.08a40.85,40.85,0,0,1-2.87-4.19A.06.06,0,0,1,373.31,318.59Z" style="fill:#263238"></path><path d="M455.57,283.1c-7.2,18.46-30.2,40-38,40.7-9.1.82-32.6-9.62-41.7-22.27-2.15-3,17.12-17.27,20.37-15,6.69,4.59,19.28,10.8,20.36,10.88,2.15.16,16.45-11,27.86-19C458.67,268.4,458.44,275.74,455.57,283.1Z" style="fill:#d3766a"></path><path d="M378.66,304.88s-8.34-8.6-9.22-16.71c-.61-5.6,0-20.47,13.45-30.55,3.2-2.38,9.45-3.52,5.65,2.28-2.71,4.12-5.67,5.91-6.8,8.6,0,0,8.12-.5,10.39,2.79a75.06,75.06,0,0,1,5.31,9,15.32,15.32,0,0,1-1.6,1.15s1.82,3.28.56,8.85Z" style="fill:#d3766a"></path><path d="M398.56,251.85l9.25,29.37c.37.86,0,1.59-.89,1.64l-15.38.9a2.48,2.48,0,0,1-2.22-1.46l-9.25-29.37c-.37-.86,0-1.59.89-1.64l15.38-.9A2.49,2.49,0,0,1,398.56,251.85Z" style="fill:#a6a6a6"></path><path d="M396.74,252,406,281.31c.37.86,0,1.59-.89,1.64l-15.38.9a2.51,2.51,0,0,1-2.22-1.46L378.24,253c-.36-.86,0-1.59.89-1.64l15.38-.9A2.5,2.5,0,0,1,396.74,252Z" style="fill:#c7c7c7"></path><path d="M392.6,253.55a1.31,1.31,0,1,0,1.2-1.41A1.31,1.31,0,0,0,392.6,253.55Z" style="fill:#263238"></path><path d="M370.26,280.2c1.69-2.42,5.36-7.5,9.81-10.61,4.94-3.45,15.38-8.77,17.89-5.1,1.84,2.7-2,5.08-2,5.08s4.79-1.29,5.92,1.5c1,2.55-2,4.22-2,4.22s3-.28,3.56,2.36c.62,3.18-5.84,3.26-8,7C395,285.52,370.26,280.2,370.26,280.2Z" style="fill:#d3766a"></path><path d="M382.84,275.42a24,24,0,0,1,13-5.91c.13,0,.2.08.09.11a59.07,59.07,0,0,0-13.09,5.85S382.82,275.44,382.84,275.42Z" style="fill:#263238"></path><path d="M386.47,280.31c1.88-1.57,7.85-4.86,13.37-5.13.13,0,.19.09.08.12a64,64,0,0,0-13.42,5.05S386.45,280.33,386.47,280.31Z" style="fill:#263238"></path><path d="M396.49,283.37c0,1.79,0,3.52-.2,5.25-.08.86-.21,1.71-.37,2.56a21.75,21.75,0,0,1-.71,2.53,9.36,9.36,0,0,0,1.85-5,14.22,14.22,0,0,0,0-2.69A10.71,10.71,0,0,0,396.49,283.37Z" style="fill:#263238"></path><path d="M445.8,302.21l-14.2-15.87s11.29-9.67,19.48-13.34,9.33,1.62,5.73,9.58S445.8,302.21,445.8,302.21Z" style="fill:#c7c7c7"></path><path d="M435.37,290.55l10.43,11.66s7.42-11.67,11-19.63c2.7-6,2.72-10.46-.92-10.74Z" style="fill:#a6a6a6"></path><path d="M435.66,283.94A134.47,134.47,0,0,1,448,297.2s-.08.13-.1.11c-3.57-3.42-10.15-10.76-12.34-13.23C435.47,284,435.62,283.89,435.66,283.94Z" style="fill:#263238"></path><path d="M489.12,341.79c-.15.15-56.76-12.25-57.28-12.91-.73-.92,9.38-43.49,20.05-56.19,2.67-3.18,11.17-3,15,.25C485.71,288.83,489.65,341.24,489.12,341.79Z" style="fill:#ebebeb"></path><path d="M456.3,270.6l10.63,2.4c.36.31.72.62,1.06,1l-13.26-3A10.6,10.6,0,0,1,456.3,270.6Zm-4.21,1.88,18.38,4.14c-.25-.31-.5-.6-.77-.89l-16.93-3.83A4.83,4.83,0,0,0,452.09,272.48Zm-1.4,1.78,21.7,4.89c-.2-.29-.4-.58-.62-.85l-20.62-4.66C451,273.84,450.84,274.05,450.69,274.26Zm-1.22,1.81L474,281.61c-.17-.28-.35-.56-.53-.84l-23.59-5.32Zm-1.1,1.86,27,6.1-.45-.83-26.18-5.91Zm-1,1.87,29.23,6.6c-.13-.28-.27-.55-.4-.82l-28.49-6.43Zm-.94,1.88,31.26,7.06-.36-.81L446.74,281C446.63,281.24,446.52,281.46,446.42,281.68Zm-.89,1.89,33.14,7.48c-.11-.27-.22-.53-.32-.79l-32.51-7.35C445.73,283.13,445.63,283.35,445.53,283.57Zm-.85,1.9,34.9,7.89c-.1-.26-.2-.53-.31-.79L445,284.82C444.87,285,444.78,285.25,444.68,285.47Zm-.82,1.92,36.55,8.26c-.08-.26-.18-.53-.28-.79l-36-8.13C444.05,286.94,444,287.17,443.86,287.39Zm-.77,1.92,38.1,8.61c-.08-.27-.17-.52-.26-.79l-37.58-8.48C443.27,288.86,443.17,289.09,443.09,289.31Zm-.75,1.93,39.57,8.94-.24-.78-39.08-8.83C442.51,290.8,442.42,291,442.34,291.24Zm-.73,1.93,41,9.26c-.07-.26-.15-.51-.23-.78l-40.49-9.14C441.77,292.73,441.7,293,441.61,293.17Zm-.69,1.94,42.29,9.56c-.07-.26-.14-.52-.22-.77l-41.83-9.46C441.07,294.66,441,294.88,440.92,295.11Zm-.69,1.94,43.56,9.84c-.06-.26-.13-.51-.19-.77l-43.13-9.74Zm-.65,1.95,44.76,10.11c0-.26-.12-.51-.18-.77l-44.36-10C439.72,298.55,439.65,298.77,439.58,299Zm-.65,2,45.94,10.37-.18-.77-45.55-10.28Zm-.63,2,47.05,10.63c-.06-.26-.11-.51-.17-.76l-46.66-10.55C438.44,302.46,438.37,302.69,438.3,302.91Zm-.61,2,48.11,10.86c0-.24-.1-.5-.15-.76L437.9,304.19Zm-.59,2,49.13,11.1c0-.25-.09-.5-.14-.76l-48.8-11C437.23,306.38,437.16,306.6,437.1,306.83Zm-.58,2,50.11,11.32c0-.25-.08-.5-.13-.75l-49.79-11.25C436.65,308.34,436.58,308.57,436.52,308.79Zm-.56,2L487,322.29c0-.24-.09-.49-.13-.75l-50.73-11.46C436.08,310.32,436,310.54,436,310.77Zm-.56,2,52,11.73-.12-.75-51.65-11.66C435.53,312.29,435.47,312.51,435.4,312.74Zm-.53,2,52.82,11.93-.12-.75L435.06,314C435,314.26,434.93,314.49,434.87,314.71Zm-.52,2L488,328.81c0-.25-.07-.49-.1-.75L434.52,316C434.46,316.24,434.41,316.47,434.35,316.69Zm-.51,2L488.27,331l-.09-.75L434,318Zm-.48,2,55.17,12.46c0-.24-.06-.48-.09-.74L433.53,320C433.47,320.2,433.42,320.44,433.36,320.66Zm-.46,2,55.85,12.62c0-.24-.05-.49-.07-.75L433.05,322Zm-.44,2,56.48,12.76c0-.24,0-.49-.06-.74L432.61,324C432.55,324.2,432.51,324.43,432.46,324.65Zm-.4,2,57,12.88c0-.23,0-.47-.05-.73L432.2,326C432.15,326.22,432.1,326.44,432.06,326.66Zm-.26,2,57.35,12.95a5.52,5.52,0,0,0,0-.72L431.86,328A6.06,6.06,0,0,0,431.8,328.7Z" style="fill:#dbdbdb;fill-rule:evenodd"></path><path d="M454.57,282.5c2.6,0,7.69-5.18,9.55-9.37.12-.29-.54-3.15-1.18-6.67-.38-2.14-.76-4.52-.94-6.72l-13.54,4.51a34.82,34.82,0,0,1,2,8.34,4.58,4.58,0,0,1,0,.91.81.81,0,0,0,0,.16C450.34,275.4,450.52,282.55,454.57,282.5Z" style="fill:#d3766a"></path><path d="M450.49,273.5a.76.76,0,0,0,0,.16,8.84,8.84,0,0,0,1.43-.05c7.83-.83,9-10.56,9.11-13.55l-12.56,4.18a35.83,35.83,0,0,1,2.05,8.35A6.8,6.8,0,0,1,450.49,273.5Z" style="fill:#263238"></path><path d="M462.43,244.57c1.5,4.91-1.11,19.11-4.61,22.27-5.07,4.59-13.37,5-17.26-1.07-3.78-5.91-.06-24.35,3.85-27.23C450.17,234.31,460.22,237.31,462.43,244.57Z" style="fill:#d3766a"></path><path d="M452,250.18a11.28,11.28,0,0,1-1.14-.61,2,2,0,0,1-1-.84.64.64,0,0,1,.22-.77,1.62,1.62,0,0,1,1.67.08,2.38,2.38,0,0,1,1.22,1.24A.71.71,0,0,1,452,250.18Z" style="fill:#263238"></path><path d="M442.31,248.79a11.1,11.1,0,0,0,1.28-.13,2.12,2.12,0,0,0,1.28-.38.66.66,0,0,0,.08-.81,1.62,1.62,0,0,0-1.57-.55,2.44,2.44,0,0,0-1.6.69A.71.71,0,0,0,442.31,248.79Z" style="fill:#263238"></path><path d="M449.66,261.25c-.26.19-.54.46-.89.44a2.48,2.48,0,0,1-1-.4s-.06,0,0,0a1.32,1.32,0,0,0,1.14.71,1,1,0,0,0,.89-.73A.06.06,0,0,0,449.66,261.25Z" style="fill:#263238"></path><path d="M449.09,258.22a3.31,3.31,0,0,1-2.41,1.12,4.31,4.31,0,0,1-1.18-.12l-.22-.06-.21-.07a.23.23,0,0,1-.16-.24h0a.32.32,0,0,1,0-.09h0v-.09c.09-.74.34-1.85.34-1.85-.3.09-1.77.5-1.69.12a50.21,50.21,0,0,1,2.77-9.71.09.09,0,0,1,.17,0c-.53,3.07-1.59,6-2.17,9.11a5.63,5.63,0,0,1,1.61-.23c.1,0-.5,2.14-.52,2.48v0a4.64,4.64,0,0,0,3.55-.54C449.09,258.07,449.16,258.15,449.09,258.22Z" style="fill:#263238"></path><path d="M446,258.91a4,4,0,0,0,1.37,1.44,1.82,1.82,0,0,0,1.06.23c.79-.09.92-.79.87-1.41a4.09,4.09,0,0,0-.21-1A5.05,5.05,0,0,1,446,258.91Z" style="fill:#263238"></path><path d="M447.36,260.35a1.82,1.82,0,0,0,1.06.23c.79-.09.92-.79.87-1.41A1.81,1.81,0,0,0,447.36,260.35Z" style="fill:#ff9abb"></path><path d="M449.5,252.19s.07.05.06.09c-.15,1-.15,2.08.68,2.5,0,0,0,.06,0,.05C449.18,254.56,449.21,253.07,449.5,252.19Z" style="fill:#263238"></path><path d="M450.47,251.29c1.56.07,1.31,3.18-.13,3.11S449.17,251.23,450.47,251.29Z" style="fill:#263238"></path><path d="M443.92,251.37s-.07,0-.08.08c0,1-.24,2.06-1.14,2.32,0,0,0,0,0,0C443.78,253.75,444,252.29,443.92,251.37Z" style="fill:#263238"></path><path d="M443.14,250.3c-1.54-.23-1.89,2.87-.46,3.08S444.43,250.49,443.14,250.3Z" style="fill:#263238"></path><path d="M461.36,259.16h0c-.79-.07-1.53-2.9-2-3s-1.1-.63-1.15-.95a73.1,73.1,0,0,0,.25-8,5.75,5.75,0,0,0-5.11-5.15c-2.58-.08-4.32,2.08-6.09,1.67s-2.18-2.29-3.34-2.17-2.42,2-3,3.63c1-3.17,2.19-5.67,3.44-6.59,5.76-4.23,15.81-1.23,18,6C463.34,247.54,462.74,253.9,461.36,259.16Z" style="fill:#263238"></path><path d="M449.62,257.68a4.18,4.18,0,0,1-2.69-5.26h0a4.17,4.17,0,1,1,3.71,5.46A4.6,4.6,0,0,1,449.62,257.68Zm-2.16-5.08a3.61,3.61,0,1,0,4.55-2.33,3.42,3.42,0,0,0-.88-.17A3.62,3.62,0,0,0,447.46,252.6Z" style="fill:#FFC727"></path><path d="M441.15,256.11c-1.7-.23-2.84-2.27-2.54-4.55a5,5,0,0,1,1.26-2.78,2.6,2.6,0,0,1,4.41.59,5,5,0,0,1,.5,3c-.29,2.16-1.76,3.77-3.36,3.75Zm-.87-6.94a4.41,4.41,0,0,0-1.11,2.47c-.26,2,.66,3.73,2.05,3.92s2.74-1.28,3-3.26a4.39,4.39,0,0,0-.43-2.67,2.22,2.22,0,0,0-1.62-1.25H442A2.28,2.28,0,0,0,440.28,249.17Z" style="fill:#FFC727"></path><path d="M447,252.93l.43-.36c-.53-.64-1.84-1.6-3-.71l.33.45C445.77,251.51,446.93,252.87,447,252.93Z" style="fill:#FFC727"></path><path d="M465.09,257.31l.53-.16c-.07-.25-.77-2.45-2-2.87s-8.6-1-8.91-1.07l-.05.56c2.15.18,7.92.73,8.78,1S464.91,256.71,465.09,257.31Z" style="fill:#FFC727"></path><path d="M459.39,256.14s3.3-4.53,5.36-3.34-.49,7.79-3,8.65a2.48,2.48,0,0,1-3.3-1.4Z" style="fill:#d3766a"></path><path d="M464,254.68s0,0,0,.06a6.29,6.29,0,0,0-3.33,3.87,1.36,1.36,0,0,1,2.06-.33c.05,0,0,.1,0,.09a1.53,1.53,0,0,0-1.7.49,7.76,7.76,0,0,0-.83,1.35c-.09.15-.36.06-.3-.11v0C459.86,257.87,461.62,254.85,464,254.68Z" style="fill:#263238"></path><path d="M471.56,288.66c-3.93,24.06-13.73,39.69-18.32,40.45-12.34,2-33.21-18.15-39.43-22.89-2.52-1.91,18-19.09,20.43-16.74,5.72,5.54,13.41,14.24,13.81,14.33.8.19,3.72-5.28,13.58-20.75C469.6,270.54,473.16,278.83,471.56,288.66Z" style="fill:#d3766a"></path><path d="M402.38,266.29c-1.71,2.59,5.06,6.26,5.06,6.26a5.75,5.75,0,0,0-3.66,1.35c-1.74,1.6,0,5,0,5a7,7,0,0,0-3.63,2c-1.5,1.7-.22,5.41-.22,5.41a6.46,6.46,0,0,0-2.07,3.8c-.79,6.57,13.57,16,18.23,17.79l18.82-17s-7-15.61-12.67-19.65C419.11,269.09,405,262.31,402.38,266.29Z" style="fill:#d3766a"></path><path d="M407.54,272.51a51.81,51.81,0,0,1,11.39,5.56.07.07,0,1,1-.07.12c-3.55-2.18-7.77-3.46-11.4-5.5C407.36,272.64,407.43,272.48,407.54,272.51Z" style="fill:#263238"></path><path d="M404.07,278.72a11.12,11.12,0,0,1,2.5,1.44c.85.56,1.69,1.15,2.52,1.74,1.66,1.2,3.3,2.43,4.9,3.7.07.06,0,.18-.08.13-1.66-1.19-3.34-2.35-5-3.46l-2.58-1.66a12.89,12.89,0,0,1-2.37-1.65A.15.15,0,0,1,404.07,278.72Z" style="fill:#263238"></path><path d="M400,286.42a7.77,7.77,0,0,1,2.18,1.41l2.25,1.67c1.51,1.1,3,2.2,4.55,3.25a.07.07,0,1,1-.07.12c-1.57-1.05-3.16-2.09-4.72-3.16l-2.3-1.59a7.3,7.3,0,0,1-2-1.62A.06.06,0,0,1,400,286.42Z" style="fill:#263238"></path><path d="M398.62,288a5.13,5.13,0,0,0-.89,3.48,7.26,7.26,0,0,0,1.37,3.39,31.42,31.42,0,0,0,4.81,5.42,46.41,46.41,0,0,0,5.73,4.44,39.1,39.1,0,0,0,6.38,3.41l0,0q2.11,1.74,4.28,3.44-2-1.92-4-3.78h0l0,0a48.64,48.64,0,0,1-6.16-3.61,56.9,56.9,0,0,1-5.62-4.39,37.91,37.91,0,0,1-4.89-5.17,7.34,7.34,0,0,1-1.48-3.14A5.23,5.23,0,0,1,398.62,288Z" style="fill:#263238"></path><path d="M469.14,308.22l-18.94-9.73s7.08-13.08,13.41-19.43,9.29-1.83,8.79,6.89S469.14,308.22,469.14,308.22Z" style="fill:#c7c7c7"></path><path d="M453.58,294.82a135,135,0,0,1,16.23,8s0,.15-.06.14c-4.56-1.92-13.33-6.41-16.26-7.93C453.44,295,453.52,294.79,453.58,294.82Z" style="fill:#263238"></path><path d="M259.7,395.57c.77,2.06,38.18,48.57,40.73,49.45,1,.33,8.06-4.72,16.45-11.07,1.81-1.37,3.68-2.8,5.56-4.26,12.25-9.46,25-19.79,25-19.79l-24.94-31.19-24.34,20.65-5.35,4.53s-22.29-11.4-25.18-12.05S258.94,393.51,259.7,395.57Z" style="fill:#d3766a"></path><path d="M259.7,395.57c.77,2.06,38.18,48.57,40.73,49.45,1.18.4,11.4-7.14,22-15.33l-24.25-30.33-5.35,4.53s-22.29-11.4-25.18-12.05S258.94,393.51,259.7,395.57Z" style="fill:#fff"></path><path d="M259.7,395.57c.77,2.06,38.18,48.57,40.73,49.45,1,.33,8.06-4.72,16.45-11.07l-24-30.06s-22.29-11.4-25.18-12.05S258.94,393.51,259.7,395.57Z" style="fill:#FFC727"></path><path d="M262.1,394.74c6.46,7.65,31.81,39.08,37.62,47.13,0,.06,0,.1-.05,0-6.57-7.43-31.66-39.07-37.7-47C261.84,394.68,262,394.58,262.1,394.74Z" style="fill:#263238"></path><path d="M271.74,393.48a8.06,8.06,0,0,1,1.85,6.2,7.77,7.77,0,0,1-2.77,5.09s-.11,0-.07-.1a9.29,9.29,0,0,0,.89-11.11A.06.06,0,0,1,271.74,393.48Z" style="fill:#263238"></path><path d="M289.64,401.49c2.55,3.09,4.36,7.59,3.37,11.58,0,.16-.26.1-.29,0a55.32,55.32,0,0,0-3.51-11.29A.25.25,0,0,1,289.64,401.49Z" style="fill:#263238"></path><path d="M286.76,399.84c2.55,3.08,4.36,7.59,3.37,11.58,0,.15-.26.1-.28,0a55.43,55.43,0,0,0-3.52-11.3A.25.25,0,0,1,286.76,399.84Z" style="fill:#263238"></path><path d="M283.88,398.18c2.56,3.09,4.37,7.59,3.37,11.59,0,.15-.25.09-.28,0a55.35,55.35,0,0,0-3.52-11.29A.26.26,0,0,1,283.88,398.18Z" style="fill:#263238"></path><path d="M281,396.53c2.55,3.09,4.36,7.59,3.37,11.58,0,.16-.26.1-.29,0a55.32,55.32,0,0,0-3.51-11.29A.25.25,0,0,1,281,396.53Z" style="fill:#263238"></path><path d="M305.53,433.92c2.8,3.51-2.65,7.88-5.46,4.36S302.72,430.41,305.53,433.92Z" style="fill:#fff"></path><path d="M290.88,395.35c-.82,3.43-.12,7.1.13,10.55a.48.48,0,0,0,.7.36.1.1,0,0,0,.17,0,21.09,21.09,0,0,0,5.7-9.26c.57-2.06.25-5.08-2.33-5.61S291.35,393.34,290.88,395.35Zm2.47-2.23c3.64-2.42,3.5,2.74,3,4.25a22.73,22.73,0,0,1-1.19,2.84,61.12,61.12,0,0,1-3.21,5.47c0-1.7-.18-3.39-.26-5.1C291.6,398.55,291.34,394.46,293.35,393.12Z" style="fill:#263238"></path><path d="M302.78,415.77c1.84-1.88.41-4.56-1.22-5.95a21,21,0,0,0-9.92-4.46c-.08,0-.12.05-.12.11a.49.49,0,0,0-.38.69c1.73,3,3.21,6.43,5.82,8.81C298.48,416.36,301,417.55,302.78,415.77Zm-8.08-5.59c-.89-1.46-1.7-2.95-2.64-4.37a61.28,61.28,0,0,1,5.73,2.73,21.82,21.82,0,0,1,2.57,1.68c1.25,1,4.26,5.17-.11,5.21C297.84,415.45,295.76,411.91,294.7,410.18Z" style="fill:#263238"></path><path d="M299.49,394.66l26,35L413,368.9l8.45-5.86s2.39,1.61,6,3.6c5,2.76,12.32,6.26,18.81,7.22,10.87,1.61,29,1.44,38.19-10.82,7.71-10.32,3.52-23.78,3.52-23.78L476,334.14s-28.25-23.54-46.55-24.25c-7.77-.31-19.09,5.58-29.57,11.74S299.49,394.66,299.49,394.66Z" style="fill:#455a64"></path><path d="M421.47,363s2.39,1.61,6,3.6c6.36-7.62,19.83-21.45,20.24-21.94Z" style="fill:#263238"></path><path d="M465.69,326.26c1.69,1.17,3.32,2.42,5,3.62s3.33,2.3,4.89,3.59,3.08,2.72,4.58,4.13c.72.69,1.43,1.38,2.13,2.08a19.27,19.27,0,0,1,2,2.21c.05.08-.05.16-.12.12a25,25,0,0,1-2.27-1.84l-2.36-2c-1.51-1.29-3.06-2.55-4.58-3.84s-2.9-2.7-4.39-4-3.27-2.69-4.93-4C465.63,326.29,465.66,326.23,465.69,326.26Z" style="fill:#263238"></path><path d="M305.59,393.4c1.68,1.82,3.24,3.78,4.81,5.69s3.14,3.87,4.7,5.81c3.11,3.89,6.25,7.76,9.31,11.69,1.68,2.16,3.34,4.33,4.9,6.58.07.1-.09.21-.17.12-3.35-3.68-6.41-7.61-9.51-11.49s-6.22-7.79-9.27-11.73c-1.67-2.16-3.39-4.3-4.93-6.56C305.37,393.42,305.51,393.32,305.59,393.4Z" style="fill:#263238"></path><path d="M377.46,393.76c4.36-3.44,8.88-6.68,13.39-9.9s9-6.42,13.55-9.52c1.31-.9,2.63-1.77,4-2.65s2.69-1.68,4-2.59c.08-.05.14.07.07.12-1.18.85-2.3,1.81-3.47,2.69s-2.21,1.69-3.33,2.52c-2.19,1.62-4.4,3.21-6.61,4.81q-6.71,4.85-13.53,9.55c-2.59,1.77-5.16,3.55-7.8,5.24C377.5,394.13,377.31,393.88,377.46,393.76Z" style="fill:#263238"></path><path d="M349.45,357.63c4-3.34,8.35-6.34,12.57-9.42s8.51-6.27,12.8-9.37l12.75-9.22c4.12-3,8.23-6,12.58-8.65,2.38-1.44,4.82-2.78,7.34-4a47.07,47.07,0,0,1,7.58-3.09.07.07,0,0,1,.05.13c-2.15,1.2-4.4,2.21-6.57,3.36s-4.26,2.35-6.34,3.61c-4.32,2.62-8.4,5.59-12.5,8.54-8.52,6.12-17,12.27-25.59,18.31-4.79,3.38-9.49,6.94-14.48,10.05C349.49,358,349.31,357.75,349.45,357.63Z" style="fill:#263238"></path></g><g id="freepik--character-3--inject-25"><rect x="554.61" y="388.46" width="46.35" height="3.4" style="fill:#c7c7c7"></rect><polygon points="597.09 276.07 597.34 294.54 598.91 381.44 598.96 385.34 599.65 436.75 602.27 436.75 602.96 385.34 603.01 381.44 604.58 294.54 604.82 276.07 597.09 276.07" style="fill:#c7c7c7"></polygon><polygon points="604.82 276.07 597.09 276.07 597.34 294.54 604.58 294.54 604.82 276.07" style="fill:#a6a6a6"></polygon><polygon points="550.75 276.07 550.99 294.54 553.3 436.75 555.92 436.75 556.61 385.34 556.66 381.44 558.23 294.54 558.48 276.07 550.75 276.07" style="fill:#c7c7c7"></polygon><polygon points="550.75 276.07 550.99 294.54 558.23 294.54 558.48 276.07 550.75 276.07" style="fill:#a6a6a6"></polygon><rect x="578.6" y="388.46" width="45.5" height="3.4" style="fill:#c7c7c7"></rect><polygon points="620.25 276.07 620.49 294.54 622.06 381.44 622.11 385.34 622.8 436.75 625.42 436.75 627.73 294.54 627.97 276.07 620.25 276.07" style="fill:#c7c7c7"></polygon><polygon points="627.97 276.07 620.25 276.07 620.49 294.54 627.73 294.54 627.97 276.07" style="fill:#a6a6a6"></polygon><polygon points="574.74 276.07 574.99 294.54 576.55 381.44 576.61 385.34 577.29 436.75 579.92 436.75 580.61 385.34 580.66 381.44 582.22 294.54 582.47 276.07 574.74 276.07" style="fill:#c7c7c7"></polygon><polygon points="582.47 276.07 574.74 276.07 574.99 294.54 582.22 294.54 582.47 276.07" style="fill:#a6a6a6"></polygon><rect x="546.73" y="257.58" width="84.32" height="20.01" style="fill:#FFC727"></rect><rect x="564.33" y="257.58" width="66.71" height="20.01" style="fill:#263238;opacity:0.1"></rect><path d="M591.44,128.23c12.62,6,20.5,30.4,14.15,50.26-6.87,21.47-28.86,25.57-41.5,21-13.41-4.87-17.47-19.7-11.37-28.56,5.89-8.57,15.57-11.1,18.2-18.93,1.25-3.75,1.08-10.67,2.7-16.29C575.42,129.44,583.82,124.63,591.44,128.23Z" style="fill:#263238"></path><path d="M596.31,131.64A53.61,53.61,0,0,1,607.57,150a41.43,41.43,0,0,1,2.49,16.07,51.9,51.9,0,0,1-.59,5.42c-1.22,7.14-4.14,14.17-9.17,19.48a30.86,30.86,0,0,1-8.72,6.46,31.52,31.52,0,0,1-10.38,3,31.56,31.56,0,0,0,18.67-9.87,37.15,37.15,0,0,0,8.84-19.21,50,50,0,0,0,.61-5.33,39.81,39.81,0,0,0-.08-5.35A45.22,45.22,0,0,0,607,150.23a53,53,0,0,0-4.47-9.79A55.14,55.14,0,0,0,596.31,131.64Z" style="fill:#263238"></path><path d="M572.32,142.86a33.44,33.44,0,0,1-.84,5.95,19.24,19.24,0,0,1-2.37,5.56,16,16,0,0,1-4.19,4.4c-1.64,1.16-3.26,2.3-4.82,3.53a29.77,29.77,0,0,0-7.92,8.71,17.81,17.81,0,0,0-2.09,11.47,17.46,17.46,0,0,1-.28-6,15.12,15.12,0,0,1,.68-3,16.67,16.67,0,0,1,1.18-2.79,29,29,0,0,1,8-9c1.57-1.25,3.24-2.38,4.88-3.51a16.71,16.71,0,0,0,4.1-4.16C570.86,150.79,571.77,146.79,572.32,142.86Z" style="fill:#263238"></path><path d="M583.38,176C578,184,554,212.68,543.87,211.79c-7.22-.63-40.72-17.3-45.79-21.9-2.88-2.62,17.53-21.81,21.84-19.89,5.33,2.37,22.74,16.58,26.16,17,1.85.21,13.95-7.76,31-18.25C585.86,163.33,588.07,169,583.38,176Z" style="fill:#f7a9a0"></path><path d="M498.08,189.89c-2.74-1.4-14.72-8.91-17.59-11.75s-10.53-11.61-8.58-14,4.4,0,4.4,0-2.65-4.22-.46-6.47,5.87,1.58,5.87,1.58-2.41-4.52-.07-6.61,5.4,2.39,5.4,2.39-2.39-4,.27-4.95c3.19-1.1,6.75,6.84,10.16,9.73.77.66,16.6,12.22,16.6,12.22Z" style="fill:#f7a9a0"></path><path d="M486.78,154.6c2.64,5.83,4.8,7.92,10.06,11.39.11.07,0,.24-.09.17-5.46-2.92-8.55-5.16-10.26-11.45C486.41,154.4,486.66,154.32,486.78,154.6Z" style="fill:#263238"></path><path d="M481.52,158.74c3.26,5.81,5.59,8.11,10.83,12.14.08.06,0,.19-.09.14-5.48-3.53-8.51-5.83-11-12.07C481.13,158.67,481.37,158.47,481.52,158.74Z" style="fill:#263238"></path><path d="M476.58,164.28c3.57,5.41,6,8,11.61,11.3a.12.12,0,0,1-.11.21c-6-2.78-9.1-6-11.65-11.38C476.26,164.05,476.36,163.94,476.58,164.28Z" style="fill:#263238"></path><path d="M519.92,170s-4.14-6.87-6.63-9.48-15.33-9-16.86-6.26c-2,3.48,4.73,8.6,8.34,10.68,0,0-4.57,8.05-.56,12.77S519.92,170,519.92,170Z" style="fill:#f7a9a0"></path><path d="M496.21,155.4c.49,4.47,5.4,6.89,8.75,9.17a.37.37,0,0,1,0,.61c-1.69,3.5-3.05,8.93-1,12.51a.09.09,0,0,1-.16.1c-2.68-3.54-1.78-9,.32-12.7-3.47-2.28-8.29-4.93-8-9.69C496.16,155.37,496.2,155.37,496.21,155.4Z" style="fill:#263238"></path><path d="M551.87,182.79l21.48,11.12s9.56-12.08,13.26-20.77c2.82-6.63-.69-8.7-5.15-7C566.6,171.9,551.87,182.79,551.87,182.79Z" style="fill:#FFC727"></path><path d="M572.18,176.48a1.49,1.49,0,1,0,1.48,1.49A1.49,1.49,0,0,0,572.18,176.48Zm0,2.68a1.2,1.2,0,1,1,1.19-1.19A1.2,1.2,0,0,1,572.18,179.16Zm-14.35-.46a1.18,1.18,0,0,1-1.14.87h-.16l-.32.21a1.28,1.28,0,0,0,.48.09,1.47,1.47,0,0,0,1.47-1.37Zm29.38-11.56a1.19,1.19,0,0,1-1.75-1.06,1.65,1.65,0,0,1,0-.32l-.27-.07a1.23,1.23,0,0,0-.06.39,1.49,1.49,0,0,0,1.48,1.49,1.4,1.4,0,0,0,.68-.17Zm-14.33,21.62a1.49,1.49,0,1,0,1.49,1.49A1.49,1.49,0,0,0,572.88,188.76Zm0,2.68a1.2,1.2,0,0,1,0-2.39,1.2,1.2,0,1,1,0,2.39Zm8.35-8.73a1.49,1.49,0,0,0-1.48,1.49,1.33,1.33,0,0,0,.16.65l.19-.29a1,1,0,0,1-.06-.36,1.19,1.19,0,0,1,1.08-1.19l.19-.29ZM579.12,171a1.49,1.49,0,1,0,1.48,1.49A1.49,1.49,0,0,0,579.12,171Zm0,2.68a1.2,1.2,0,1,1,1.19-1.19A1.2,1.2,0,0,1,579.12,173.71Zm-14.76,9.66a1.49,1.49,0,1,0,1.49,1.49A1.49,1.49,0,0,0,564.36,183.37Zm0,2.68a1.2,1.2,0,1,1,1.2-1.19A1.19,1.19,0,0,1,564.36,186.05Z" style="fill:#fff"></path><path d="M574.41,190a160.71,160.71,0,0,0-18.13-9.5s-.11.12-.07.14c4.79,2.87,14.75,7.9,18.09,9.56C574.36,190.26,574.47,190.07,574.41,190Z" style="fill:#263238"></path><path d="M586.61,173.14c-3.7,8.69-13.26,20.77-13.26,20.77L559,186.5,586.14,166C587.74,167,588.26,169.27,586.61,173.14Z" style="opacity:0.1"></path><path d="M517.74,446.7c2.24-.3,57.22-27.16,58.67-29.51.56-.89-2.89-9.12-7.33-19-1-2.12-4.8-36.23-4.8-36.23L527,376.05l6.57,39.4s-16.45,19.7-17.76,22.45S515.51,447,517.74,446.7Z" style="fill:#f7a9a0"></path><path d="M576.41,417.19C575,419.54,520,446.4,517.74,446.7s-3.23-6.06-1.93-8.8,17.77-22.45,17.77-22.45l-1.37-8.19L568,391.9a46.8,46.8,0,0,0,1.12,6.33C573.52,408.07,577,416.3,576.41,417.19Z" style="fill:#ebebeb"></path><path d="M517.74,446.7c2.24-.3,57.22-27.16,58.67-29.51.56-.89-2.89-9.12-7.33-19l-35.51,17.22s-16.45,19.7-17.76,22.45S515.51,447,517.74,446.7Z" style="fill:#FFC727"></path><path d="M517.45,444.11c9.11-4.73,46.29-22.94,55.65-26.92.08,0,.1,0,0,.05-8.93,4.89-46.25,22.8-55.6,27C517.33,444.35,517.26,444.21,517.45,444.11Z" style="fill:#263238"></path><path d="M518.38,434.19a8.22,8.22,0,0,1,6.61-.44,8,8,0,0,1,4.47,3.91c0,.06-.08.11-.12.06a9.5,9.5,0,0,0-10.9-3.41A.07.07,0,0,1,518.38,434.19Z" style="fill:#263238"></path><path d="M530.45,418.11c3.66-1.85,8.57-2.64,12.34-.74.15.07,0,.28-.1.27a56.3,56.3,0,0,0-12.08,1A.26.26,0,0,1,530.45,418.11Z" style="fill:#263238"></path><path d="M528.14,420.61c3.67-1.85,8.58-2.64,12.35-.74.14.07,0,.28-.1.28a56.38,56.38,0,0,0-12.09,1A.26.26,0,0,1,528.14,420.61Z" style="fill:#263238"></path><path d="M525.84,423.11c3.66-1.85,8.57-2.64,12.34-.74.15.07,0,.28-.1.28a57.08,57.08,0,0,0-12.09,1A.26.26,0,0,1,525.84,423.11Z" style="fill:#263238"></path><path d="M523.53,425.62c3.66-1.86,8.58-2.64,12.34-.75.15.08,0,.28-.09.28a57,57,0,0,0-12.09,1A.26.26,0,0,1,523.53,425.62Z" style="fill:#263238"></path><path d="M566.48,409.58c4.14-2,7.27,4.43,3.12,6.44S562.32,411.59,566.48,409.58Z" style="fill:#263238"></path><path d="M524.59,415.48c3.24,1.59,7.07,1.73,10.58,2.26.36.06.57-.32.52-.62a.1.1,0,0,0,.06-.16,21.58,21.58,0,0,0-8-7.8c-1.94-1-5-1.41-6.14,1S522.69,414.55,524.59,415.48Zm-1.67-3c-1.59-4.2,3.54-2.88,4.93-2.06a26,26,0,0,1,2.57,1.83,64.57,64.57,0,0,1,4.75,4.46c-1.71-.37-3.44-.59-5.16-.9C528,415.48,523.8,414.82,522.92,412.51Z" style="fill:#263238"></path><path d="M547.7,408.21c-1.46-2.27-4.46-1.45-6.22-.13a21.58,21.58,0,0,0-6.71,8.9.11.11,0,0,0,.08.15c0,.31.26.65.61.54,3.39-1.05,7.15-1.76,10.13-3.82C547.32,412.65,549.09,410.35,547.7,408.21ZM540.28,415c-1.66.56-3.33,1-5,1.65,1.32-1.73,2.55-3.51,4-5.11a23.48,23.48,0,0,1,2.27-2.19c1.25-1,6.13-3.09,5.18,1.29C546.26,413.08,542.26,414.36,540.28,415Z" style="fill:#263238"></path><path d="M572,393.47l-44.62,19.36s-12.22-78.44-9.33-110.25c2-21.62,29.71-50.71,43.09-70.13.78-1.12,3.06-13.81,3.06-13.81H601l-.57,27.71c-.82,16.85-38.73,51-39.07,61.13C561,318.75,572,393.47,572,393.47Z" style="fill:#263238"></path><path d="M528.18,401.59c10.18-5.3,37.81-16.94,39.29-17.31.1,0,.17.12.09.17-1.09.76-27.2,13.2-39.3,17.28C528.16,401.76,528.09,401.63,528.18,401.59Z" style="fill:#37474f"></path><path d="M591.77,252.86c-.34.67-.72,1.33-1.12,2-1.41,2.27-3.07,4.39-4.7,6.51l-5.33,6.93c-3.56,4.62-7.07,9.28-10.64,13.89-3.45,4.46-7,8.9-10.28,13.45a32,32,0,0,0-3.85,6.55,22.87,22.87,0,0,0-1.58,7.52c-.27,5.47.75,11,1.43,16.46q1.08,8.58,2.31,17.14t2.61,17.11c.9,5.6,1.67,11.27,2.89,16.81.32,1.43.57,2.87.84,4.31,0,.07.15.05.14,0q-2.61-17.07-5-34.18c-.79-5.71-1.53-11.43-2.26-17.14-.72-5.55-1.61-11.15-1.91-16.74a29.07,29.07,0,0,1,.51-8.06,21.62,21.62,0,0,1,3.26-7.08c1.52-2.26,3.23-4.4,4.9-6.55,1.79-2.3,3.54-4.63,5.32-6.94q5.32-6.93,10.65-13.88c3.38-4.43,6.92-8.79,10.12-13.35a30.66,30.66,0,0,0,3.72-6.78,29.86,29.86,0,0,0,1.62-7.4c.56-5.53.26-11.16.15-16.71,0-1.41-.06-2.82-.1-4.23,0-.12-.17-.11-.18,0-.26,5.64-.31,11.28-.54,16.92a41.49,41.49,0,0,1-1,8.16,24.33,24.33,0,0,1-2,5.32" style="fill:#37474f"></path><path d="M565.25,320.84c-.3-2.23,11.17-62.34,13-64.36.71-.77,9.57.39,20.22,2.1,2.3.36,36.23-4.89,36.23-4.89L631,293.34l-39.74,4s-14.69,21-17,23S565.55,323.08,565.25,320.84Z" style="fill:#f7a9a0"></path><path d="M578.3,256.48c-1.89,2-13.35,62.12-13,64.36s6.69,1.53,9-.45,17-23,17-23l8.26-.83L604.92,258a44.72,44.72,0,0,1-6.4.58C587.86,256.87,579,255.71,578.3,256.48Z" style="fill:#ebebeb"></path><path d="M565.25,320.84c-.3-2.23,11.17-62.34,13-64.36.71-.77,9.57.39,20.22,2.1l-7.28,38.77s-14.69,21-17,23S565.55,323.08,565.25,320.84Z" style="fill:#FFC727"></path><path d="M567.82,320.44c2.17-10,10-50.69,11.36-60.77,0-.08,0-.09-.07,0-2.36,9.89-9.84,50.61-11.46,60.75C567.62,320.62,567.77,320.65,567.82,320.44Z" style="fill:#263238"></path><path d="M577.15,316.94a8.28,8.28,0,0,0-1.31-6.5,8,8,0,0,0-5-3.28c-.06,0-.09.1,0,.12a9.52,9.52,0,0,1,6.16,9.64A.07.07,0,0,0,577.15,316.94Z" style="fill:#263238"></path><path d="M589.49,301.07c.83-4,.3-9-2.52-12.1-.11-.13-.29,0-.25.16A56.13,56.13,0,0,1,589,301.05.26.26,0,0,0,589.49,301.07Z" style="fill:#263238"></path><path d="M587.68,304c.83-4,.3-9-2.52-12.1-.11-.12-.28,0-.24.16a56.75,56.75,0,0,1,2.25,11.92A.26.26,0,0,0,587.68,304Z" style="fill:#263238"></path><path d="M585.88,306.83c.82-4,.29-9-2.53-12.1-.11-.12-.28,0-.24.17a57.2,57.2,0,0,1,2.26,11.91A.26.26,0,0,0,585.88,306.83Z" style="fill:#263238"></path><path d="M584.07,309.72c.82-4,.29-9-2.53-12.11-.11-.12-.28,0-.24.17a57.32,57.32,0,0,1,2.26,11.91A.26.26,0,0,0,584.07,309.72Z" style="fill:#263238"></path><path d="M588.26,264.07c.85-4.53-6.19-5.86-7-1.33S587.41,268.6,588.26,264.07Z" style="fill:#263238"></path><path d="M599.42,307.48c2.08-1.72.92-4.6-.6-6.2a21.53,21.53,0,0,0-9.61-5.63.11.11,0,0,0-.14.1.5.5,0,0,0-.46.67c1.43,3.25,2.57,6.9,5,9.61C595,307.62,597.45,309.11,599.42,307.48Zm-7.63-6.58c-.74-1.58-1.41-3.19-2.21-4.74a64.32,64.32,0,0,1,5.54,3.41,23.28,23.28,0,0,1,2.44,2c1.17,1.13,3.78,5.73-.68,5.3C594.42,306.62,592.68,302.78,591.79,300.9Z" style="fill:#263238"></path><path d="M589.63,285.34c-1.21,3.41-.91,7.23-1,10.78a.5.5,0,0,0,.68.44.11.11,0,0,0,.17.05,21.64,21.64,0,0,0,6.82-8.81c.81-2.05.82-5.16-1.76-6C592.08,281,590.33,283.35,589.63,285.34Zm2.76-2c4-2.07,3.26,3.17,2.6,4.66a23.2,23.2,0,0,1-1.52,2.76A63.59,63.59,0,0,1,589.6,296c.17-1.74.19-3.48.29-5.23C590,288.69,590.19,284.49,592.39,283.35Z" style="fill:#263238"></path><path d="M587.44,218.64h26.79s1.54,10.25,4.08,11.45c7.51,3.54,39.86,7.93,58.87,18,16.36,8.66,18.35,29.09-3.87,37.62-30.47,11.69-71.64,13.71-71.64,13.71l2.43-44.69s30.07-3.43,52.87-2.86c0,0-23.22,6.38-49,1.95-5.88-1-12.43-3.94-18.26-6.1Z" style="fill:#263238"></path><path d="M609.81,294.83c.23-2.51.22-5.07.32-7.59l.3-7.6c.21-5.05,1.39-22.28,1.7-23.61,0-.08.16-.06.17,0,.15,1.21-.34,12.47-.49,15-.28,5.06-.73,10.1-1.12,15.15-.11,1.44-.26,2.88-.38,4.32s-.3,2.88-.36,4.33C610,294.93,609.81,294.92,609.81,294.83Z" style="fill:#37474f"></path><path d="M668,251.53a124.56,124.56,0,0,0-14.44-.81c1.85-.41,3.72-.73,5.57-1,.11,0,.11-.19,0-.18a35,35,0,0,0-6.46,1.2c-3.19,0-6.38.11-9.57.27-8.33.43-16.64,1.22-24.94,2-4.72.46-9.44.95-14.15,1.43a.41.41,0,0,0-.39.41c0,1.24.09,2.47.14,3.71a.24.24,0,0,0,.48,0c0-1.11.13-2.22.16-3.34,8.21-.67,16.41-1.39,24.61-2.1s16.63-1.23,25-1.43c4.67-.11,9.32-.12,14,0C668.07,251.7,668.09,251.54,668,251.53Z" style="fill:#37474f"></path><path d="M669.74,254.56c-7.26,0-14.52.19-21.77.7s-14.35,1.19-21.47,2.17c-2,.28-3.94.56-5.9.88s-4,.73-6,1.08c-.08,0-.06.15,0,.14,3.58-.49,7.2-.86,10.79-1.28s7.07-.82,10.61-1.17q10.74-1.06,21.52-1.71c4.06-.24,8.12-.5,12.19-.65A.08.08,0,0,0,669.74,254.56Z" style="fill:#37474f"></path><path d="M584.05,245a70.16,70.16,0,0,1,11.48,4.68c.15.07.06.3-.09.24-3.86-1.44-7.79-2.8-11.57-4.46A.25.25,0,0,1,584.05,245Z" style="fill:#37474f"></path><path d="M581.51,218.87c0-.13.23-.17.24,0,.2,4.53.69,8.5,1.28,12.71.28,1.95,2.4,12.73,5.73,11.76.56-.16.82-.74.87-1.6a14.1,14.1,0,0,0-.62-3.31c-.49-2.25-.91-4.52-1.22-6.8a63.5,63.5,0,0,1-.53-12.85.11.11,0,0,1,.22,0,119,119,0,0,0,1.94,17.67c.57,2.81,2.19,7-.71,7.57s-5.24-6.42-5.71-8.35A66,66,0,0,1,581.51,218.87Z" style="fill:#37474f"></path><path d="M588.69,243.61a17.48,17.48,0,0,1,.87,2.21,4.87,4.87,0,0,1,.41,1.83c0,.12-.16.14-.23.06a6.42,6.42,0,0,1-.87-1.76c-.29-.68-.6-1.35-.87-2A.37.37,0,0,1,588.69,243.61Z" style="fill:#37474f"></path><path d="M566.55,203.39l-3.93,16.48,50-.28s-5.23-38.52-13.92-49.14c-5.88-7.18-13.28-7.11-18.26-2.61C579.16,169,565.9,182.58,564,189.65,562.32,195.9,566.55,203.39,566.55,203.39Z" style="fill:#FFC727"></path><path d="M574.8,173.82c-1.51,1.62-3,3.21-4.48,4.88a27.26,27.26,0,0,1,1.9-2.82s0-.08-.05,0a20.53,20.53,0,0,0-1.55,2.06,15.64,15.64,0,0,0-.83,1.43c-.47.56-.93,1.13-1.38,1.72a32.64,32.64,0,0,0-2.57,3.92,34.72,34.72,0,0,0-1.84,4.25c0,.07.09.12.12,0a29.78,29.78,0,0,1,2.25-4c.83-1.33,1.71-2.63,2.62-3.9,1.85-2.57,3.82-5.07,5.85-7.5C574.86,173.83,574.82,173.79,574.8,173.82Z" style="fill:#263238"></path><path d="M572.46,176.51l-.22.26a1.2,1.2,0,1,1-1.22,1.49l-.21.27a1.48,1.48,0,1,0,1.65-2Zm26.26,29A1.49,1.49,0,1,0,600.2,207,1.49,1.49,0,0,0,598.72,205.48Zm0,2.68a1.2,1.2,0,1,1,1.19-1.2A1.2,1.2,0,0,1,598.72,208.16ZM582,217.27a1.48,1.48,0,0,0-1.48,1.48,1.46,1.46,0,0,0,.4,1h.45a1.16,1.16,0,0,1-.56-1,1.2,1.2,0,1,1,1.83,1h.45a1.48,1.48,0,0,0-1.09-2.49Zm0-11.18a1.49,1.49,0,0,0,0,3,1.49,1.49,0,1,0,0-3Zm0,2.68a1.2,1.2,0,1,1,1.2-1.2A1.19,1.19,0,0,1,582,208.77Zm13-38.29a1.49,1.49,0,1,0,1.48,1.48A1.49,1.49,0,0,0,595,170.48Zm0,2.68a1.2,1.2,0,1,1,0-2.39,1.2,1.2,0,0,1,0,2.39Zm.52,8.87a1.49,1.49,0,1,0,1.49,1.49A1.49,1.49,0,0,0,595.51,182Zm0,2.68a1.2,1.2,0,1,1,1.2-1.19A1.19,1.19,0,0,1,595.51,184.71Zm-8.23-20a9.16,9.16,0,0,0-1.65.27,1.45,1.45,0,0,0-.46,1.06,1.49,1.49,0,1,0,3,0A1.46,1.46,0,0,0,587.28,164.75Zm-.63,2.53a1.2,1.2,0,1,1,1.2-1.2A1.19,1.19,0,0,1,586.65,167.28Zm-13.77,21.48a1.49,1.49,0,1,0,1.49,1.49A1.49,1.49,0,0,0,572.88,188.76Zm0,2.68a1.2,1.2,0,0,1,0-2.39,1.2,1.2,0,1,1,0,2.39Zm7.78,3.75a1.49,1.49,0,1,0,1.49,1.48A1.48,1.48,0,0,0,580.66,195.19Zm0,2.68a1.2,1.2,0,1,1,1.2-1.2A1.19,1.19,0,0,1,580.66,197.87Zm8.3,2.77a1.49,1.49,0,1,0,1.48,1.49A1.49,1.49,0,0,0,589,200.64Zm0,2.68a1.2,1.2,0,1,1,1.19-1.19A1.19,1.19,0,0,1,589,203.32Zm-16.78,8a1.49,1.49,0,1,0,1.48,1.49A1.49,1.49,0,0,0,572.18,211.32Zm0,2.68a1.2,1.2,0,1,1,1.19-1.19A1.2,1.2,0,0,1,572.18,214Zm15.44-37.52a1.49,1.49,0,1,0,1.49,1.49A1.49,1.49,0,0,0,587.62,176.48Zm0,2.68a1.2,1.2,0,1,1,1.19-1.19A1.19,1.19,0,0,1,587.62,179.16Zm-6.39,3.55a1.49,1.49,0,1,0,1.49,1.49A1.49,1.49,0,0,0,581.23,182.71Zm0,2.68a1.2,1.2,0,0,1,0-2.39,1.2,1.2,0,1,1,0,2.39Zm-8.58,15.25a1.49,1.49,0,1,0,1.49,1.49A1.49,1.49,0,0,0,572.65,200.64Zm0,2.68a1.2,1.2,0,1,1,1.2-1.19A1.2,1.2,0,0,1,572.65,203.32Zm-8.56,13.36a1.41,1.41,0,0,0-.76.22l-.11.46a1.15,1.15,0,0,1,.87-.39A1.2,1.2,0,1,1,563,218.5l-.11.45a1.45,1.45,0,0,0,1.25.7,1.49,1.49,0,1,0,0-3Zm33.29-21.83a1.49,1.49,0,1,0,1.48,1.48A1.49,1.49,0,0,0,597.38,194.85Zm0,2.68a1.2,1.2,0,1,1,1.19-1.2A1.2,1.2,0,0,1,597.38,197.53Zm9,1.39a1.49,1.49,0,0,0,0,3,1.49,1.49,0,1,0,0-3Zm0,2.68a1.2,1.2,0,1,1,1.2-1.2A1.19,1.19,0,0,1,606.36,201.6Zm-14.05,10.12a1.49,1.49,0,1,0,1.48,1.48A1.49,1.49,0,0,0,592.31,211.72Zm0,2.68a1.2,1.2,0,1,1,0-2.39,1.2,1.2,0,0,1,0,2.39Zm16.42-4a1.49,1.49,0,1,0,1.48,1.48A1.49,1.49,0,0,0,608.73,210.38Zm0,2.68a1.2,1.2,0,1,1,0-2.39,1.2,1.2,0,0,1,0,2.39Zm-29.61-42a1.49,1.49,0,1,0,1.48,1.49A1.49,1.49,0,0,0,579.12,171Zm0,2.68a1.2,1.2,0,1,1,1.19-1.19A1.2,1.2,0,0,1,579.12,173.71ZM564.36,195a1.31,1.31,0,0,0-.59.13c0,.1,0,.2.05.3a1.09,1.09,0,0,1,.54-.14,1.2,1.2,0,1,1,0,2.39h-.07l.09.3a1.49,1.49,0,0,0,0-3Zm38.49-16.93v0a.64.64,0,0,1-.08-.19c-.09-.24-.19-.47-.29-.7a1.42,1.42,0,0,0-.05.36,1.47,1.47,0,0,0,.71,1.26C603,178.55,602.94,178.31,602.85,178.08ZM589,188.76a1.49,1.49,0,1,0,0,3,1.49,1.49,0,0,0,0-3Zm0,2.68a1.2,1.2,0,1,1,1.19-1.19A1.19,1.19,0,0,1,589,191.44Zm14.94-4a1.49,1.49,0,1,0,1.49,1.49A1.49,1.49,0,0,0,603.9,187.42Zm0,2.68a1.2,1.2,0,1,1,1.2-1.19A1.19,1.19,0,0,1,603.9,190.1Zm-3.58,27.71a1.48,1.48,0,0,0-1.44,1.86h.3a1.15,1.15,0,0,1-.06-.37,1.2,1.2,0,1,1,2.39,0,1,1,0,0,1-.06.35h.3a1,1,0,0,0,0-.35A1.49,1.49,0,0,0,600.32,217.81Z" style="fill:#fff"></path><path d="M574.76,200.1a45.81,45.81,0,0,1,6.71.77c1.1.22,2.18.49,3.26.79.54.15,1.08.28,1.62.4a7.29,7.29,0,0,0,1.73.24,0,0,0,1,1,0,.08,12.94,12.94,0,0,1-1.65.05,10.85,10.85,0,0,1-1.59-.22c-1.11-.21-2.22-.48-3.33-.71-2.25-.46-4.49-.91-6.77-1.21C574.64,200.28,574.65,200.1,574.76,200.1Z" style="fill:#263238"></path><path d="M569.32,202.37a49.19,49.19,0,0,1,5.55-.55c.93,0,1.85,0,2.78,0l1.33.08c.49,0,1,.14,1.46.17,0,0,0,.08,0,.08-.46,0-.92,0-1.39.06l-1.38,0-2.79.08c-1.85,0-3.7.08-5.55.17C569.23,202.53,569.23,202.38,569.32,202.37Z" style="fill:#263238"></path><polygon points="548.08 264.99 587 261.15 563.91 213.01 524.99 216.85 548.08 264.99" style="fill:#ebebeb"></polygon><polygon points="545.42 265.25 584.34 261.41 561.24 213.27 522.32 217.11 545.42 265.25" style="fill:#a6a6a6"></polygon><path d="M557.11,213.69a3.49,3.49,0,0,0,1.87,1.87c.39.16.44-.34,0-.49a2.55,2.55,0,0,1-1.25-1.17c0-.09-.09-.18-.12-.27a1.77,1.77,0,0,1-.15-.94.62.62,0,0,1,.18-.37l0,0,0,0,.07,0a.53.53,0,0,1,.28,0,1.11,1.11,0,0,1,.47.24,2.18,2.18,0,0,1,.44.48c.08.09.13.18.2.27l0,.07a.47.47,0,0,1,.06.09.15.15,0,0,1,0,.07l.55-.06a4.32,4.32,0,0,0-.62-.91,2.1,2.1,0,0,0-1.59-.8.86.86,0,0,0-.79.88A2.27,2.27,0,0,0,557.11,213.69Z" style="fill:#a6a6a6"></path><path d="M554.06,214a3.49,3.49,0,0,0,1.87,1.87c.39.16.44-.34.06-.49a2.53,2.53,0,0,1-1.26-1.17c0-.09-.09-.18-.12-.27a1.88,1.88,0,0,1-.15-.94.58.58,0,0,1,.19-.37l0,0s0,0,0,0l.08,0a.5.5,0,0,1,.27,0,1.09,1.09,0,0,1,.48.24,2.81,2.81,0,0,1,.44.48l.2.27,0,.07a.41.41,0,0,1,0,.09.15.15,0,0,1,0,.07l.56-.06a4,4,0,0,0-.63-.91,2.13,2.13,0,0,0-1.58-.8.86.86,0,0,0-.8.88A2.27,2.27,0,0,0,554.06,214Z" style="fill:#a6a6a6"></path><path d="M551,214.29a3.44,3.44,0,0,0,1.86,1.87c.39.16.45-.34.06-.49a2.62,2.62,0,0,1-1.26-1.17,2.18,2.18,0,0,1-.11-.27,1.77,1.77,0,0,1-.15-.94.62.62,0,0,1,.18-.37l0,0s0,0,0,0h.07a.44.44,0,0,1,.28,0,1.11,1.11,0,0,1,.47.24,2.81,2.81,0,0,1,.44.48l.2.27,0,.07a.47.47,0,0,1,.06.09.21.21,0,0,1,0,.07l.55-.06a4.32,4.32,0,0,0-.62-.91,2.16,2.16,0,0,0-1.59-.8.86.86,0,0,0-.79.88A2.27,2.27,0,0,0,551,214.29Z" style="fill:#a6a6a6"></path><path d="M548,214.59a3.49,3.49,0,0,0,1.87,1.87c.39.16.44-.34,0-.49a2.55,2.55,0,0,1-1.25-1.17,2.21,2.21,0,0,1-.12-.27,1.88,1.88,0,0,1-.15-.94.62.62,0,0,1,.18-.37l0,0s0,0,0,0h.07a.44.44,0,0,1,.28,0,1.11,1.11,0,0,1,.47.24,2.18,2.18,0,0,1,.44.48,2.83,2.83,0,0,1,.2.28l0,.06a.24.24,0,0,1,.06.09s0,0,0,.07l.55-.06a3.68,3.68,0,0,0-.62-.91,2.13,2.13,0,0,0-1.59-.8.86.86,0,0,0-.79.88A2.27,2.27,0,0,0,548,214.59Z" style="fill:#a6a6a6"></path><path d="M544.92,214.89a3.49,3.49,0,0,0,1.87,1.87c.39.16.44-.34.06-.49a2.53,2.53,0,0,1-1.26-1.17,2.18,2.18,0,0,1-.11-.27,1.79,1.79,0,0,1-.16-.94.58.58,0,0,1,.19-.36l0,0s0,0,.05,0h.07a.41.41,0,0,1,.27,0,1.09,1.09,0,0,1,.48.24,2.54,2.54,0,0,1,.44.49,3.16,3.16,0,0,1,.2.27l0,.06a.41.41,0,0,1,0,.09s0,.05,0,.07l.55-.06a4.32,4.32,0,0,0-.62-.91,2.16,2.16,0,0,0-1.59-.8.85.85,0,0,0-.79.88A2.38,2.38,0,0,0,544.92,214.89Z" style="fill:#a6a6a6"></path><path d="M541.88,215.19a3.46,3.46,0,0,0,1.87,1.87c.39.16.44-.34,0-.49a2.55,2.55,0,0,1-1.25-1.17,2.21,2.21,0,0,1-.12-.27,1.77,1.77,0,0,1-.15-.94.57.57,0,0,1,.18-.36l0,0s0,0,0,0h.07a.44.44,0,0,1,.28,0,1.24,1.24,0,0,1,.47.24,2.25,2.25,0,0,1,.44.49,1.89,1.89,0,0,1,.2.27l0,.06a.47.47,0,0,1,.06.09s0,0,0,.07l.55-.06A4.59,4.59,0,0,0,544,214a2.13,2.13,0,0,0-1.59-.8.86.86,0,0,0-.79.88A2.27,2.27,0,0,0,541.88,215.19Z" style="fill:#a6a6a6"></path><path d="M538.83,215.49a3.49,3.49,0,0,0,1.87,1.87c.39.16.44-.34.06-.49a2.53,2.53,0,0,1-1.26-1.17,2.21,2.21,0,0,1-.12-.27,1.88,1.88,0,0,1-.15-.94.59.59,0,0,1,.18-.36l0,0s0,0,0,0h.08a.49.49,0,0,1,.27,0,1.28,1.28,0,0,1,.48.24,2.54,2.54,0,0,1,.44.49,1.85,1.85,0,0,1,.19.27l0,.06a.24.24,0,0,1,.06.09s0,.05,0,.07l.55-.06a3.87,3.87,0,0,0-.62-.91,2.13,2.13,0,0,0-1.58-.8.87.87,0,0,0-.8.88A2.27,2.27,0,0,0,538.83,215.49Z" style="fill:#a6a6a6"></path><path d="M535.78,215.79a3.49,3.49,0,0,0,1.87,1.87c.39.16.44-.34.06-.49a2.62,2.62,0,0,1-1.26-1.17,2.18,2.18,0,0,1-.11-.27,1.89,1.89,0,0,1-.16-.94.66.66,0,0,1,.19-.36l0,0s0,0,.05,0h.07a.49.49,0,0,1,.27,0,1.21,1.21,0,0,1,.48.24,2.54,2.54,0,0,1,.44.49,3.16,3.16,0,0,1,.2.27l0,.06.06.1s0,0,0,.06l.55-.06a4.26,4.26,0,0,0-.62-.9,2.14,2.14,0,0,0-1.59-.81.86.86,0,0,0-.79.88A2.38,2.38,0,0,0,535.78,215.79Z" style="fill:#a6a6a6"></path><path d="M532.74,216.09a3.49,3.49,0,0,0,1.87,1.87c.39.16.44-.34,0-.49a2.55,2.55,0,0,1-1.25-1.17,2.21,2.21,0,0,1-.12-.27,1.77,1.77,0,0,1-.15-.94.59.59,0,0,1,.18-.36l0,0s0,0,0,0h.07a.52.52,0,0,1,.28,0,1.14,1.14,0,0,1,.47.25,1.81,1.81,0,0,1,.44.48,1.89,1.89,0,0,1,.2.27l0,.06a.33.33,0,0,1,.06.1s0,0,0,.06l.55-.06a4.26,4.26,0,0,0-.62-.9,2.14,2.14,0,0,0-1.59-.81.86.86,0,0,0-.79.88A2.25,2.25,0,0,0,532.74,216.09Z" style="fill:#a6a6a6"></path><path d="M529.69,216.39a3.49,3.49,0,0,0,1.87,1.87c.39.16.44-.34.06-.49a2.53,2.53,0,0,1-1.26-1.17c0-.08-.09-.18-.12-.26a1.92,1.92,0,0,1-.15-1,.56.56,0,0,1,.19-.36l0,0s0,0,0,0l.08,0a.49.49,0,0,1,.27,0,1.11,1.11,0,0,1,.48.25,2.22,2.22,0,0,1,.44.48,3.16,3.16,0,0,1,.2.27l0,.06a.31.31,0,0,1,0,.1s0,0,0,.06l.56-.06a4,4,0,0,0-.63-.9,2.14,2.14,0,0,0-1.58-.81.87.87,0,0,0-.8.88A2.25,2.25,0,0,0,529.69,216.39Z" style="fill:#a6a6a6"></path><path d="M526.65,216.69a3.44,3.44,0,0,0,1.86,1.87c.39.16.45-.34.06-.49a2.62,2.62,0,0,1-1.26-1.17c0-.08-.08-.18-.11-.26a1.81,1.81,0,0,1-.15-.95.59.59,0,0,1,.18-.36l0,0,0,0,.07,0a.52.52,0,0,1,.28,0,1.14,1.14,0,0,1,.47.25,2.48,2.48,0,0,1,.44.48,3.16,3.16,0,0,1,.2.27l0,.06a.33.33,0,0,1,.06.1s0,0,0,.06l.55-.05a4.08,4.08,0,0,0-.62-.91,2.18,2.18,0,0,0-1.59-.81.86.86,0,0,0-.79.88A2.25,2.25,0,0,0,526.65,216.69Z" style="fill:#a6a6a6"></path><path d="M523.6,217a3.49,3.49,0,0,0,1.87,1.87c.39.16.44-.34,0-.49a2.55,2.55,0,0,1-1.25-1.17c0-.08-.09-.18-.12-.26A1.92,1.92,0,0,1,524,216a.59.59,0,0,1,.18-.36l0,0,0,0,.07,0a.53.53,0,0,1,.28,0,1.14,1.14,0,0,1,.47.25,2,2,0,0,1,.44.48,1.89,1.89,0,0,1,.2.27l0,.06a.21.21,0,0,1,.06.1s0,0,0,.06l.55-.05a3.5,3.5,0,0,0-.62-.91,2.14,2.14,0,0,0-1.59-.81.86.86,0,0,0-.79.88A2.25,2.25,0,0,0,523.6,217Z" style="fill:#a6a6a6"></path><path d="M599.76,170.68c13.4,11.8,42.65,39.06,37.91,48-7.78,14.7-31.17,31.37-38.71,35.66-3.26,1.85-21.61-20.69-18.79-23.54,3.38-3.41,26.43-19.18,26.27-20.43s-8.91-17.68-13.61-31C587,162.75,594.17,165.75,599.76,170.68Z" style="fill:#f7a9a0"></path><path d="M592.49,226.1s-11.37-.68-18.83-.77c-4.16-.05-11.3.49-14.37,1.85-4.6,2-22.53,13.48-19.85,17.89,2.42,4,16.58-7.8,16.58-7.8s-15.34,10.63-11.53,14.9,18-11.18,18-11.18S547,252.27,551.63,256.05c3.49,2.85,17.16-10.41,17.16-10.41s-13.27,9.78-9.8,12.88c3.82,3.41,17.21-8,17.21-8,10.13,6.38,17.53,5.84,22.76,3.86C600.17,253.87,592.49,226.1,592.49,226.1Z" style="fill:#f7a9a0"></path><path d="M560.38,233.78c-11.89,7-15.59,14-15.46,13.86,3.22-4,9.36-8.87,11.1-10.21s2.68-2.24,4.42-3.59C560.48,233.81,560.43,233.75,560.38,233.78Z" style="fill:#263238"></path><path d="M566.06,239.43A46.85,46.85,0,0,0,553,249.65c-.13.17,0,.18.13,0,2.17-1.77,10.78-8.56,13-10.22C566.14,239.46,566.1,239.41,566.06,239.43Z" style="fill:#263238"></path><path d="M571.27,244a34.71,34.71,0,0,0-9.91,8.21c-.14.16,0,.18.19,0,3.24-2.79,5.77-5,9.8-8.13C571.42,244,571.35,243.92,571.27,244Z" style="fill:#263238"></path><path d="M622,188.39,599,195.7s-7.36-13.53-9.53-22.72c-1.65-7,2.16-8.46,6.26-6C609.38,175.16,622,188.39,622,188.39Z" style="fill:#FFC727"></path><path d="M620.63,187a1.17,1.17,0,0,1-.91.43,1.19,1.19,0,0,1-.79-2.08l-.2-.21a1.48,1.48,0,1,0,2.11,2.07ZM595,170.48a1.49,1.49,0,1,0,1.48,1.48A1.49,1.49,0,0,0,595,170.48Zm0,2.68a1.2,1.2,0,1,1,0-2.39,1.2,1.2,0,0,1,0,2.39Zm.52,8.87a1.49,1.49,0,1,0,1.49,1.49A1.49,1.49,0,0,0,595.51,182Zm0,2.68a1.2,1.2,0,1,1,1.2-1.19A1.19,1.19,0,0,1,595.51,184.71Zm15.9-4a1.49,1.49,0,1,0,0,3,1.49,1.49,0,0,0,0-3Zm0,2.68a1.2,1.2,0,1,1,1.19-1.19A1.19,1.19,0,0,1,611.41,183.37Zm-7.51-7.32a1.49,1.49,0,1,0,1.49,1.48A1.48,1.48,0,0,0,603.9,176.05Zm0,2.68a1.2,1.2,0,1,1,1.2-1.2A1.2,1.2,0,0,1,603.9,178.73Zm0,8.69a1.49,1.49,0,1,0,1.49,1.49A1.49,1.49,0,0,0,603.9,187.42Zm0,2.68a1.2,1.2,0,1,1,1.2-1.19A1.19,1.19,0,0,1,603.9,190.1Z" style="fill:#fff"></path><path d="M598.6,191.7a159.52,159.52,0,0,1,19.48-6.28s.09.13,0,.15c-5.21,2-15.88,5.27-19.45,6.34C598.61,191.93,598.54,191.73,598.6,191.7Z" style="fill:#263238"></path><path d="M598.75,195.81c-.94-1.73-1.74-3.56-2.55-5.36-.33-.46-.66-.91-1-1.39a11.33,11.33,0,0,1-1-1.92s0-.06,0,0c.18.29.34.61.52.91l.55.9c.19.31.38.61.59.91q-1.2-2.64-2.21-5.36s0-.09.07,0c1,1.8,1.93,3.65,2.79,5.53s1.73,3.66,2.45,5.54c.33-.08.65-.17,1-.22a.07.07,0,0,1,.05.14,11,11,0,0,1-1.06.46A.19.19,0,0,1,598.75,195.81Z" style="fill:#263238"></path><path d="M584,164.1c-6.37,2.61-7.25,13.2-7.25,13.2l5.11-2.66,4.3,5.17s4.78-5.84,4.82-12C591,163.85,589.1,162,584,164.1Z" style="fill:#fff"></path><path d="M590.29,167.14c-.35,1.36-4.11,7.4-8.33,6.93-2.16-.24-1.62-7.85-1.62-7.85l-.07-.56-.9-7.94,11.14-5.5S590.39,166.75,590.29,167.14Z" style="fill:#f7a9a0"></path><path d="M590.46,157.64a16.07,16.07,0,0,1-10.19,8l-.9-7.95,11.15-5.49S590.5,154.7,590.46,157.64Z" style="fill:#263238"></path><path d="M569.31,144.87c-2.29,13.84,5.74,16.77,8.73,17.26,2.71.44,12,1.61,15.69-11.91s-2-19-8.14-20.32S571.6,131,569.31,144.87Z" style="fill:#f7a9a0"></path><path d="M572,142a7.81,7.81,0,0,0,1-.1,1.59,1.59,0,0,0,1-.29.51.51,0,0,0,.06-.6,1.24,1.24,0,0,0-1.18-.42,1.88,1.88,0,0,0-1.21.52A.53.53,0,0,0,572,142Z" style="fill:#263238"></path><path d="M581.31,143.06c-.33-.08-.61-.2-.92-.3a1.62,1.62,0,0,1-.89-.48.51.51,0,0,1,.07-.61,1.23,1.23,0,0,1,1.24-.16,1.84,1.84,0,0,1,1.07.76A.53.53,0,0,1,581.31,143.06Z" style="fill:#263238"></path><path d="M579.08,146.38s.07.05.06.09c-.15.95-.17,2.05.65,2.48,0,0,0,.06,0,.05C578.75,148.72,578.78,147.25,579.08,146.38Z" style="fill:#263238"></path><path d="M580.05,145.5c1.54.08,1.26,3.15-.16,3.08S578.76,145.43,580.05,145.5Z" style="fill:#263238"></path><path d="M580.64,145.72c.25.19.49.53.81.59s.68-.23.95-.52c0,0,.06,0,.05,0,0,.59-.32,1.18-1,1.21s-1-.53-1-1.14C580.43,145.79,580.54,145.64,580.64,145.72Z" style="fill:#263238"></path><path d="M573.42,145.7s-.08,0-.08.08c-.05.95-.26,2-1.15,2.28,0,0,0,.06,0,.06C573.26,148.06,573.53,146.61,573.42,145.7Z" style="fill:#263238"></path><path d="M572.65,144.64c-1.52-.24-1.89,2.82-.48,3S573.93,144.84,572.65,144.64Z" style="fill:#263238"></path><path d="M572,144.76c-.26.13-.54.4-.83.38s-.54-.38-.72-.72c0,0,0,0-.05,0-.09.58,0,1.21.58,1.39s.94-.29,1.15-.85C572.16,144.88,572.09,144.71,572,144.76Z" style="fill:#263238"></path><path d="M578.46,153.84c-.19.25-.38.59-.72.67a2.69,2.69,0,0,1-1-.1s-.06,0,0,.05a1.27,1.27,0,0,0,1.27.35,1,1,0,0,0,.63-.94C578.57,153.81,578.49,153.8,578.46,153.84Z" style="fill:#263238"></path><path d="M574.48,150.05s-.34,1.4-.41,2.07a3.61,3.61,0,0,0,3.61-.73c.06,0,0-.14-.09-.1a4.8,4.8,0,0,1-3,.54c0-.19.67-2.38.56-2.4a6,6,0,0,0-1.56.19c.63-2.93,1.72-5.75,2.3-8.68a.09.09,0,0,0-.17-.06,48.64,48.64,0,0,0-2.87,9.24C572.77,150.5,574.2,150.14,574.48,150.05Z" style="fill:#263238"></path><path d="M575,152.14a3.48,3.48,0,0,0,1.29,1.19,1.61,1.61,0,0,0,1,.14c.7-.13.77-.75.68-1.3a3.71,3.71,0,0,0-.23-.85A4.54,4.54,0,0,1,575,152.14Z" style="fill:#263238"></path><path d="M576.28,153.33a1.61,1.61,0,0,0,1,.14c.7-.13.77-.75.68-1.3A1.62,1.62,0,0,0,576.28,153.33Z" style="fill:#ff9abb"></path><path d="M594.21,130.75c-1.21-.45-2.35-7.18,2.08-10.39s10.1.46,7.72,6C602.5,129.82,596.76,131.7,594.21,130.75Z" style="fill:#263238"></path><path d="M602.48,120a7.53,7.53,0,0,1,2.55,4.27,4.55,4.55,0,0,1-1.34,4.34,9.16,9.16,0,0,1-4.4,2.15,13.46,13.46,0,0,1-2.53.31,6.89,6.89,0,0,1-2.55-.28,5.9,5.9,0,0,0,2.53.75,10.93,10.93,0,0,0,2.68,0,8.89,8.89,0,0,0,4.93-2.19,5.07,5.07,0,0,0,1.41-5.21A6.68,6.68,0,0,0,602.48,120Z" style="fill:#263238"></path><path d="M593,149.77c-2.63.17-3-5.86-3-5.86s-11-2.55-11.42-11.67a15.4,15.4,0,0,1-8.25,7.93s1-9.92,9-11.38c0,0,10-3,15,5.11S594.75,149.65,593,149.77Z" style="fill:#263238"></path><path d="M578.61,131.56a9.81,9.81,0,0,0,.25,4.17,10.22,10.22,0,0,0,1.88,3.79,7.66,7.66,0,0,0,.71.8l.36.39c.13.12.27.23.41.34s.54.46.83.66.6.38.9.56c.15.09.3.19.45.27l.48.22,1,.43c.66.23,1.33.43,2,.61-.63-.32-1.27-.57-1.88-.89l-.89-.5-.45-.25c-.14-.09-.27-.2-.41-.3l-.83-.59c-.27-.21-.51-.45-.76-.67l-.38-.33-.34-.38a6.78,6.78,0,0,1-.66-.76,11.81,11.81,0,0,1-1.92-3.54,12.13,12.13,0,0,1-.51-2A11.79,11.79,0,0,1,578.61,131.56Z" style="fill:#263238"></path><path d="M591.36,149.15s3.39-4.13,5.29-2.89-.89,7.39-3.29,8.08a2.38,2.38,0,0,1-3.07-1.52Z" style="fill:#f7a9a0"></path><path d="M595.8,148s0,.05,0,.07a6,6,0,0,0-3.38,3.5,1.31,1.31,0,0,1,2-.21s0,.1,0,.08a1.47,1.47,0,0,0-1.64.39,7.18,7.18,0,0,0-.87,1.23c-.08.14-.34,0-.27-.12v0C591.71,150.82,593.56,148,595.8,148Z" style="fill:#263238"></path><path d="M593.14,153.8a.6.6,0,0,1-.77.36.6.6,0,1,1,.77-.36Z" style="fill:#455a64"></path><path d="M592.84,153.69a.27.27,0,0,1-.36.17.28.28,0,1,1,.19-.53A.28.28,0,0,1,592.84,153.69Z" style="fill:#263238"></path><path d="M594.25,153.15a.43.43,0,0,1-.81-.29.43.43,0,0,1,.81.29Z" style="fill:#455a64"></path></g><g id="freepik--character-1--inject-25"><path d="M192,142.93c-3.61-.85-13,1.6-16.18,6.4s-3,12.63-1.44,13.42,8.51.3,13.29-2.24S193.8,143.35,192,142.93Z" style="fill:#263238"></path><path d="M192,143c.12,0,.14-.22,0-.23-3.17-.12-6.59.9-9.63,1.73a18.34,18.34,0,0,0-7,3.1,8.51,8.51,0,0,0-3.19,6.38,17.49,17.49,0,0,0,1.55,8.69c0,.08.18.06.15,0-1.38-5.31-2.57-11.79,2.74-15.32C181.19,144.26,186.9,144,192,143Z" style="fill:#263238"></path><path d="M174.94,161.38c-3.18.37-11.51,6.28-13,12.3s3.29,15,4.84,15.67,8.64-5,11-9.23c1.57-2.81.41-6.14-.24-9.44C176.6,165.8,175.44,161.33,174.94,161.38Z" style="fill:#263238"></path><path d="M179.7,179.39c1-6.13-2.36-12.27-4.37-17.86,0-.05-.12,0-.11,0,1.08,5.35,4.22,10.18,4.23,15.75a10.23,10.23,0,0,1-3.95,8.53c-2.39,1.72-5.37,2.48-8.12,3.41-.18.07-.07.33.11.28C173,187.82,178.64,185.72,179.7,179.39Z" style="fill:#263238"></path><path d="M174.25,161.94c.16-.07.05-.33-.11-.25-4.54,2.07-10,5.1-12.5,9.64-2.69,4.91-.14,10.14,2.12,14.64,0,.05.12,0,.09,0-2.23-4.57-4.57-10.24-1.53-15C164.94,166.8,170,164,174.25,161.94Z" style="fill:#263238"></path><path d="M167.42,188.58c2.11,1.1,5.2,4.73,5.9,9,1.2,7.28,4,5.85,11.9,7.8,6.71,1.65,8.13,9.17,4.54,12.88,0,0,2.09-4.63-2.44-6.91-5.41-2.73-17.79,2.94-24-4.71C155.39,196.72,167.42,188.58,167.42,188.58Z" style="fill:#263238"></path><path d="M170.27,192c-.09-.1.08-.25.17-.15a10.7,10.7,0,0,1,2.19,3.17c.68,1.54.7,3.21,1.27,4.78,1.44,4,6.26,3.86,9.76,4.11,4.69.34,8.45,3.21,8.73,8.15,0,.07-.1.08-.11,0a8.33,8.33,0,0,0-5-7.09c-2.74-1.16-5.83-.55-8.67-1.24-2-.48-3.88-1.31-4.78-3.2a16.58,16.58,0,0,1-.87-3.34A11.57,11.57,0,0,0,170.27,192Z" style="fill:#263238"></path><path d="M166.18,189.46s.11,0,.07.08c-2.66,2.61-5.47,5.24-6.24,9.07-.83,4.13,1.29,8.26,4.53,10.75,3.62,2.8,7.51,1.47,11.57.69,2.93-.57,5.92-.91,8.8.09.09,0,0,.18,0,.16-4.63-1.08-8.88.29-13.43,1a9.14,9.14,0,0,1-9-3.59C157.12,201.35,160.37,194.07,166.18,189.46Z" style="fill:#263238"></path><path d="M189.29,139.57c-1-1.3-3,.26-2,1.56S190.28,140.86,189.29,139.57Z" style="fill:#FFC727"></path><path d="M190.24,141.72c-1-1.29-3,.27-2,1.57S191.23,143,190.24,141.72Z" style="fill:#FFC727"></path><path d="M191.56,143.7c-1-1.3-3,.27-2,1.56S192.55,145,191.56,143.7Z" style="fill:#FFC727"></path><path d="M193.08,145.44c-1-1.3-3,.26-2,1.56S194.07,146.73,193.08,145.44Z" style="fill:#FFC727"></path><path d="M194.93,146.92c-1-1.3-3,.27-2,1.56S195.92,148.22,194.93,146.92Z" style="fill:#FFC727"></path><path d="M196.93,148c-1-1.3-3,.26-2,1.56A1.27,1.27,0,0,0,196.93,148Z" style="fill:#FFC727"></path><path d="M185.86,339.76l-30.25,24.45c-5.81,4.65-10.82,8.82-13.21,11.22,0,0,0,0,0,0-.91.9-1.43,1.55-1.46,1.86,0,0,0,.05,0,.07.21,2.66,36,50.14,37.76,51.38s5.47-3.81,5.55-6.76-5.48-27.26-5.48-27.26l30-24.71Z" style="fill:#ad6359"></path><path d="M181.54,407.45c1.37,6.39,2.71,13.1,2.68,14.57-.08,3-3.75,8-5.55,6.76s-37.55-48.72-37.76-51.38c0,0,0,0,0-.07,0-.31.55-1,1.46-1.86,0,0,0,0,0,0,1.94-1.95,5.61-5.06,10-8.65,1-.84,2.09-1.69,3.18-2.57l30.25-24.45,22.87,30.29-30,24.71s1.41,6.17,2.8,12.67Z" style="fill:#ad6359"></path><path d="M184.22,422c-.08,3-3.75,8-5.55,6.76s-37.55-48.72-37.76-51.38c0,0,0,0,0-.07,0-.31.55-1,1.46-1.86,0,0,0,0,0,0,1.94-1.95,5.61-5.06,10-8.65C159,380,177,415.68,180.61,415.43c1.29-.09,1.25-4.16.93-8C182.91,413.84,184.25,420.55,184.22,422Z" style="fill:#263238"></path><path d="M202.21,310.65c-2.14,10.58-46,52.78-46,52.78l30.6,35.32s62.31-62.2,59.06-85.57C243,292.85,212.57,211.1,212.57,211.1H177.46S204.32,300.25,202.21,310.65Z" style="fill:#37474f"></path><path d="M202.21,310.65c-2.14,10.58-46,52.78-46,52.78l30.6,35.32s62.31-62.2,59.06-85.57C243,292.85,212.57,211.1,212.57,211.1H177.46S204.32,300.25,202.21,310.65Z" style="fill:#37474f"></path><path d="M190.26,390.36c-4.06-5.06-2.83-3.67-6.95-8.68-2-2.46-15.29-18.57-17.57-20.53-.05,0-.13,0-.1.08,1.53,2.59,15.08,18.47,17.14,20.89,4.22,4.93,3.06,3.47,7.34,8.36C190.2,390.57,190.34,390.45,190.26,390.36Z" style="fill:#263238"></path><path d="M206.57,305.49c-.5-2.64-1.07-5.27-1.63-7.9q-1.71-8.05-3.62-16.07-3.8-15.88-8.25-31.59c-3-10.51-6.16-21-9.8-31.31-.45-1.27-.92-2.54-1.38-3.81,0-.09-.19-.05-.16.05,3.16,10.32,6.41,20.61,9.37,31s5.67,20.74,8.25,31.17c1.29,5.25,2.49,10.51,3.66,15.78q.87,3.87,1.69,7.77a54.76,54.76,0,0,1,1.47,8,12.23,12.23,0,0,1-2.06,7.22c-1.32,2.15-2.87,4.18-4.36,6.21-3,4.07-31.58,35.91-32.5,36.78-.08.07,0,.17.11.11,3.83-3.45,28.08-29.7,31.16-33.76,1.53-2,3-4.05,4.47-6.1a24.47,24.47,0,0,0,3.49-6.15A14.5,14.5,0,0,0,206.57,305.49Z" style="fill:#263238"></path><path d="M206.5,211.1l-6.37,83.66c-6.09-28.64-22.66-83.66-22.66-83.66Z" style="fill:#263238"></path><path d="M194.44,383.35S202,420.26,202,420.29c.1,7.43.33,13.95.75,17.31a.07.07,0,0,0,0,0,5.16,5.16,0,0,0,.58,2.29s0,0,0,.05c2.23,1.47,61.66,2.39,63.74,1.72s.35-6.65-1.93-8.53-24.88-12.4-24.88-12.4l-8-36.89Z" style="fill:#ad6359"></path><path d="M267.15,441.71c-2.08.67-61.51-.25-63.74-1.72,0,0,0,0,0-.05a5.16,5.16,0,0,1-.58-2.29.07.07,0,0,1,0,0c-.33-2.68-.55-7.36-.67-12.92,15.1,2.94,53,9.95,55,7,.75-1.15-3-3.82-6.38-5.95,6.28,3,13.31,6.49,14.53,7.49C267.5,435.06,269.24,441.06,267.15,441.71Z" style="fill:#263238"></path><path d="M212.19,211.1a144.24,144.24,0,0,0-3,17.52c-.73,7.35-1.65,13.85-2.63,14.66s-6.66,4.48-8.52,5.62c0,0,17.3,52.44,21.76,69.93,6.47,25.34,22,101.38,22,101.38H200.45s-12.56-72.39-18-96.52c-4.71-20.69-22.74-82.75-22.74-82.75a36,36,0,0,1,1.46-29.84S212.19,211.07,212.19,211.1Z" style="fill:#37474f"></path><path d="M240.26,412.18c-6.49,0-4.62-.12-11.11-.08-3.18,0-24.06.16-27,.7-.06,0-.06.12,0,.13,3,.44,23.84-.06,27-.14,6.49-.17,4.62-.19,11.11-.42A.1.1,0,0,0,240.26,412.18Z" style="fill:#263238"></path><path d="M209.47,241.21a79.16,79.16,0,0,0-11.4,7.62.14.14,0,0,0,.16.24c3.86-2.42,7.81-4.77,11.54-7.4A.27.27,0,0,0,209.47,241.21Z" style="fill:#263238"></path><path d="M206.31,212.67c0-.14-.29-.13-.26,0a138.93,138.93,0,0,1,1.45,13.94c.14,2.16.26,14.2-3.57,13.92-.65-.05-1.06-.61-1.3-1.53a15.14,15.14,0,0,1-.07-3.69c0-2.53,0-5.05-.2-7.58a69,69,0,0,0-2.31-13.91.12.12,0,0,0-.24,0,129.09,129.09,0,0,1,1.86,19.41c0,3.14-.81,8,2.47,8s4.25-8.08,4.32-10.26A71.38,71.38,0,0,0,206.31,212.67Z" style="fill:#263238"></path><path d="M204.07,240.85a20.32,20.32,0,0,0-.45,2.57,5.49,5.49,0,0,0,0,2.06c0,.13.21.11.26,0a7,7,0,0,0,.56-2.08c.16-.8.34-1.6.48-2.4A.42.42,0,0,0,204.07,240.85Z" style="fill:#263238"></path><path d="M195.65,389.42c-.11-1-.24-1.91-.37-2.87-.26-1.83-.57-3.65-.85-5.48-.57-3.67-1.2-7.33-1.85-11-1.29-7.29-2.79-14.56-4.37-21.8-.89-4.09-1.93-8.13-3-12.18-.08-.28-.47-.14-.43.13.67,3.7,1.31,7.4,2.07,11.09s1.5,7.34,2.23,11c1.45,7.26,2.79,14.55,4.23,21.82.4,2,.77,4.11,1.17,6.16.2,1,.41,2.05.63,3.07s.54,2,.7,3c0,.1.16.05.15-.05C195.78,391.41,195.76,390.4,195.65,389.42Z" style="fill:#263238"></path><path d="M224.13,334.54c-1.38-6.86-3.23-13.62-5.1-20.36-3.75-13.55-8.17-26.91-12.58-40.26-1.27-3.85-2.53-7.7-3.81-11.54-.63-1.92-3.75-12.3-4.13-13.28a.08.08,0,0,0-.16.05c.89,3.53,2.11,8.68,3.14,12.18s2.14,6.89,3.21,10.33c2.11,6.76,4.26,13.51,6.3,20.29,4.05,13.41,8.07,26.8,11.36,40.42.92,3.81,1.84,7.62,2.68,11.45s1.56,7.68,2.36,11.51c0,.11.2.08.18,0C226.89,348.32,225.51,341.41,224.13,334.54Z" style="fill:#263238"></path><path d="M198.45,370.39c-2.27-13.08-5-26.08-8-39s-6.41-25.89-10.13-38.7-7.84-25.5-12.27-38.08a159.29,159.29,0,0,1-5.61-18.11c-1.36-6.11-2.05-12.71-.63-18.87a31.63,31.63,0,0,1,1.41-4.59c0-.11-.11-.19-.15-.09-5,11.58-1.75,24.24,2,35.65,2.07,6.25,4.28,12.46,6.32,18.72q3.15,9.65,6,19.36c3.81,12.85,7.35,25.77,10.52,38.79s6,26.12,8.48,39.28,4.59,26.48,6.72,39.75c.27,1.73.49,3.47.72,5.2,0,.1.16.1.15,0C202.45,396.55,200.72,383.44,198.45,370.39Z" style="fill:#263238"></path><path d="M194.46,173.69c8.89,18.36,20.19,38.24,30.76,41.37,10.06,3,35-21.53,39.37-29.78,1.51-2.85-19.17-16.08-21.94-14-5.23,3.85-14.82,16.15-16.4,15.78s-14.72-12.87-26.61-23.4C192.44,157.23,188.29,161,194.46,173.69Z" style="fill:#ad6359"></path><path d="M255.72,191.7s9.38-2.8,15.42-4.92c3.38-1.18,9-3.72,11.06-5.73,3.11-3,14.22-17.5,10.76-20.27-3.13-2.51-11.09,11.17-11.09,11.17s9.25-13.09,4.92-15.42-11.26,14.33-11.26,14.33,9.2-13.67,4.36-15.36C276.23,154.23,269.1,169,269.1,169s7.83-11.8,4.12-13.27c-4.09-1.64-11.53,11.55-11.53,11.55a23.52,23.52,0,0,0-20.82,5.48C240,173.44,255.72,191.7,255.72,191.7Z" style="fill:#ad6359"></path><path d="M279.38,176.05c7.55-9.12,8.46-15.91,8.39-15.73-1.43,4.14-4.94,9.91-5.94,11.5s-1.51,2.6-2.52,4.2C279.29,176.06,279.35,176.09,279.38,176.05Z" style="fill:#263238"></path><path d="M273.13,173.16a40.4,40.4,0,0,0,7.57-12.1c.06-.18,0-.16-.12,0-1.23,2.06-6.18,10.08-7.5,12.07C273.06,173.16,273.11,173.19,273.13,173.16Z" style="fill:#263238"></path><path d="M267.59,171a29.82,29.82,0,0,0,5.58-9.54c.07-.17-.07-.14-.16,0-1.8,3.21-3.18,5.74-5.52,9.45C267.45,171,267.54,171.09,267.59,171Z" style="fill:#263238"></path><path d="M237.94,174.26,257.16,196s-21.78,22.89-31.57,20.1-27.58-30.1-33-47.25c-3.76-11.87,2.71-9.77,9.37-3.8s24.14,20.84,24.93,20.65S237.94,174.26,237.94,174.26Z" style="fill:#FFC727"></path><path d="M192.57,168.85c5.43,17.15,23.23,44.46,33,47.25,4.32,1.24,11-2.55,17.1-7.16,0,0,0,0,0,0-9.72-10.7-35.68-36.67-47.44-48.36C191.94,159.39,190.18,161.28,192.57,168.85Z" style="opacity:0.1"></path><path d="M250.59,199.3c-2.79-3-13.75-15.71-15.93-18.61-.15-.2-.06-.35.12-.16a221,221,0,0,1,15.92,18.66C250.77,199.27,250.66,199.38,250.59,199.3Z" style="fill:#263238"></path><path d="M161.2,210.22l52.5.87-4.12-15.72A16.42,16.42,0,0,0,212,181.66c-1.26-4.62-7.23-11.56-10.9-16-8.92-10.72-16.67-5.87-19.14-3.11C172.47,173.12,161.2,210.22,161.2,210.22Z" style="fill:#fff"></path><path d="M186,159.57s5.15,13.67,7.16,16.79,7.93,8.72,7.93,8.72.69-8.07,0-12.67-4.6-11.18-4.6-11.18a9.71,9.71,0,0,1,2.77,2.17c4.45,4.53,12.18,13.44,13.34,19.54a16.32,16.32,0,0,1-2.39,12.33l5.92,18.88-8.29,2.57-4.08-4.84-4.21,5.37-42-5.85,7-13.17s10-26,13.95-31.64C183,160.09,186,159.57,186,159.57Z" style="fill:#FFC727"></path><path d="M195.54,194.44a46.1,46.1,0,0,1,6.75-.11c1.12.08,2.23.21,3.34.36.55.08,1.1.14,1.66.2a7.79,7.79,0,0,0,1.74,0c.05,0,.07.07,0,.08a13,13,0,0,1-1.64.26,12.2,12.2,0,0,1-1.6,0c-1.13-.07-2.26-.19-3.4-.27-2.29-.17-4.57-.33-6.86-.33A.1.1,0,0,1,195.54,194.44Z" style="fill:#263238"></path><path d="M190.44,197.39a49.74,49.74,0,0,1,5.43-1.26c.91-.15,1.83-.25,2.76-.33.44,0,.89-.07,1.33-.09s1,0,1.47,0a0,0,0,0,1,0,.08c-.46,0-.91.17-1.37.24l-1.37.21c-.92.14-1.83.3-2.75.43-1.83.27-3.66.56-5.49.89C190.36,197.56,190.35,197.42,190.44,197.39Z" style="fill:#263238"></path><path d="M187.29,160.19c.07,1,3.58,7.64,7.84,8.09,1.39.14,2.5-7.4,2.5-7.4l.21-.54,2.93-7.53-8.26-7.27-1.21-1s-.66,2.11-1.46,4.75l-.12.38c-.05.15-.1.29-.14.43-.12.39-.25.79-.36,1.2s-.18.6-.27.92l-.26,1A51,51,0,0,0,187.29,160.19Z" style="fill:#ad6359"></path><path d="M189.84,149.31a16.2,16.2,0,0,0,8,11l2.93-7.53-8.26-7.27-1.21-1S190.64,146.67,189.84,149.31Z" style="fill:#263238"></path><path d="M213.74,139.89c2.61,13.94-5.45,17.07-8.45,17.63-2.73.51-12.09,1.89-16.13-11.7s1.62-19.22,7.8-20.71S211.13,125.94,213.74,139.89Z" style="fill:#ad6359"></path><path d="M211.35,139.08a7.93,7.93,0,0,1-1-.09,1.58,1.58,0,0,1-1-.28.49.49,0,0,1-.07-.61,1.25,1.25,0,0,1,1.19-.44,1.9,1.9,0,0,1,1.22.52A.54.54,0,0,1,211.35,139.08Z" style="fill:#263238"></path><path d="M201.89,139.83a9.25,9.25,0,0,0,.93-.32,1.58,1.58,0,0,0,.89-.49.53.53,0,0,0-.07-.62,1.26,1.26,0,0,0-1.26-.14,1.83,1.83,0,0,0-1.07.77A.54.54,0,0,0,201.89,139.83Z" style="fill:#263238"></path><path d="M204.28,142.3s-.07,0-.06.09c.16,1,.19,2.07-.63,2.51,0,0,0,.06,0,0C204.64,144.66,204.59,143.17,204.28,142.3Z" style="fill:#263238"></path><path d="M203.29,141.42c-1.56.09-1.25,3.2.19,3.1S204.59,141.33,203.29,141.42Z" style="fill:#263238"></path><path d="M202.69,141.64c-.25.2-.48.54-.81.6s-.69-.22-1-.5c0,0,0,0,0,0,0,.59.34,1.18,1,1.2s1-.54,1-1.15C202.91,141.71,202.8,141.56,202.69,141.64Z" style="fill:#263238"></path><path d="M209.57,141.31s.08,0,.09.07c.05,1,.28,2.06,1.18,2.3,0,0,0,.06,0,.06C209.76,143.69,209.47,142.23,209.57,141.31Z" style="fill:#263238"></path><path d="M210.34,140.22c1.54-.26,1.94,2.83.52,3.07S209.05,140.44,210.34,140.22Z" style="fill:#263238"></path><path d="M211,140.34c.27.13.55.4.84.38s.55-.39.72-.74c0,0,.05,0,.06,0,.09.59,0,1.23-.58,1.42s-1-.29-1.17-.86C210.84,140.47,210.91,140.29,211,140.34Z" style="fill:#263238"></path><path d="M205.06,150.42c.24.21.49.51.84.52a2.46,2.46,0,0,0,1-.3s.07,0,.05.05a1.32,1.32,0,0,1-1.2.59,1,1,0,0,1-.8-.82C205,150.41,205,150.38,205.06,150.42Z" style="fill:#263238"></path><path d="M208.68,146.5s.36,1.41.44,2.09c0,.06-.16.11-.38.15h0a3.25,3.25,0,0,1-3.26-.85c0-.06,0-.14.09-.11a4.86,4.86,0,0,0,3,.52c0-.2-.69-2.4-.58-2.42a6,6,0,0,1,1.57.18c-.66-3-1.79-5.8-2.4-8.75,0-.11.13-.16.17-.07a49.58,49.58,0,0,1,3,9.32C210.42,146.94,209,146.58,208.68,146.5Z" style="fill:#263238"></path><path d="M208.64,148.49A3.89,3.89,0,0,1,207.3,150a1.83,1.83,0,0,1-1,.25c-.8-.07-.94-.77-.9-1.39a4.53,4.53,0,0,1,.18-1A5.08,5.08,0,0,0,208.64,148.49Z" style="fill:#263238"></path><path d="M207.3,150a1.83,1.83,0,0,1-1,.25c-.8-.07-.94-.77-.9-1.39A1.81,1.81,0,0,1,207.3,150Z" style="fill:#ff9abb"></path><path d="M189.24,146.59a5.88,5.88,0,0,0,3.11-4.9,15.24,15.24,0,0,0,6-5.24c-.08.3-.69,2.44-1,3.52,9-2,11.5-9,11.5-9a15.52,15.52,0,0,1,4.14,5.57s-.14-5.54-3.12-9.14A9,9,0,0,0,201.5,124a12.74,12.74,0,0,0-12.3,4.29C183.57,134.9,189.24,146.59,189.24,146.59Z" style="fill:#263238"></path><path d="M204.15,138.22a16.49,16.49,0,0,1-4.56,1.87s0,0,0,0a14.18,14.18,0,0,0,6.48-4.24,13.28,13.28,0,0,0,1.84-2.8,9.16,9.16,0,0,0,1.07-3.48c0-.09.15-.08.14,0a10.62,10.62,0,0,1-.58,3.58,10,10,0,0,1-1.89,3.06,11.54,11.54,0,0,1-2.49,2" style="fill:#263238"></path><path d="M191.76,145.21s-3.52-4.1-5.41-2.81,1.06,7.46,3.49,8.1a2.4,2.4,0,0,0,3.07-1.6Z" style="fill:#ad6359"></path><path d="M187.24,144.15a0,0,0,0,0,0,.06,6.08,6.08,0,0,1,3.49,3.47,1.32,1.32,0,0,0-2-.17s0,.1.05.09a1.47,1.47,0,0,1,1.67.35,6.82,6.82,0,0,1,.9,1.23c.09.14.35,0,.28-.13l0,0C191.43,146.91,189.51,144.14,187.24,144.15Z" style="fill:#263238"></path><path d="M178.78,165.68c-12,20.64-29.84,68-33.07,74.77-2.19,4.6,21.84,16.72,22.86,13.37,1.31-4.28,18-59.44,19.08-84C188.15,158.37,182.61,159.08,178.78,165.68Z" style="fill:#ad6359"></path><path d="M169.22,251.52c-.56,4.17-3.39,12.56-5.5,13.84s-13.17,1-18.74,1-6.67-1.55-6.58-3.47,11.79-2.29,11.79-2.29-15.63,4.48-19.56,5.22-13,3-14.29-.25c-.59-1.47,1.89-2.95,1.89-2.95s-3.8,1.11-4.41-.78c-.69-2.15,2.33-3.34,2.33-3.34s-2.37.48-2.43-1.27c-.12-3.92,14.74-5.84,14.74-5.84s-11.37,5.54-11.74,2.34c-.51-4.42,22.81-9.27,25.24-11.2a45.44,45.44,0,0,0,4.94-4.8Z" style="fill:#ad6359"></path><path d="M138.48,263.86a1.71,1.71,0,0,1,.53-1.49,4.82,4.82,0,0,1,1.36-.88,18,18,0,0,1,3.19-1c2.2-.56,4.45-.95,6.7-1.53a27.59,27.59,0,0,0-6.89.77,12.85,12.85,0,0,0-3.28,1.26,4.45,4.45,0,0,0-1.38,1.18A1.78,1.78,0,0,0,138.48,263.86Z" style="fill:#263238"></path><path d="M118.23,262.62c1.6-.4,3.19-.85,4.77-1.31s3.15-.94,4.73-1.41l4.71-1.48c1.56-.49,3.13-1,4.72-1.45a36.67,36.67,0,0,0-4.88.87c-1.62.37-3.2.83-4.78,1.31s-3.14,1-4.69,1.59S119.73,261.92,118.23,262.62Z" style="fill:#263238"></path><path d="M133.39,253.07a29.83,29.83,0,0,0-4.51.62,44.53,44.53,0,0,0-4.41,1.13,38.49,38.49,0,0,0-4.27,1.6,32.22,32.22,0,0,0-4,2.08c1.44-.49,2.84-1.05,4.27-1.52s2.84-1,4.28-1.41,2.88-.87,4.32-1.3S131.92,253.46,133.39,253.07Z" style="fill:#263238"></path><path d="M131.09,249.34a30.12,30.12,0,0,0-13.78,4.71c2.31-.83,4.56-1.69,6.85-2.46S128.75,250.09,131.09,249.34Z" style="fill:#263238"></path><path d="M144.3,239.38l26.35,12.87s15.33-59.31,17-78.46-5.66-14.74-10.74-5.74C170,180.34,144.3,239.38,144.3,239.38Z" style="fill:#FFC727"></path><path d="M170,245.56c-3.59-1.46-18.05-7.95-21.08-9.57-.21-.11-.19-.27,0-.18a210,210,0,0,1,21.09,9.6C170.16,245.46,170.11,245.6,170,245.56Z" style="fill:#263238"></path><path d="M179.85,214.51c.39-2.82.88-5.62,1.39-8.42s1.06-5.59,1.62-8.38,1.18-5.56,1.83-8.33l1-4.15c.36-1.38.7-2.76,1.08-4.13-.18,1.41-.43,2.81-.64,4.22l-.74,4.2c-.5,2.8-1.06,5.59-1.63,8.38s-1.17,5.56-1.83,8.33S180.61,211.76,179.85,214.51Z" style="fill:#263238"></path><path d="M185.26,188.35a10.3,10.3,0,0,1,.85-2.09,10,10,0,0,1,1.24-1.88,10.26,10.26,0,0,1-.84,2.09A10.07,10.07,0,0,1,185.26,188.35Z" style="fill:#263238"></path><path d="M185.74,159.89c-.53,3.64-1.13,7.27-1.74,10.89l-.19-.3c2.14.56,4.26,1.17,6.39,1.76l.37.1-.16.34c-.64,1.4-1.26,2.81-1.92,4.2l-.09-.39c2.26,2,4.55,3.9,6.78,5.9s4.47,4,6.66,6c-2.36-1.85-4.68-3.74-7-5.65s-4.58-3.85-6.88-5.77l-.18-.15.1-.24c.62-1.4,1.29-2.79,1.93-4.19l.21.45c-2.12-.63-4.25-1.22-6.37-1.87l-.23-.07,0-.23C184.2,167.08,184.93,163.48,185.74,159.89Z" style="fill:#263238"></path><path d="M197.56,162c1.19,1.23,2,2.11,3.17,3.37s2.32,2.52,3.44,3.81l.23.26-.3.19L201.88,171l.07-.49c.91.91,1.83,1.81,2.72,2.75l.12.12,0,.17c-.46,2.47-.87,5-1.38,7.42s-1,4.94-1.54,7.4c.31-2.5.67-5,1.06-7.48s.81-5,1.21-7.46l.09.29c-.92-.9-1.81-1.84-2.71-2.76l-.28-.29.34-.21,2.24-1.34-.07.45c-1.12-1.29-2.19-2.62-3.29-3.94S198.62,163.38,197.56,162Z" style="fill:#263238"></path><path d="M201.84,188.41c.31,1.2.64,2.4.92,3.61s.56,2.41.83,3.63h0v0c.09,2.69.11,5.39.16,8.09s0,5.4,0,8.1c-.16-2.69-.27-5.39-.36-8.09s-.16-5.4-.19-8.1v0c-.25-1.21-.5-2.43-.71-3.65S202,189.64,201.84,188.41Z" style="fill:#263238"></path><path d="M201.13,191.63a.91.91,0,0,1-.71.88.93.93,0,0,1-.71-.17,1,1,0,0,1-.34-.71,1,1,0,0,1,.34-.71.93.93,0,0,1,.71-.17A.9.9,0,0,1,201.13,191.63Zm0,0a.6.6,0,0,0-.24-.46.53.53,0,0,0-.83.46.55.55,0,0,0,.36.54.61.61,0,0,0,.47-.07A.62.62,0,0,0,201.13,191.63Z" style="fill:#263238"></path><path d="M202.18,199.44a.89.89,0,0,1-.71.88.91.91,0,0,1-.7-.17.9.9,0,0,1-.34-.71.93.93,0,0,1,.34-.71.91.91,0,0,1,.7-.17A.9.9,0,0,1,202.18,199.44Zm0,0a.59.59,0,0,0-.24-.46.57.57,0,0,0-.47-.07.54.54,0,0,0-.36.53.55.55,0,0,0,.36.54.57.57,0,0,0,.47-.07A.59.59,0,0,0,202.18,199.44Z" style="fill:#263238"></path><path d="M202.54,206.59a.88.88,0,0,1-.7.88.89.89,0,0,1-.71-1.58.85.85,0,0,1,.71-.17A.87.87,0,0,1,202.54,206.59Zm0,0a.56.56,0,0,0-.24-.46.55.55,0,0,0-.46-.07.56.56,0,0,0-.37.53.57.57,0,0,0,.37.54.55.55,0,0,0,.46-.07A.56.56,0,0,0,202.54,206.59Z" style="fill:#263238"></path></g><g id="freepik--Device--inject-25"><rect x="237.85" y="263.13" width="54.16" height="2.43" style="fill:#c7c7c7"></rect><rect x="264.75" y="263.13" width="27.26" height="2.43" style="fill:#a6a6a6"></rect><polygon points="267.68 265.56 320.46 265.56 327.36 229.71 274.58 229.71 267.68 265.56" style="fill:#c7c7c7"></polygon><path d="M294.31,247.63a2.89,2.89,0,0,0,2.93,3.22,3.57,3.57,0,0,0,3.49-3.22,2.9,2.9,0,0,0-2.93-3.21A3.57,3.57,0,0,0,294.31,247.63Z" style="fill:#ebebeb"></path></g><g id="freepik--speech-bubbles--inject-25"><path d="M364.66,214.43a33.37,33.37,0,0,0,53.28,26.8l16.36,4.18-6.81-15.23a33.39,33.39,0,1,0-62.83-15.75Z" style="fill:#fff"></path><path d="M364.66,214.43a33.63,33.63,0,0,0,5,17.47,37.92,37.92,0,0,0,2.66,3.75,38.39,38.39,0,0,0,3.2,3.3c.59.5,1.11,1.07,1.74,1.51l1.85,1.36c.62.46,1.3.81,1.95,1.21l1,.59c.33.19.69.34,1,.51l2.08,1,2.16.78a18.48,18.48,0,0,0,2.2.64c.74.16,1.47.41,2.23.51a31.65,31.65,0,0,0,4.55.49,27.89,27.89,0,0,0,4.57-.06A33,33,0,0,0,417.73,241l.13-.1.17,0L434.41,245l-.51.61-6.85-15.21-.1-.22.11-.21a33,33,0,0,0,1.1-28.85,34.28,34.28,0,0,0-8.86-11.91,32.87,32.87,0,0,0-13.2-6.85,33.17,33.17,0,0,0-41.44,32.09Zm0,0a33.57,33.57,0,0,1,12.82-26.36,33.25,33.25,0,0,1,28.75-6.26,33.46,33.46,0,0,1,13.55,6.81,33.68,33.68,0,0,1,12.11,27.07,33.11,33.11,0,0,1-4,14.72l0-.43,6.77,15.25.37.83-.88-.23-16.34-4.25.3-.06a33.6,33.6,0,0,1-17.21,6.41,29.82,29.82,0,0,1-4.63,0,34,34,0,0,1-4.6-.56c-.76-.11-1.49-.37-2.25-.55a17.58,17.58,0,0,1-2.21-.68l-2.17-.8-2.08-1c-.34-.18-.69-.33-1-.52l-1-.61c-.65-.42-1.33-.78-1.95-1.24l-1.84-1.4a20.92,20.92,0,0,1-1.74-1.51,37.25,37.25,0,0,1-3.2-3.33,38.23,38.23,0,0,1-2.65-3.78A33.65,33.65,0,0,1,364.66,214.43Z" style="fill:#263238"></path><path d="M402.56,199a5.42,5.42,0,1,1-5.42-5.43A5.42,5.42,0,0,1,402.56,199Z" style="fill:#FFC727"></path><rect x="391.39" y="203.63" width="11.5" height="1.66" style="fill:#FFC727"></rect><rect x="391.39" y="203.63" width="11.5" height="1.66" style="opacity:0.1"></rect><rect x="385.5" y="226.46" width="23.29" height="1.66" style="fill:#FFC727"></rect><rect x="385.5" y="226.46" width="23.29" height="1.66" style="opacity:0.1"></rect><rect x="385.5" y="231.1" width="23.29" height="1.66" style="fill:#FFC727"></rect><rect x="385.5" y="231.1" width="23.29" height="1.66" style="opacity:0.1"></rect><rect x="386.36" y="228.11" width="21.56" height="2.99" style="fill:#FFC727"></rect><rect x="392.45" y="205.29" width="9.38" height="1.66" style="fill:#FFC727"></rect><path d="M406.67,226.46H387.61s4.35-4.35,5.26-9.55c.75-4.39,1.12-10,1.12-10h6.29s.37,5.57,1.14,10C402.32,222.11,406.67,226.46,406.67,226.46Z" style="fill:#FFC727"></path><path d="M171.84,100.25a19.31,19.31,0,0,0,30.82,15.51l9.47,2.41-3.94-8.81a19.32,19.32,0,1,0-36.35-9.11Z" style="fill:#FFC727"></path><path d="M171.84,100.25a19.34,19.34,0,0,0,2.93,10.1,20.61,20.61,0,0,0,1.54,2.16,22.27,22.27,0,0,0,1.85,1.91,18.1,18.1,0,0,0,4.38,3,19.07,19.07,0,0,0,5,1.65,19.38,19.38,0,0,0,2.63.27,17.8,17.8,0,0,0,2.63,0,18.9,18.9,0,0,0,9.65-3.79l.13-.1.17,0,9.49,2.34-.51.6-4-8.79-.1-.21.11-.22A19.29,19.29,0,0,0,210,101a19,19,0,0,0-1.57-8.34,19.91,19.91,0,0,0-5.06-6.84,18.89,18.89,0,0,0-7.57-4,19.09,19.09,0,0,0-23.94,18.45Zm0,0A19.42,19.42,0,0,1,179.24,85a19.57,19.57,0,0,1,29.37,24.62l0-.42,3.9,8.82.37.84-.88-.23-9.44-2.5.3-.06a19.52,19.52,0,0,1-10,3.69,16.1,16.1,0,0,1-2.69,0,18.21,18.21,0,0,1-2.67-.33,19.11,19.11,0,0,1-5-1.79,19.32,19.32,0,0,1-4.36-3.08,21.08,21.08,0,0,1-1.85-1.93,23.25,23.25,0,0,1-1.53-2.19A19.45,19.45,0,0,1,171.84,100.25Z" style="fill:#263238"></path><path d="M183.63,101.06a1.7,1.7,0,1,1-1.69-1.7A1.69,1.69,0,0,1,183.63,101.06Z" style="fill:#263238"></path><path d="M192.55,101.06a1.7,1.7,0,1,1-1.69-1.7A1.69,1.69,0,0,1,192.55,101.06Z" style="fill:#263238"></path><path d="M201.47,101.06a1.7,1.7,0,1,1-1.69-1.7A1.69,1.69,0,0,1,201.47,101.06Z" style="fill:#263238"></path><path d="M478.63,193.54a19.31,19.31,0,0,1-30.82,15.51l-9.47,2.42,3.94-8.81a19.32,19.32,0,1,1,36.35-9.12Z" style="fill:#FFC727"></path><path d="M478.63,193.54a19.43,19.43,0,0,1-2.85,10.15,17.32,17.32,0,0,1-3.38,4.12,19.32,19.32,0,0,1-4.36,3.08,19.11,19.11,0,0,1-5.05,1.79,19.74,19.74,0,0,1-2.66.34,17.38,17.38,0,0,1-2.7,0,19.59,19.59,0,0,1-10-3.68l.3.06-9.44,2.49-.88.23.37-.83,3.9-8.83,0,.42a19.56,19.56,0,1,1,36.77-9.34Zm0,0a19.34,19.34,0,0,0-7.49-15.15,19.55,19.55,0,0,0-7.87-3.57,19.12,19.12,0,0,0-8.58.27,18.89,18.89,0,0,0-7.57,4,20,20,0,0,0-5.06,6.85,18.93,18.93,0,0,0-1.57,8.34,19.37,19.37,0,0,0,2.22,8.18l.11.21-.1.21-4,8.8-.5-.61,9.48-2.33.17-.05.13.1a18.93,18.93,0,0,0,9.65,3.79,15.43,15.43,0,0,0,2.63,0,17.9,17.9,0,0,0,2.63-.27,19.26,19.26,0,0,0,5-1.65,18,18,0,0,0,4.37-3,23.7,23.7,0,0,0,1.85-1.9,21.85,21.85,0,0,0,1.54-2.17A19.34,19.34,0,0,0,478.63,193.54Z" style="fill:#263238"></path><path d="M466.84,194.35a1.7,1.7,0,1,0,1.7-1.7A1.7,1.7,0,0,0,466.84,194.35Z" style="fill:#263238"></path><path d="M457.92,194.35a1.7,1.7,0,1,0,1.69-1.7A1.7,1.7,0,0,0,457.92,194.35Z" style="fill:#263238"></path><path d="M449,194.35a1.7,1.7,0,1,0,1.69-1.7A1.7,1.7,0,0,0,449,194.35Z" style="fill:#263238"></path><path d="M493.58,108.62a33.38,33.38,0,0,0,53.28,26.81l16.36,4.17-6.81-15.23a33.39,33.39,0,1,0-62.83-15.75Z" style="fill:#fff"></path><path d="M493.58,108.62a33.67,33.67,0,0,0,5,17.48,37.92,37.92,0,0,0,2.66,3.75,39.91,39.91,0,0,0,3.2,3.3,22.24,22.24,0,0,0,1.74,1.5l1.85,1.37c.62.45,1.3.8,1.95,1.21l1,.59c.33.18.69.33,1,.5l2.08,1,2.16.77a15.37,15.37,0,0,0,2.2.64c.74.17,1.47.41,2.23.52a33.13,33.13,0,0,0,4.55.49,29.06,29.06,0,0,0,4.57-.07,33,33,0,0,0,16.83-6.51l.13-.1.17,0,16.37,4.1-.5.6L556,124.57l-.1-.21.11-.21a33,33,0,0,0,1.1-28.86,34.28,34.28,0,0,0-8.86-11.91A32.72,32.72,0,0,0,535,76.54a33.41,33.41,0,0,0-14.92-.41,33.28,33.28,0,0,0-26.52,32.49Zm0,0A33.57,33.57,0,0,1,506.4,82.26,33.32,33.32,0,0,1,535.15,76a33.59,33.59,0,0,1,13.55,6.81,33.72,33.72,0,0,1,12.11,27.08,33.07,33.07,0,0,1-4,14.71l0-.42,6.77,15.25.37.83-.88-.23-16.34-4.26.3-.05a33.6,33.6,0,0,1-17.21,6.41,28.63,28.63,0,0,1-4.63,0,32.46,32.46,0,0,1-4.6-.56c-.76-.11-1.5-.37-2.25-.54a17.58,17.58,0,0,1-2.21-.68l-2.17-.81-2.08-1c-.34-.17-.7-.33-1-.52l-1-.61c-.65-.41-1.33-.77-2-1.24l-1.84-1.39a21,21,0,0,1-1.74-1.52,36,36,0,0,1-3.2-3.33,38.1,38.1,0,0,1-2.65-3.77A33.56,33.56,0,0,1,493.58,108.62Z" style="fill:#263238"></path><path d="M526.05,107.83a10,10,0,1,1,5.09.86A10,10,0,0,1,526.05,107.83ZM536,86.09a13.88,13.88,0,0,0-13.53,24.13l-2,4.37,5.8,2.69,2.22-4.8A13.88,13.88,0,0,0,536,86.09Z" style="fill:#455a64"></path><path d="M526.33,117.61l-6.25-2.9,2-4.4a14.15,14.15,0,1,1,6.45,2.44Zm-5.59-3.14,5.35,2.48,2.19-4.74.18,0a13.62,13.62,0,0,0,7.41-25.91h0A13.63,13.63,0,0,0,522.59,110l.17.11Zm9.48-5.48a10.26,10.26,0,0,1-4.27-.93h0a10.87,10.87,0,0,1-2.37-1.51,10.27,10.27,0,0,1,3-17.46,10.18,10.18,0,0,1,7.85.28,10.27,10.27,0,0,1-3.31,19.57C530.85,109,530.54,109,530.22,109Zm-4.06-1.38a9.78,9.78,0,1,0-2.26-1.44A10.48,10.48,0,0,0,526.16,107.61Z" style="fill:#263238"></path><polygon points="527.33 117.8 520.86 131.73 512.7 128.03 519.19 114.03 520.41 114.59 526.21 117.28 527.33 117.8" style="fill:#263238"></polygon><path d="M521,132.06l-8.62-3.91,6.71-14.45,8.59,4Zm-8-4.16,7.71,3.5L527,117.92l-7.68-3.56Z" style="fill:#263238"></path><path d="M524.18,96.61l-.47-.18a7.77,7.77,0,0,1,9-4.49l-.1.49A7.16,7.16,0,0,0,524.18,96.61Z" style="fill:#263238"></path><path d="M294.29,106A33.37,33.37,0,0,1,241,132.8L224.66,137l6.81-15.23A33.39,33.39,0,1,1,294.29,106Z" style="fill:#fff"></path><path d="M294.29,106a33.55,33.55,0,0,1-5,17.52,36.62,36.62,0,0,1-2.65,3.78,40.11,40.11,0,0,1-3.19,3.33c-.59.5-1.11,1.07-1.74,1.51l-1.85,1.4c-.61.46-1.3.82-1.94,1.24l-1,.61c-.33.19-.69.34-1,.51l-2.08,1-2.17.81a16.62,16.62,0,0,1-2.21.68c-.75.18-1.49.44-2.25.55a33.79,33.79,0,0,1-4.6.56,29.82,29.82,0,0,1-4.63,0,33.64,33.64,0,0,1-17.21-6.41l.3.06-16.33,4.25-.88.23.37-.83L231,121.55V122a33.15,33.15,0,0,1-4-14.72,33.8,33.8,0,0,1,12.11-27.08,33.9,33.9,0,0,1,28.68-7,34.06,34.06,0,0,1,13.62,6.48A33.54,33.54,0,0,1,294.29,106Zm0,0a33.11,33.11,0,0,0-41.43-32.09,33.08,33.08,0,0,0-13.21,6.84,34.54,34.54,0,0,0-8.86,11.92,33,33,0,0,0,1.1,28.85l.11.21-.09.21-6.85,15.22-.51-.61,16.38-4.09.16,0,.14.1A33,33,0,0,0,258.05,139a29.06,29.06,0,0,0,4.57.06,31.49,31.49,0,0,0,4.55-.49c.76-.1,1.49-.35,2.24-.51a18.48,18.48,0,0,0,2.2-.64l2.16-.78,2.07-1c.35-.17.7-.32,1-.51l1-.59c.65-.4,1.34-.76,1.95-1.21l1.85-1.36a20.92,20.92,0,0,0,1.74-1.51,35.62,35.62,0,0,0,3.2-3.3,36.33,36.33,0,0,0,2.66-3.75A33.45,33.45,0,0,0,294.29,106Z" style="fill:#263238"></path><path d="M253.25,88.2s-2.47-4.75-6.28-2.33-.44,6.59-.44,6.59Z" style="fill:#d3766a"></path><polygon points="267.06 123.77 273.78 119.51 253.14 88.03 246.42 92.28 267.06 123.77" style="fill:#455a64"></polygon><polygon points="246.56 93.72 254.41 88.75 253.59 87.5 245.74 92.47 246.56 93.72" style="fill:#263238"></polygon><polygon points="247.47 95.11 255.32 90.13 254.5 88.88 246.65 93.86 247.47 95.11" style="fill:#263238"></polygon><path d="M267.05,123.77l5.08,2.28,1.67.76V125l0-5.49-1.19-.36s-.15,1.19-.16,1.21l-1.19-.35s-.14,1.18-.15,1.2l-1.18-.36s-.16,1.19-.17,1.22l-1.18-.37s-.16,1.2-.16,1.22l-1.18-.36S267.06,123.75,267.05,123.77Z" style="fill:#ebebeb"></path><polygon points="272.13 126.06 273.8 126.81 273.8 125 272.13 126.06" style="fill:#37474f"></polygon><path d="M267.64,120.66c-1.57-2.07-3.06-4.19-4.54-6.32s-2.9-4.3-4.35-6.45-2.81-4.36-4.18-6.56-2.71-4.42-4-6.69c1.57,2.08,3.06,4.2,4.54,6.33s2.9,4.3,4.35,6.45,2.81,4.35,4.18,6.56S266.36,118.4,267.64,120.66Z" style="fill:#263238"></path><path d="M270.63,118.71c-1.57-2.07-3.06-4.2-4.54-6.33s-2.89-4.3-4.34-6.45-2.82-4.35-4.18-6.56-2.72-4.42-4-6.68c1.57,2.07,3.06,4.19,4.54,6.32s2.89,4.3,4.34,6.45,2.82,4.36,4.18,6.56S269.36,116.44,270.63,118.71Z" style="fill:#263238"></path></g></svg>