<svg xmlns="http://www.w3.org/2000/svg" viewBox="0 0 500 500"><g id="freepik--background-complete--inject-93"><polygon points="284.1 354.4 459.83 354.4 463.49 282.29 280.44 282.29 284.1 354.4" style="fill:#ebebeb"></polygon><path d="M451.51,315.3H378l-1.38-25h76.45Zm-72.63-.89h71.79l1.5-23.26H377.6Z" style="fill:#dbdbdb"></path><path d="M450.15,344.1H380.91l-1.12-22.6h71.77Zm-68.39-.89h67.56l1.3-20.82h-69.9Z" style="fill:#dbdbdb"></path><path d="M421.85,305.5H409.5l-.78-6h13.9Zm-11.57-.89h10.79l.55-4.26H409.73Z" style="fill:#dbdbdb"></path><path d="M421.85,335.82H409.5l-.78-6h13.9Zm-11.57-.89h10.79l.55-4.26H409.73Z" style="fill:#dbdbdb"></path><path d="M365.09,315.3H291.62l-1.38-25h76.45Zm-72.63-.89h71.8l1.49-23.26H291.18Z" style="fill:#dbdbdb"></path><path d="M363.73,344.1H294.49l-1.12-22.6h71.77Zm-68.39-.89H362.9l1.3-20.82H294.3Z" style="fill:#dbdbdb"></path><path d="M335.43,305.5H323.08l-.78-6h13.91Zm-11.57-.89h10.79l.55-4.26H323.31Z" style="fill:#dbdbdb"></path><path d="M335.43,335.82H323.08l-.78-6h13.91Zm-11.57-.89h10.79l.55-4.26H323.31Z" style="fill:#dbdbdb"></path><polygon points="299.86 354.4 298.76 362.25 296.54 378.04 292.2 378.04 292.2 354.4 299.86 354.4" style="fill:#ebebeb"></polygon><polygon points="299.86 354.4 298.76 362.25 292.2 362.25 292.2 354.4 299.86 354.4" style="fill:#dbdbdb"></polygon><polygon points="444.07 354.4 445.18 362.25 447.4 378.04 451.74 378.04 451.74 354.4 444.07 354.4" style="fill:#ebebeb"></polygon><polygon points="444.07 354.4 445.18 362.25 451.74 362.25 451.74 354.4 444.07 354.4" style="fill:#dbdbdb"></polygon><rect x="288.65" y="113.98" width="166.63" height="7.31" transform="translate(743.94 235.26) rotate(180)" style="fill:#ebebeb"></rect><rect x="438.63" y="121.29" width="7.31" height="24.17" style="fill:#ebebeb"></rect><rect x="438.63" y="121.29" width="7.31" height="7.47" style="fill:#dbdbdb"></rect><rect x="297.99" y="121.29" width="7.31" height="24.17" style="fill:#ebebeb"></rect><rect x="297.99" y="121.29" width="7.31" height="7.47" style="fill:#dbdbdb"></rect><rect x="395.03" y="84.83" width="46.57" height="11.73" transform="translate(509.01 -327.62) rotate(90)" style="fill:#c7c7c7"></rect><rect x="415.76" y="61.61" width="5.12" height="11.73" transform="translate(485.79 -350.84) rotate(90)" style="fill:#dbdbdb"></rect><rect x="417.37" y="71.68" width="1.9" height="11.73" transform="translate(495.86 -340.77) rotate(90)" style="fill:#dbdbdb"></rect><rect x="415.03" y="98.72" width="5.12" height="13.19" transform="translate(522.9 -312.27) rotate(90)" style="fill:#dbdbdb"></rect><rect x="381.19" y="82.72" width="54.33" height="8.2" transform="translate(495.17 -321.54) rotate(90)" style="fill:#dbdbdb"></rect><rect x="397.94" y="72.75" width="20.89" height="4.92" transform="translate(483.6 -333.18) rotate(90)" style="fill:#ebebeb"></rect><rect x="340.98" y="87.88" width="54.33" height="8.2" transform="translate(694.63 -101.4) rotate(135.33)" style="fill:#c7c7c7"></rect><rect x="354.86" y="92.29" width="20.89" height="4.92" transform="translate(691.72 -94.66) rotate(135.33)" style="fill:#dbdbdb"></rect><rect x="376.67" y="86.4" width="41.26" height="13.92" transform="translate(490.66 -303.94) rotate(90)" style="fill:#a6a6a6"></rect><rect x="395.38" y="100.73" width="3.85" height="13.92" transform="translate(504.99 -289.61) rotate(90)" style="fill:#c7c7c7"></rect><rect x="396.56" y="95.54" width="1.49" height="13.92" transform="translate(499.8 -294.8) rotate(90)" style="fill:#c7c7c7"></rect><rect x="409.6" y="89.79" width="38.78" height="9.61" transform="translate(523.59 -334.39) rotate(90)" style="fill:#a6a6a6"></rect><rect x="427.18" y="103.26" width="3.61" height="9.61" transform="translate(537.06 -320.92) rotate(90)" style="fill:#c7c7c7"></rect><rect x="427.18" y="80.2" width="3.61" height="9.61" transform="translate(514 -343.98) rotate(90)" style="fill:#c7c7c7"></rect><rect x="428.29" y="85.19" width="1.4" height="9.61" transform="translate(518.98 -338.99) rotate(90)" style="fill:#c7c7c7"></rect><path d="M322.35,64.3c8.2,8,9.58,20.46,7.85,31.34-.05.25-.43.18-.43,0,0-2.48.07-4.94.07-7.38l-.13-.33a16.53,16.53,0,0,1-5.33-5.73c-1.37-2.69-1.91-5.73-3-8.54-.09-.27.19-.2.38-.06,5,3.68,6.58,7.64,8,12.94a43.42,43.42,0,0,0-.86-8.24,28.08,28.08,0,0,0-6.82-13.73A.16.16,0,0,1,322.35,64.3Z" style="fill:#a6a6a6"></path><path d="M320.8,65.24c-1.41.05-2.29,2.3-3.39,3a1.06,1.06,0,0,1-1.56-.24c-1.09-1.53.41-3.4,1.81-4.45a15.39,15.39,0,0,1-2.92,1.34,1,1,0,0,1-1.32-.79c-.48-2.07,2.12-3,3.91-3-.87-.6-3.35-2.23-2-3s4.24,1.53,5.19,2.3c1.4,1.14,3.06,2.83,3.12,4.6C323.7,66.94,321.89,65.67,320.8,65.24Z" style="fill:#dbdbdb"></path><path d="M321.21,65.59c-1.8-.82-5.27.36-5.56-.33-.6-1.39,2.17-2.34,3.66-2.52-1.37-.38-4-1-3.93-2.3.1-1.62,4.05-.23,6,1.31,2.52,1.93,2.51,3.79,2.09,4.16S321.51,65.72,321.21,65.59Z" style="fill:#ebebeb"></path><path d="M341,63.51c-8.51,7.71-10.35,20.07-9,31,0,.25.42.2.43,0,.09-2.48.11-4.94.21-7.38l.14-.32a16.52,16.52,0,0,0,5.54-5.52c1.47-2.64,2.13-5.66,3.28-8.43.11-.27-.18-.2-.37-.07-5.13,3.49-6.87,7.39-8.5,12.62a43.47,43.47,0,0,1,1.18-8.2,28.09,28.09,0,0,1,7.34-13.46C341.37,63.6,341.17,63.37,341,63.51Z" style="fill:#a6a6a6"></path><path d="M342.53,64.5c1.41.1,2.21,2.39,3.28,3.09a1.06,1.06,0,0,0,1.57-.19c1.14-1.47-.28-3.41-1.64-4.51a15.82,15.82,0,0,0,2.87,1.46,1,1,0,0,0,1.35-.74c.55-2.06-2-3.08-3.79-3.19.88-.57,3.42-2.11,2.14-3s-4.3,1.37-5.28,2.1c-1.44,1.08-3.16,2.71-3.29,4.47C339.58,66.1,341.43,64.89,342.53,64.5Z" style="fill:#dbdbdb"></path><path d="M342.11,64.83c1.83-.75,5.25.56,5.57-.11.65-1.36-2.08-2.42-3.57-2.66,1.39-.32,4.05-.82,4-2.15,0-1.62-4-.38-6.09,1.08-2.59,1.83-2.64,3.69-2.24,4.08S341.81,65,342.11,64.83Z" style="fill:#ebebeb"></path><path d="M332.33,83.88a83.26,83.26,0,0,1-2.64,12.19.3.3,0,0,1-.59-.12c.56-3.76,1.57-7.44,2.13-11.2a56.83,56.83,0,0,0,.66-11.51c-.36-6.33-2.08-13.06-6.21-18-.09-.12.1-.28.19-.17,8.27,9.64,7,21.47,6.95,22.53,1.17-4,2.38-8.57,6.81-12.64.19-.17.34-.09.31.21-.79,7.4-2.85,11.27-7.15,15.23C332.67,81.56,332.52,82.72,332.33,83.88Z" style="fill:#a6a6a6"></path><path d="M325.6,56.33c-1.49-.66-3.54,1.23-5,1.36a1.21,1.21,0,0,1-1.49-1c-.37-2.12,2.13-3.32,4.11-3.7-1.25-.07-2.48.26-3.71-.07a1.18,1.18,0,0,1-1-1.49c.55-2.39,3.71-2,5.59-1.18-.6-1.06-2.35-4-.58-4.18s3.64,3.73,4.23,5c.88,1.88,1.75,4.47.93,6.34C327.74,59.55,326.51,57.33,325.6,56.33Z" style="fill:#dbdbdb"></path><path d="M325.85,56.9c-1.46-1.76-5.65-2.28-5.61-3.14.08-1.74,3.43-1.34,5.08-.78-1.25-1.08-3.68-3-2.93-4.36.92-1.63,4.31,1.8,5.61,4.4,1.64,3.27.69,5.19.07,5.37C327.22,58.63,326.09,57.19,325.85,56.9Z" style="fill:#ebebeb"></path><path d="M337.78,86.11,341.42,114h-22.2c.46-2.47,4.59-27.91,4.59-27.91Z" style="fill:#dbdbdb"></path><rect x="409.19" y="277.88" width="16.81" height="4.41" style="fill:#c7c7c7"></rect><rect x="415.29" y="222.22" width="4.6" height="55.66" style="fill:#c7c7c7"></rect><rect x="415.29" y="222.22" width="4.6" height="23.3" style="fill:#a6a6a6"></rect><polygon points="441.93 235.71 393.24 235.71 396.78 224.08 396.91 223.67 407.2 189.84 427.97 189.84 438.27 223.68 438.27 223.68 438.38 224.07 441.93 235.71" style="fill:#ebebeb"></polygon><circle cx="408.6" cy="197.66" r="0.33" style="fill:#fff"></circle><circle cx="414.59" cy="197.66" r="0.33" style="fill:#fff"></circle><circle cx="420.59" cy="197.66" r="0.33" style="fill:#fff"></circle><circle cx="426.58" cy="197.66" r="0.33" style="fill:#fff"></circle><circle cx="411.6" cy="193.46" r="0.33" style="fill:#fff"></circle><circle cx="417.59" cy="193.46" r="0.33" style="fill:#fff"></circle><circle cx="423.59" cy="193.46" r="0.33" style="fill:#fff"></circle><path d="M402.93,206.37a.33.33,0,0,1-.33.33.32.32,0,0,1-.32-.33.32.32,0,0,1,.32-.32A.32.32,0,0,1,402.93,206.37Z" style="fill:#fff"></path><path d="M408.93,206.37a.33.33,0,0,1-.66,0,.33.33,0,0,1,.66,0Z" style="fill:#fff"></path><path d="M414.92,206.37a.33.33,0,0,1-.33.33.32.32,0,0,1-.32-.33.32.32,0,0,1,.32-.32A.32.32,0,0,1,414.92,206.37Z" style="fill:#fff"></path><path d="M420.92,206.37a.33.33,0,0,1-.66,0,.33.33,0,0,1,.66,0Z" style="fill:#fff"></path><path d="M426.91,206.37a.33.33,0,0,1-.33.33.32.32,0,0,1-.32-.33.32.32,0,0,1,.32-.32A.32.32,0,0,1,426.91,206.37Z" style="fill:#fff"></path><path d="M432.91,206.37a.33.33,0,0,1-.66,0,.33.33,0,0,1,.66,0Z" style="fill:#fff"></path><path d="M405.93,202.18a.33.33,0,1,1-.33-.33A.32.32,0,0,1,405.93,202.18Z" style="fill:#fff"></path><circle cx="411.6" cy="202.18" r="0.33" style="fill:#fff"></circle><circle cx="417.59" cy="202.18" r="0.33" style="fill:#fff"></circle><circle cx="423.59" cy="202.18" r="0.33" style="fill:#fff"></circle><circle cx="429.58" cy="202.18" r="0.33" style="fill:#fff"></circle><circle cx="402.6" cy="215.09" r="0.33" style="fill:#fff"></circle><circle cx="408.6" cy="215.09" r="0.33" style="fill:#fff"></circle><circle cx="414.59" cy="215.09" r="0.33" style="fill:#fff"></circle><circle cx="420.59" cy="215.09" r="0.33" style="fill:#fff"></circle><circle cx="426.58" cy="215.09" r="0.33" style="fill:#fff"></circle><circle cx="432.58" cy="215.09" r="0.33" style="fill:#fff"></circle><path d="M405.93,210.89a.33.33,0,0,1-.66,0,.33.33,0,0,1,.66,0Z" style="fill:#fff"></path><path d="M411.92,210.89a.33.33,0,1,1-.65,0,.33.33,0,0,1,.65,0Z" style="fill:#fff"></path><path d="M417.92,210.89a.33.33,0,1,1-.66,0,.33.33,0,0,1,.66,0Z" style="fill:#fff"></path><path d="M423.91,210.89a.33.33,0,1,1-.65,0,.33.33,0,0,1,.65,0Z" style="fill:#fff"></path><path d="M429.91,210.89a.33.33,0,1,1-.66,0,.33.33,0,0,1,.66,0Z" style="fill:#fff"></path><path d="M396.94,223.8a.3.3,0,0,1-.16.28l.13-.41A.31.31,0,0,1,396.94,223.8Z" style="fill:#fff"></path><circle cx="402.6" cy="223.81" r="0.33" style="fill:#fff"></circle><circle cx="408.6" cy="223.81" r="0.33" style="fill:#fff"></circle><circle cx="414.59" cy="223.81" r="0.33" style="fill:#fff"></circle><circle cx="420.59" cy="223.81" r="0.33" style="fill:#fff"></circle><circle cx="426.58" cy="223.81" r="0.33" style="fill:#fff"></circle><circle cx="432.58" cy="223.81" r="0.33" style="fill:#fff"></circle><path d="M438.38,224.07a.31.31,0,0,1-.13-.27.5.5,0,0,1,0-.12Z" style="fill:#fff"></path><circle cx="399.61" cy="219.61" r="0.33" style="fill:#fff"></circle><path d="M405.93,219.61a.33.33,0,1,1-.33-.33A.33.33,0,0,1,405.93,219.61Z" style="fill:#fff"></path><circle cx="411.6" cy="219.61" r="0.33" style="fill:#fff"></circle><circle cx="417.59" cy="219.61" r="0.33" style="fill:#fff"></circle><circle cx="423.59" cy="219.61" r="0.33" style="fill:#fff"></circle><circle cx="429.58" cy="219.61" r="0.33" style="fill:#fff"></circle><circle cx="435.58" cy="219.61" r="0.33" style="fill:#fff"></circle><path d="M396.94,232.53a.33.33,0,1,1-.33-.33A.32.32,0,0,1,396.94,232.53Z" style="fill:#fff"></path><path d="M402.93,232.53a.32.32,0,0,1-.33.32.33.33,0,0,1,0-.65A.33.33,0,0,1,402.93,232.53Z" style="fill:#fff"></path><path d="M408.93,232.53a.33.33,0,1,1-.33-.33A.32.32,0,0,1,408.93,232.53Z" style="fill:#fff"></path><path d="M414.92,232.53a.32.32,0,0,1-.33.32.33.33,0,0,1,0-.65A.33.33,0,0,1,414.92,232.53Z" style="fill:#fff"></path><path d="M420.92,232.53a.33.33,0,1,1-.33-.33A.32.32,0,0,1,420.92,232.53Z" style="fill:#fff"></path><path d="M426.91,232.53a.32.32,0,0,1-.33.32.33.33,0,0,1,0-.65A.33.33,0,0,1,426.91,232.53Z" style="fill:#fff"></path><path d="M432.91,232.53a.33.33,0,1,1-.33-.33A.32.32,0,0,1,432.91,232.53Z" style="fill:#fff"></path><path d="M438.9,232.53a.32.32,0,0,1-.33.32.33.33,0,0,1,0-.65A.33.33,0,0,1,438.9,232.53Z" style="fill:#fff"></path><circle cx="399.61" cy="228.33" r="0.33" style="fill:#fff"></circle><path d="M405.93,228.33a.33.33,0,0,1-.66,0,.33.33,0,0,1,.66,0Z" style="fill:#fff"></path><circle cx="411.6" cy="228.33" r="0.33" style="fill:#fff"></circle><circle cx="417.59" cy="228.33" r="0.33" style="fill:#fff"></circle><circle cx="423.59" cy="228.33" r="0.33" style="fill:#fff"></circle><circle cx="429.58" cy="228.33" r="0.33" style="fill:#fff"></circle><circle cx="435.58" cy="228.33" r="0.33" style="fill:#fff"></circle><polygon points="105.56 300.67 74.07 300.67 56.04 210.82 84.88 197.57 105.56 300.67" style="fill:#dbdbdb"></polygon><polygon points="195.68 300.67 105.56 300.67 84.88 197.57 175 197.57 195.68 300.67" style="fill:#ebebeb"></polygon><rect x="41.13" y="252.46" width="48.26" height="99.02" style="fill:#dbdbdb"></rect><polygon points="218.84 351.48 205.66 351.48 186.01 252.46 218.84 252.46 218.84 351.48" style="fill:#dbdbdb"></polygon><rect x="89.39" y="252.46" width="26.52" height="99.02" style="fill:#ebebeb"></rect><rect x="218.85" y="252.46" width="26.52" height="99.02" style="fill:#ebebeb"></rect><rect x="115.9" y="300.67" width="102.94" height="50.81" style="fill:#ebebeb"></rect><rect x="115.9" y="278.7" width="102.94" height="22.17" style="fill:#ebebeb"></rect><path d="M95.89,252.46l10-.18,10-.12h.31v.31l.11,11.59,0,11.59c0,7.72.06,15.45,0,23.17s0,15.45-.13,23.18-.17,15.45-.34,23.17q-.24-11.58-.33-23.17c-.1-7.73-.11-15.45-.13-23.18s0-15.45,0-23.17l0-11.59.11-11.59.3.3-10-.12Z" style="fill:#dbdbdb"></path><path d="M218.85,252.46c.2,7.75.3,15.51.38,23.26l.11,23.26-.11,23.27-.14,11.63-.24,11.63-.25-11.63-.14-11.63L218.35,299l.11-23.26C218.54,268,218.64,260.21,218.85,252.46Z" style="fill:#dbdbdb"></path><path d="M218.85,300.67c-8.58.2-17.16.3-25.74.38l-25.74.12-25.73-.12-12.87-.14-12.87-.24,12.87-.25,12.87-.14,25.73-.11,25.74.11C201.69,300.36,210.27,300.46,218.85,300.67Z" style="fill:#dbdbdb"></path><path d="M218.85,278.7c-8.58.21-17.16.3-25.74.38l-25.74.12-25.73-.12-12.87-.14-12.87-.24,12.87-.25,12.87-.14,25.73-.11,25.74.12C201.69,278.4,210.27,278.49,218.85,278.7Z" style="fill:#dbdbdb"></path><polygon points="59.47 351.48 58.82 359.5 57.29 378.04 50.3 378.04 48.78 359.5 48.13 351.48 59.47 351.48" style="fill:#c7c7c7"></polygon><polygon points="48.13 351.48 59.47 351.48 58.82 359.5 48.78 359.5 48.13 351.48" style="fill:#a6a6a6"></polygon><polygon points="108.32 351.48 107.66 359.5 106.14 378.04 99.15 378.04 97.63 359.5 96.98 351.48 108.32 351.48" style="fill:#c7c7c7"></polygon><polygon points="96.98 351.48 108.32 351.48 107.66 359.5 97.63 359.5 96.98 351.48" style="fill:#a6a6a6"></polygon><polygon points="189.34 351.48 188.69 359.5 187.16 378.04 180.18 378.04 178.65 359.5 178 351.48 189.34 351.48" style="fill:#c7c7c7"></polygon><polygon points="178 351.48 189.34 351.48 188.69 359.5 178.65 359.5 178 351.48" style="fill:#a6a6a6"></polygon><polygon points="238.2 351.48 237.55 359.5 236.02 378.04 229.03 378.04 227.51 359.5 226.86 351.48 238.2 351.48" style="fill:#c7c7c7"></polygon><polygon points="238.2 351.48 237.55 359.5 227.51 359.5 226.86 351.48 238.2 351.48" style="fill:#a6a6a6"></polygon></g><g id="freepik--Shadow--inject-93"><ellipse cx="70.43" cy="434.6" rx="41.04" ry="8.65" style="fill:#ebebeb"></ellipse><ellipse cx="250" cy="435.98" rx="178.99" ry="26.05" style="fill:#ebebeb"></ellipse></g><g id="freepik--Floor--inject-93"><polygon points="40.02 378.04 92.51 377.79 145.01 377.71 250 377.54 354.99 377.7 407.49 377.79 459.98 378.04 407.49 378.28 354.99 378.37 250 378.54 145.01 378.37 92.51 378.28 40.02 378.04" style="fill:#263238"></polygon></g><g id="freepik--speech-bubble--inject-93"><path d="M192.16,123.79a37.86,37.86,0,0,1-6.47-20.9c0-26.47,29.08-47.94,64.92-47.94s64.89,21.47,64.89,47.94-29.05,48-64.89,48c-17.38,0-33.14-5-44.78-13.27l-22.36,5.69Z" style="fill:#fff"></path><path d="M192.16,123.79A38.17,38.17,0,0,1,185.61,104a37.51,37.51,0,0,1,5.19-20.22A50.65,50.65,0,0,1,205.08,68.4a69.22,69.22,0,0,1,18.8-9.52,86.48,86.48,0,0,1,41.76-3,77.07,77.07,0,0,1,20.15,6.28,61.87,61.87,0,0,1,17.38,12A44,44,0,0,1,314.33,92a36.42,36.42,0,0,1,.18,21,43.51,43.51,0,0,1-10.86,18.05,61.5,61.5,0,0,1-17.22,12.19A83.18,83.18,0,0,1,245.29,151a90.28,90.28,0,0,1-10.48-1.27,82.61,82.61,0,0,1-10.24-2.61,69.38,69.38,0,0,1-18.87-9.34l.19,0-22.39,5.57-.22.06.09-.21Zm0,0-8.59,19.51-.12-.15,22.33-5.8.1,0,.09.07a70.28,70.28,0,0,0,18.78,9.18,80.88,80.88,0,0,0,10.17,2.55,88.76,88.76,0,0,0,10.41,1.23,82.54,82.54,0,0,0,40.76-7.76,60.67,60.67,0,0,0,17-12.08,42.62,42.62,0,0,0,10.58-17.71,35.62,35.62,0,0,0-.24-20.48,43,43,0,0,0-10.86-17.54,61.07,61.07,0,0,0-17.09-11.87,76.86,76.86,0,0,0-19.92-6.28,85.9,85.9,0,0,0-41.44,2.84,68.73,68.73,0,0,0-18.67,9.37A51.31,51.31,0,0,0,191.17,84a37.26,37.26,0,0,0-5.35,20A38.11,38.11,0,0,0,192.16,123.79Z" style="fill:#263238"></path></g><g id="freepik--character-2--inject-93"><path d="M279,445.73c2,.67,60,.5,62.21-.9.83-.52,1.3-9,1.58-19.19.06-2.21.1-4.48.14-6.8,0-2.74.08-5.52.1-8.22.07-12.1-.1-22.76-.1-22.76H305.29l-.05,22.76v8.22l.2,6.8s-22.17,10-24.42,11.79S277,445.06,279,445.73Z" style="fill: rgb(235, 148, 129);"></path><path d="M279,445.73c2,.67,60,.5,62.21-.9.83-.52,1.3-9,1.58-19.19.06-2.21.1-4.48.14-6.8,0-2.74.08-5.52.1-8.22H305.24v8.22l.2,6.8s-22.17,10-24.42,11.79S277,445.06,279,445.73Z" style="fill:#fff"></path><path d="M278.86,445.81c1.32.44,26,.53,44,.15,4.16-.08,8-.2,11-.33,4.23-.2,7.07-.43,7.53-.72,1-.66,1.51-13.06,1.74-26.14H305.23l.19,6.84s-22.29,10.05-24.56,11.86S276.83,445.13,278.86,445.81Z" style="fill:#F1C111"></path><path d="M279.69,443.48c9.77-.27,49.2-.43,58.88,0,.08,0,.08.06,0,.06-9.68.48-49.11.32-58.88.05C279.48,443.63,279.48,443.49,279.69,443.48Z" style="fill:#263238"></path><path d="M304,423.45c3.85-.73,8.55-.16,11.5,2.57.11.11,0,.27-.16.23a54.57,54.57,0,0,0-11.32-2.32A.24.24,0,0,1,304,423.45Z" style="fill:#263238"></path><path d="M301.26,425.13c3.85-.73,8.55-.16,11.5,2.57.11.11,0,.27-.17.23a54.35,54.35,0,0,0-11.31-2.32A.24.24,0,0,1,301.26,425.13Z" style="fill:#263238"></path><path d="M298.49,426.81c3.85-.73,8.55-.16,11.5,2.58.11.1,0,.26-.17.22a54.35,54.35,0,0,0-11.31-2.32A.24.24,0,0,1,298.49,426.81Z" style="fill:#263238"></path><path d="M295.72,428.49c3.85-.73,8.55-.16,11.5,2.58.11.1,0,.26-.17.22A54.35,54.35,0,0,0,295.74,429,.24.24,0,0,1,295.72,428.49Z" style="fill:#263238"></path><path d="M298.65,420.05c2.72,2.1,6.26,3,9.44,4.12a.48.48,0,0,0,.6-.48.1.1,0,0,0,.09-.14,20.51,20.51,0,0,0-5.94-8.79c-1.61-1.34-4.43-2.27-5.93-.19S297.06,418.82,298.65,420.05Zm-1-3.1c-.69-4.21,3.84-2,5-1a21.25,21.25,0,0,1,2.05,2.19c1.33,1.6,2.42,3.35,3.58,5.06-1.53-.67-3.09-1.2-4.64-1.81C301.79,420.69,298,419.28,297.66,417Z" style="fill:#263238"></path><path d="M321.6,417.66c-.93-2.4-3.89-2.2-5.79-1.3a20.55,20.55,0,0,0-7.95,7,.11.11,0,0,0,.05.16.49.49,0,0,0,.47.62c3.37-.34,7-.28,10.17-1.64C320.4,421.73,322.49,419.92,321.6,417.66Zm-8.22,4.94c-1.65.21-3.31.33-4.95.6a60.21,60.21,0,0,1,4.73-4,21.7,21.7,0,0,1,2.53-1.62c1.37-.72,6.31-1.72,4.59,2.19C319.33,421.93,315.35,422.36,313.38,422.6Z" style="fill:#263238"></path><path d="M355.55,227.05s-10.2,100.87-10.44,102.15c0,.16-2.11,76.78-2.11,76.78H305.24s-.05-63.43,1.51-78.39c2-19.08,13.42-100.54,13.42-100.54Z" style="fill: rgb(235, 148, 129);"></path><path d="M320.17,227.05h37.66l-5.94,66.05-43-1.07C312.5,263,320.17,227.05,320.17,227.05Z" style="fill:#37474f"></path><path d="M357.83,227.05l-5.94,66.05-9.26-.22c-6.71-29.16-16-65.83-16-65.83Z" style="fill:#263238"></path><path d="M311.51,284.74c1.1-.1,2.28,0,3.38,0,1.25,0,2.51,0,3.75,0q3.63,0,7.24.09c4.85.1,9.72.32,14.56.66l4,.29c1.42.11,2.85.3,4.27.34.11,0,.1.13,0,.13-2.44-.1-4.93,0-7.37,0s-4.82-.06-7.23-.12c-4.86-.12-9.73-.35-14.57-.71-1.33-.1-2.67-.17-4-.26L313.4,285c-.64,0-1.27,0-1.9-.13A.09.09,0,0,1,311.51,284.74Z" style="fill:#263238"></path><path d="M359.73,447.67c2.13.14,58.17-14.66,59.95-16.58.49-.52-3-16.77-5.18-26.08a7.47,7.47,0,0,0-5.44-5.86c-7.35-1.46-23.23,1.37-29.06,7.46-1.48,1.55-1.7,8.42-1.7,8.42l1.9,6.53s-18.92,15.27-20.64,17.57S357.6,447.53,359.73,447.67Z" style="fill:#c7c7c7"></path><path d="M359.58,447.79c2.14.14,58.49-14.74,60.29-16.67.82-.89-1.84-13-4.92-25.73L378.26,415l1.91,6.57s-19,15.35-20.76,17.67S357.43,447.65,359.58,447.79Z" style="fill:#F1C111"></path><path d="M359.79,445.32c9.38-2.72,47.5-12.84,57-14.82.08,0,.09,0,0,.06-9.25,2.91-47.44,12.71-57,14.92C359.63,445.53,359.59,445.38,359.79,445.32Z" style="fill:#263238"></path><path d="M378.28,419.79c3.54-1.67,8.24-2.3,11.78-.41.13.08,0,.27-.1.27a53.73,53.73,0,0,0-11.54.61A.25.25,0,0,1,378.28,419.79Z" style="fill:#263238"></path><path d="M376,422.12c3.53-1.68,8.23-2.31,11.77-.41.14.07,0,.27-.1.26a54.32,54.32,0,0,0-11.53.61A.24.24,0,0,1,376,422.12Z" style="fill:#263238"></path><path d="M373.77,424.44c3.54-1.67,8.23-2.3,11.77-.4.14.07,0,.26-.1.26a53.67,53.67,0,0,0-11.53.61A.25.25,0,0,1,373.77,424.44Z" style="fill:#263238"></path><path d="M371.52,426.77c3.53-1.68,8.23-2.31,11.77-.41.14.07,0,.27-.1.26a55,55,0,0,0-11.53.61A.24.24,0,0,1,371.52,426.77Z" style="fill:#263238"></path><path d="M372.21,417.86c3.17,1.35,6.82,1.28,10.19,1.61a.48.48,0,0,0,.46-.62.11.11,0,0,0,.05-.16,20.59,20.59,0,0,0-8-7c-1.89-.89-4.85-1.08-5.78,1.32S370.36,417.07,372.21,417.86Zm-1.73-2.74c-1.74-3.91,3.21-2.92,4.58-2.21a23,23,0,0,1,2.53,1.61c1.7,1.21,3.19,2.63,4.75,4-1.65-.26-3.3-.38-4.95-.58C375.42,417.69,371.43,417.27,370.48,415.12Z" style="fill:#263238"></path><path d="M393.82,409.75c-1.51-2.08-4.32-1.14-5.93.21a20.5,20.5,0,0,0-5.92,8.8.11.11,0,0,0,.09.14.48.48,0,0,0,.61.48c3.17-1.17,6.71-2,9.43-4.15C393.69,414,395.25,411.72,393.82,409.75Zm-6.71,6.87c-1.54.61-3.11,1.15-4.64,1.82a61,61,0,0,1,3.58-5.07,22.23,22.23,0,0,1,2-2.2c1.15-1,5.68-3.25,5,1C392.71,414.46,389,415.88,387.11,416.62Z" style="fill:#263238"></path><path d="M322.58,227.11s2.1,10.45,7.27,18.67c0,0,7.31,4.38,9.32,5.85,0,0,8.51,67.65,10.36,75a229.9,229.9,0,0,0,6.66,22.12L396,337.88s-4.4-14.34-7.16-22.88c-1.12-3.49-10-59.12-9.82-60.68,2.5-18.64-5.33-27.27-5.33-27.27Z" style="fill: rgb(235, 148, 129);"></path><path d="M346.2,303.21c-.27-2.37-.57-4.73-.85-7.09-.57-4.65-1.08-9.33-1.75-14,0-.07-.14-.06-.13,0,.16,4.78.65,9.57,1.19,14.32q.39,3.47.9,6.92c.35,2.39.86,4.75,1.24,7.13,0,.1.17,0,.15,0C346.63,308.07,346.48,305.63,346.2,303.21Z" style="fill:#263238"></path><rect x="382.16" y="352.22" width="7.86" height="49.98" transform="translate(-90.25 123.33) rotate(-16.28)" style="fill:#dbdbdb"></rect><path d="M375.24,364.92c-.34.38,3.38,4.32,4.5,4.51s5.92-.71,7.58-2c.8-.61,1.62-5.82,1.51-6.16S378.21,361.56,375.24,364.92Z" style="fill:#c7c7c7"></path><path d="M400.16,400c.33-.39-3.44-4.27-4.56-4.44s-5.9.79-7.55,2.08c-.79.61-1.54,5.83-1.43,6.18S397.25,403.42,400.16,400Z" style="fill:#c7c7c7"></path><path d="M354.14,343.25c-2.12,0,5.32,16.69,8.36,18.91,3.54,2.59,12.1,3.72,20.13,1.82,6.94-1.64,13.05-7.29,15.13-10.29s-2.24-23.1-3.05-22.48C391.19,333.9,380.73,342.89,354.14,343.25Z" style="fill:#a6a6a6"></path><path d="M321.47,227.05h53.36A39.08,39.08,0,0,1,380,254.44s2.59,18.35,6.69,34.34L342.78,294l-4.95-43.37-9-5.24Z" style="fill:#37474f"></path><path d="M352.78,230.82a16.52,16.52,0,0,0,6.07,8.7,20.48,20.48,0,0,0,11,3.78c.67,0,.73,1.06,0,1.06-8.08,0-16.25-5.11-17.43-13.49C352.42,230.68,352.73,230.64,352.78,230.82Z" style="fill:#263238"></path><path d="M328,244.41a38.6,38.6,0,0,1,7,3.72c2.32,1.44,4.48,3.13,6.72,4.69a.09.09,0,0,1-.08.15c-2.35-1.36-4.81-2.54-7.14-3.94a44.68,44.68,0,0,1-6.62-4.43A.12.12,0,0,1,328,244.41Z" style="fill:#263238"></path><path d="M327,230.27c.36,1.55.82,3.09,1.22,4.63s.69,2.93,1.14,4.36a7.53,7.53,0,0,0,2.22,3.59c.6.5,1.25,1,1.88,1.41.35.25.71.48,1.07.73-.06-.2-.1-.41-.15-.62-.13-.59-.26-1.18-.38-1.77-.29-1.31-.56-2.62-.82-3.94-.52-2.58-1-5.19-1.66-7.74a.08.08,0,0,1,.16,0c.76,2.52,1.59,5,2.27,7.56.34,1.25,1.61,7.44,1.67,7.87s.13.91.17,1.37a5.48,5.48,0,0,1,.06,1.4c0,.11-.16.1-.21,0h0a5.64,5.64,0,0,1-.45-1.33c-.14-.44-.26-.89-.36-1.34,0-.16-.07-.33-.1-.49-.63-.35-1.22-.81-1.82-1.2s-1.28-.83-1.89-1.3a7,7,0,0,1-2.4-3.39,25.9,25.9,0,0,1-.94-4.45c-.28-1.76-.5-3.53-.83-5.28C326.81,230.21,327,230.16,327,230.27Z" style="fill:#263238"></path><path d="M345.45,287c1.06-.27,2.25-.36,3.34-.53s2.48-.35,3.71-.54q3.57-.56,7.16-1c4.81-.65,9.65-1.19,14.49-1.61l4-.33c1.42-.11,2.85-.15,4.27-.32.1,0,.11.11,0,.12-2.43.28-4.87.79-7.28,1.17s-4.77.69-7.17,1c-4.81.63-9.65,1.16-14.49,1.55-1.33.11-2.66.25-4,.37l-2.13.16c-.64,0-1.26.16-1.9.16C345.35,287.14,345.35,287,345.45,287Z" style="fill:#263238"></path><path d="M309,179.29c.53.08,3,.47,6.6,1.06a20.58,20.58,0,0,0,3.77-11.88c0-1,1.53,4.83-.41,12.42,7,1.11,16.45,2.62,24.74,3.87.6-3.22,1.31-6.19,1.31-6.19a36.48,36.48,0,0,0,.49,6.47l3.32.49a127.47,127.47,0,0,1,2.49-13.73,44.55,44.55,0,0,0,2.23,14.41c5.27.73,8.75,1.12,8.56.84-6.74-10.24-.18-14.72-1.35-23.08-1.42-10-9.54-12.69-8.31-19.91,1-5.88,3.18-16.49-4-19.79a14.5,14.5,0,0,0-15.18-5.1c-12.39,2.92-10.2,21.75-11.51,25.34-1.86,5.14-4.63,6.66-7.32,12.44s-.52,10.27-.76,14.45S307.7,179.1,309,179.29Z" style="fill:#263238"></path><path d="M362.54,185.77a20.48,20.48,0,0,1-1.86-5.51,10.88,10.88,0,0,1,.77-5.54,58.26,58.26,0,0,0,1.76-5.7,15.37,15.37,0,0,0,.24-6.16A13.58,13.58,0,0,0,361,157.2a37.51,37.51,0,0,0-4-4.47,21.85,21.85,0,0,1-3.67-4.45,10.63,10.63,0,0,1-1.4-5.56,10,10,0,0,0,.76,5.89,20.35,20.35,0,0,0,3.45,4.92A43.56,43.56,0,0,1,359.8,158a12.82,12.82,0,0,1,2.12,5.11,15.4,15.4,0,0,1-.2,5.57c-.36,1.88-1,3.73-1.49,5.65a20.69,20.69,0,0,0-.6,3,8.88,8.88,0,0,0,.26,3.09A16.85,16.85,0,0,0,362.54,185.77Z" style="fill:#263238"></path><path d="M325.73,125a30,30,0,0,0-2.56,6.82c-.62,2.36-1.13,4.73-1.61,7.11l-.74,3.53a17.86,17.86,0,0,1-1,3.35,19.25,19.25,0,0,1-4,5.66,26.88,26.88,0,0,0-2.35,2.89,16.34,16.34,0,0,0-1.79,3.35,24.25,24.25,0,0,0-1,3.61,15.21,15.21,0,0,0-.3,3.75c.05,1.26.23,2.47.37,3.65a18.24,18.24,0,0,1,.08,3.54A7.43,7.43,0,0,1,307,178a7.54,7.54,0,0,0,4.47-5.6,18.51,18.51,0,0,0,.19-3.71c-.05-1.24-.19-2.43-.17-3.59a19.31,19.31,0,0,1,1.48-6.8,16.79,16.79,0,0,1,1.67-3,25.76,25.76,0,0,1,2.26-2.71c.8-.9,1.64-1.82,2.39-2.84a15.41,15.41,0,0,0,1.87-3.31,19.42,19.42,0,0,0,1-3.64c.23-1.2.42-2.4.6-3.6.38-2.39.72-4.78,1.16-7.15A35,35,0,0,1,325.73,125Z" style="fill:#263238"></path><path d="M338.78,169c-10,4.31-47.78,1.56-56.08-4.09-12.35-8.41-24.35-25.81-28.18-32.52-1.67-2.92,22.57-13.7,24.8-10.87,4.76,6,13,21.4,15.21,23s22.6,9.51,34,12.47C343.82,161,343.82,166.85,338.78,169Z" style="fill: rgb(235, 148, 129);"></path><path d="M259.8,140.6c-1.17-1.21-11.3-10-14.18-16.82-1.52-3.6-4.59-14-2.51-15.18,1.89-1.1,3.43,1.54,3.43,1.54s-1.3-4.65,1.36-6.14,5,3.09,5,3.09-1-4.87,1.76-6.17,4.36,3.71,4.36,3.71-1.11-4.41,1.61-4.52c3.27-.14,4.4,8.22,6.76,11.85.54.82,12.06,15.93,12.06,15.93Z" style="fill: rgb(235, 148, 129);"></path><path d="M259.22,104.67c.84,6.14,2.27,8.69,6.2,13.36.08.09,0,.23-.13.14-4.26-4.23-6.52-7.16-6.37-13.48C258.92,104.38,259.18,104.37,259.22,104.67Z" style="fill:#263238"></path><path d="M253.1,107.1c1.43,6.31,3,9.08,6.72,14.28.05.07-.07.17-.13.1-4.11-4.79-6.3-7.76-6.9-14.25C252.76,106.93,253,106.81,253.1,107.1Z" style="fill:#263238"></path><path d="M246.73,110.38c1.83,6,3.38,9.12,7.68,13.7.1.11,0,.27-.16.17-4.84-4.24-6.8-8.11-7.69-13.79C246.5,110.07,246.62,110,246.73,110.38Z" style="fill:#263238"></path><path d="M275.74,102.56c-6.48,16.77-18.41,17.08-21.47,21.21a85.65,85.65,0,0,0-4.59,8.25l-18.07-4.66a80.6,80.6,0,0,0,0-9.44c-.66-5.09-11-11.14-8.5-29,1.6-11.7,14.78-27.44,33.9-22.5S280,91.54,275.74,102.56Z" style="fill:#F1C111"></path><rect x="221.84" y="114.16" width="30.19" height="1" transform="translate(106.35 343.21) rotate(-86.08)" style="fill:#fff"></rect><rect x="236.08" y="117.84" width="30.19" height="1" transform="translate(37.73 295.92) rotate(-64.99)" style="fill:#fff"></rect><path d="M246,111.79a3,3,0,0,1-.72-.09c-1.63-.42-2.74-2.31-3.31-4.51a2.24,2.24,0,0,1-1.76.43c-2.71-.71-2.36-6.57-2.34-6.82l.5,0c0,.06-.35,5.7,2,6.3a1.86,1.86,0,0,0,1.51-.48,12.63,12.63,0,0,1,0-5.44c.41-1.57,1.23-2.32,2.27-2.06,1.2.31,1.64,1.45,1.2,3.12a9.71,9.71,0,0,1-2.89,4.6c.5,2.12,1.51,4,3,4.34,1.12.29,2.47-.3,3.81-1.66l.33-.35a7.69,7.69,0,0,1-.41-5.26c.52-2,1.6-3.07,2.82-2.76a1.35,1.35,0,0,1,1,1c.45,1.6-.85,4.8-2.79,7.08a2.71,2.71,0,0,0,1.62,1.2c1.67.44,4.12-3.14,4.94-4.55l.43.25c-.13.22-3.16,5.39-5.5,4.79a3.18,3.18,0,0,1-1.82-1.31l-.24.25A5.43,5.43,0,0,1,246,111.79Zm5.54-10.16c-.95,0-1.62,1.26-1.93,2.43a7.64,7.64,0,0,0,.27,4.74c1.75-2.14,2.95-5.08,2.56-6.48a.83.83,0,0,0-.61-.65A1,1,0,0,0,251.56,101.63Zm-7.83-2c-.82,0-1.22,1.06-1.39,1.73a11.94,11.94,0,0,0,0,5,9.41,9.41,0,0,0,2.53-4.15c.25-1,.31-2.2-.85-2.5A.82.82,0,0,0,243.73,99.6Z" style="fill:#fff"></path><rect x="228.78" y="128.84" width="23.02" height="4.5" transform="translate(40.4 -55.91) rotate(14.48)" style="fill:#263238"></rect><rect x="227.47" y="133.91" width="23.02" height="4.5" transform="translate(41.63 -55.42) rotate(14.48)" style="fill:#263238"></rect><rect x="226.16" y="138.97" width="23.02" height="4.5" transform="translate(42.85 -54.93) rotate(14.48)" style="fill:#263238"></rect><path d="M284.36,129s-2.07-7.49-3.71-10.58-12-12.37-14.1-10.26c-2.75,2.74,2.16,9.27,5,12.16,0,0-6.37,6.32-3.86,11.77S284.36,129,284.36,129Z" style="fill: rgb(235, 148, 129);"></path><path d="M266,109.15c-.71,4.31,3.24,7.86,5.77,10.86a.36.36,0,0,1-.13.58c-2.49,2.82-5.18,7.54-4.24,11.4a.09.09,0,1,1-.17.06c-1.58-4,.69-8.85,3.62-11.78-2.64-3-6.45-6.77-4.89-11.12C266,109.12,266.05,109.13,266,109.15Z" style="fill:#263238"></path><path d="M250.28,58.53a14.09,14.09,0,0,1,0-7.44,14.09,14.09,0,0,1,0,7.44Z" style="fill:#263238"></path><path d="M233.21,63a12.3,12.3,0,0,1-2.29-3,12.51,12.51,0,0,1-1.43-3.47,12.3,12.3,0,0,1,2.29,3A12.51,12.51,0,0,1,233.21,63Z" style="fill:#263238"></path><path d="M220.64,75.32a12.51,12.51,0,0,1-3.47-1.43,12.3,12.3,0,0,1-3-2.29A12.21,12.21,0,0,1,217.67,73,12.7,12.7,0,0,1,220.64,75.32Z" style="fill:#263238"></path><path d="M215.94,92.31a12.54,12.54,0,0,1-3.72.5,12.22,12.22,0,0,1-3.72-.5,14.09,14.09,0,0,1,7.44,0Z" style="fill:#263238"></path><path d="M220.36,109.38a12.3,12.3,0,0,1-3,2.29,12.51,12.51,0,0,1-3.47,1.43,12.7,12.7,0,0,1,3-2.29A12.51,12.51,0,0,1,220.36,109.38Z" style="fill:#263238"></path><path d="M279.36,109.86a12.51,12.51,0,0,1,3.47,1.43,12.05,12.05,0,0,1,3,2.29,12.51,12.51,0,0,1-3.47-1.43A12.7,12.7,0,0,1,279.36,109.86Z" style="fill:#263238"></path><path d="M284.06,92.86a14.09,14.09,0,0,1,7.44,0,14.09,14.09,0,0,1-7.44,0Z" style="fill:#263238"></path><path d="M279.64,75.8a13.92,13.92,0,0,1,6.44-3.72,12.7,12.7,0,0,1-3,2.29A12.51,12.51,0,0,1,279.64,75.8Z" style="fill:#263238"></path><path d="M267.27,63.23a12.51,12.51,0,0,1,1.43-3.47,12.3,12.3,0,0,1,2.29-3,12.51,12.51,0,0,1-1.43,3.47A12.7,12.7,0,0,1,267.27,63.23Z" style="fill:#263238"></path><path d="M262.31,148.21c.36-.48,23.17-19.24,23.17-19.24s6.85,12.47,9.23,14.67S326.24,156,336.2,159c10.66,3.25,9.78,12-7.47,12.63s-37.57-1.21-45.12-5.16C276.31,162.64,262.31,148.21,262.31,148.21Z" style="fill:#c7c7c7"></path><path d="M267.43,149.87c9-6,17.48-13.72,19.06-15,.08-.06,0-.17-.1-.11-1.48,1.29-12.16,9-19.07,14.95C267.24,149.82,267.35,149.93,267.43,149.87Z" style="fill:#263238"></path><path d="M319.63,203.19l-2.95,29.27s47.42-1.39,59.15-2.74c0,0-12-53.94-25.25-67.12-6.63-6.59-14-5.75-18.56-.74-1.14,1.27-14.6,20.79-15.79,28.08C315.2,196.36,319.63,203.19,319.63,203.19Z" style="fill:#c7c7c7"></path><path d="M355.63,168c16.29,20.32,27.69,60.7,18.78,63.65-8.14,2.7-32.77-2.49-42.8-5.79-2.94-1,5.06-23.75,8.22-22.72,3.8,1.25,13.62,3.51,14,3.52.86,0-6.12-26.81-8.2-37.06C342.76,155.29,349.51,160.33,355.63,168Z" style="fill: rgb(235, 148, 129);"></path><path d="M309.3,195.15a3.69,3.69,0,0,0,0,4.22,5.46,5.46,0,0,0-2.84,2.42c-1,2,1.68,4.5,1.68,4.5a6.72,6.72,0,0,0-2.59,3c-.78,2,1.59,4.92,1.59,4.92a5.94,5.94,0,0,0-.6,4.09c.95,3.69,6.49,5.45,10,6.6s14.55,1.14,16.65,1.35l7.6-22.47s-14.27-9.65-18.59-10.42C318.52,192.74,311.06,192.87,309.3,195.15Z" style="fill: rgb(235, 148, 129);"></path><path d="M309.54,199.06c4-.24,7.92.73,11.85,1.48.09,0,.06.15,0,.13-3.9-.78-7.91-.79-11.84-1.42C309.41,199.24,309.43,199.07,309.54,199.06Z" style="fill:#263238"></path><path d="M308.27,206a10.47,10.47,0,0,1,2.72.46c.95.23,1.89.48,2.83.74,1.89.52,3.76,1.08,5.62,1.7.08,0,.06.16,0,.14-1.88-.52-3.77-1-5.67-1.44l-2.85-.64a12.21,12.21,0,0,1-2.67-.7A.14.14,0,0,1,308.27,206Z" style="fill:#263238"></path><path d="M307.18,214.26a7.34,7.34,0,0,1,2.42.55l2.57.75c1.71.49,3.42,1,5.15,1.41a.07.07,0,0,1,0,.14c-1.76-.43-3.52-.84-5.27-1.28l-2.59-.67a7.21,7.21,0,0,1-2.28-.81A.05.05,0,0,1,307.18,214.26Z" style="fill:#263238"></path><path d="M353,205.79c1.31-.94-6.39-26.29-8.11-37.68s3.38-10.34,10.8-.66c7.95,10.37,20.73,32.9,22.21,55.13.46,6.95,1.44,12-14.39,10.35a182.21,182.21,0,0,1-27.32-4.71l5.56-24.79S352.62,206.06,353,205.79Z" style="fill:#c7c7c7"></path><path d="M341.8,228.48c2.86-9.75,4.39-20.43,4.79-22.27,0-.09-.12-.11-.14,0-.29,1.83-3.36,13.85-4.8,22.27A.08.08,0,1,0,341.8,228.48Z" style="fill:#263238"></path><path d="M364.89,208.76a19.86,19.86,0,0,0-2.94-.87l-2.75-.74-1.19-.31h.11l1.64-.09c.55,0,1.1-.11,1.64-.11.09,0,.1-.14,0-.14-.54,0-1.09,0-1.63,0s-1.13,0-1.69,0-1,0-1.49,0c-.89-.23-1.78-.45-2.67-.65-.25-1.81-.72-3.63-1.12-5.41s-.86-3.73-1.33-5.58-1-3.63-1.49-5.43c-.27-.9-1.65-6.41-2.13-7.86,0-.09-.14-.06-.12.05.23,1.44,1.63,7.1,1.83,8,.14.67.29,1.33.44,2l-.07-.1c-.32-.52-.65-1-1-1.54-.65-1.05-1.29-2.1-1.83-3.2a.08.08,0,0,0-.15.07c.51,1.14,1,2.29,1.53,3.42.28.55.56,1.11.87,1.65a8.3,8.3,0,0,0,1,1.54h0l.36,1.64c.41,1.83.83,3.66,1.24,5.49.37,1.67.67,3.39,1.11,5-1.83-.4-3.66-.77-5.49-1.16l-2.81-.57c-1-.2-2.06-.28-3.05-.55-.09,0-.13.12,0,.14,1,.19,2,.58,2.94.84l2.76.73c1.95.5,3.89,1,5.84,1.49s3.88.85,5.82,1.24l2.92.57a19.75,19.75,0,0,0,2.85.49A0,0,0,0,0,364.89,208.76Z" style="fill:#263238"></path><path d="M367.24,233.25c-8.53-1-23.81-3.47-30.86-5-.09,0-.12.11,0,.14a123.16,123.16,0,0,0,30.86,5.22A.17.17,0,0,0,367.24,233.25Z" style="fill:#263238"></path><path d="M340.75,158c-5.37,1.11-12,8.67-11.25,10s5.16-1,5.16-1-.43,3.6,1.76,4.16,6.64-3.38,8.13-6.59C346.79,159.74,345.31,157,340.75,158Z" style="fill:#fff"></path><path d="M344.83,160.67c-.36.89-5.67,6.2-9.85,5.37-1.36-.28-.2-7.78-.2-7.78l0-.57-.56-8,10-4.47,1.44-.58s0,2.21,0,5V150c0,.15,0,.3,0,.45,0,.41,0,.83,0,1.24s0,.63,0,1l0,1A52.44,52.44,0,0,1,344.83,160.67Z" style="fill: rgb(235, 148, 129);"></path><path d="M345.62,149.57a16.17,16.17,0,0,1-10.88,8.12l-.56-8,10-4.47,1.44-.58S345.64,146.82,345.62,149.57Z" style="fill:#263238"></path><path d="M324.25,137.64c-1.42,14.05,6.83,16.49,9.86,16.79,2.75.28,12.16.86,15-13s-3.22-18.93-9.48-19.89S325.67,123.58,324.25,137.64Z" style="fill: rgb(235, 148, 129);"></path><path d="M326.72,134a8,8,0,0,0,1-.1,1.54,1.54,0,0,0,1-.29.52.52,0,0,0,.07-.61,1.28,1.28,0,0,0-1.2-.42,1.86,1.86,0,0,0-1.21.53A.54.54,0,0,0,326.72,134Z" style="fill:#263238"></path><path d="M335.94,135a7.21,7.21,0,0,1-.93-.3,1.56,1.56,0,0,1-.89-.48.5.5,0,0,1,.06-.61,1.25,1.25,0,0,1,1.25-.17,1.87,1.87,0,0,1,1.08.76A.54.54,0,0,1,335.94,135Z" style="fill:#263238"></path><path d="M333.71,138.31s.06.06.06.1c-.15,1-.16,2.06.66,2.49,0,0,0,.06,0,0C333.38,140.67,333.41,139.19,333.71,138.31Z" style="fill:#263238"></path><path d="M334.68,137.42c1.55.08,1.29,3.17-.15,3.1S333.38,137.36,334.68,137.42Z" style="fill:#263238"></path><path d="M335.28,137.64c.25.2.49.53.81.59s.69-.23,1-.52c0,0,.05,0,.05,0,0,.59-.32,1.18-1,1.21s-1-.53-1.06-1.13C335.06,137.71,335.17,137.56,335.28,137.64Z" style="fill:#263238"></path><path d="M328.21,137.65s-.08,0-.08.08c0,1-.26,2.06-1.15,2.31,0,0,0,.05,0,.05C328.06,140,328.32,138.57,328.21,137.65Z" style="fill:#263238"></path><path d="M327.43,136.59c-1.53-.24-1.89,2.84-.47,3.06S328.72,136.79,327.43,136.59Z" style="fill:#263238"></path><path d="M326.77,136.71c-.27.14-.54.41-.84.39s-.55-.38-.72-.72c0,0,0,0-.06,0-.08.59,0,1.23.59,1.41s.95-.3,1.16-.87C326.94,136.84,326.87,136.66,326.77,136.71Z" style="fill:#263238"></path><path d="M333.13,146c-.24.21-.48.51-.83.53a2.64,2.64,0,0,1-1-.28,0,0,0,0,0,0,0,1.3,1.3,0,0,0,1.2.57,1,1,0,0,0,.79-.81C333.24,145.94,333.17,145.92,333.13,146Z" style="fill:#263238"></path><path d="M329.47,142.1a20.89,20.89,0,0,0-.4,2.08c0,.06.15.11.38.15h0a3.22,3.22,0,0,0,3.23-.89c.06-.06,0-.14-.09-.11a4.86,4.86,0,0,1-3,.56c0-.2.66-2.4.56-2.42a5.63,5.63,0,0,0-1.57.2c.62-3,1.71-5.79,2.28-8.75a.1.1,0,0,0-.18-.06,49.84,49.84,0,0,0-2.85,9.32C327.75,142.56,329.19,142.19,329.47,142.1Z" style="fill:#263238"></path><path d="M329.5,143.87a4,4,0,0,0,1.29,1.51,1.78,1.78,0,0,0,1,.29c.8,0,1-.74.95-1.36a4.2,4.2,0,0,0-.15-1A5.09,5.09,0,0,1,329.5,143.87Z" style="fill:#263238"></path><path d="M330.79,145.38a1.78,1.78,0,0,0,1,.29c.8,0,1-.74.95-1.36A1.83,1.83,0,0,0,330.79,145.38Z" style="fill:#ff9bbc"></path><path d="M348.4,142.09c-3.63-.27-4.25-11.48-4.32-12.86,0,.87-.05,5.48-.41,5.65a3.49,3.49,0,0,1-1.13-.26h0a10.27,10.27,0,0,0-.07-1.65c0-.26-.12.55-.29,1.53l-.67-.21a13.23,13.23,0,0,0-.21-3.51c-.09-.44-.28,1.51-.76,3.2a44.59,44.59,0,0,0-9.45-2c-.91-.06-1.69-.08-2.38-.08.05-1.35.26-2.79.15-2.49a13.39,13.39,0,0,0-.67,2.5l-1,0c0-1.92,1-4.94.68-4.49a13.44,13.44,0,0,0-2,4.65c-1.32.21-1.69.45-1.72.11a16.09,16.09,0,0,1,5.25-9.73c4.7-4.1,13.81-4.83,18.66,2,0,0,4.1,2.91,4.6,7.36S350.5,142.24,348.4,142.09Z" style="fill:#263238"></path><path d="M346.79,142.32s3.14-4.37,5.13-3.24-.42,7.48-2.79,8.33a2.39,2.39,0,0,1-3.18-1.33Z" style="fill: rgb(235, 148, 129);"></path><path d="M351.18,140.88a0,0,0,0,1,0,.07,6,6,0,0,0-3.18,3.73,1.32,1.32,0,0,1,2-.33s0,.1-.05.09a1.45,1.45,0,0,0-1.62.48,6.64,6.64,0,0,0-.79,1.3c-.08.15-.35.07-.29-.1v0C347.25,144,348.93,141.06,351.18,140.88Z" style="fill:#263238"></path></g><g id="freepik--character-1--inject-93"><path d="M218.82,446.22c-2.06.67-60.91-.09-63.13-1.55-.85-.53-1.24-9.11-1.41-19.5v-.32c0-2.14-.07-4.34-.07-6.58,0-.3,0-.61,0-.92-.09-15,.15-30.52.15-30.52l39.36.39-1.18,30.24-.05,1.2-.23,6.26,0,.64s22.4,10.37,24.67,12.22S220.89,445.57,218.82,446.22Z" style="fill:#eb9481"></path><path d="M218.82,446.22c-2.06.67-60.91-.09-63.13-1.55-.85-.53-1.24-9.11-1.41-19.5v-.32c0-2.14-.07-4.34-.07-6.58,0-.3,0-.61,0-.92l38.33.11-.05,1.2-.23,6.26,0,.64s22.4,10.37,24.67,12.22S220.89,445.57,218.82,446.22Z" style="fill:#ebebeb"></path><path d="M218.82,446.22c-1.27.42-24.07.28-41.92-.22-11.14-.31-20.35-.77-21.2-1.32s-1.24-8.88-1.41-19.07c0-.14,0-.29,0-.43s0-.23,0-.33l38,.07,0,.65s22.4,10.36,24.67,12.21S220.89,445.57,218.82,446.22Z" style="fill:#F1C111"></path><path d="M218.19,443.93c-9.92-.37-49.95-.93-59.78-.55-.08,0-.08.06,0,.06,9.82.59,49.85.83,59.77.66C218.39,444.09,218.4,443.94,218.19,443.93Z" style="fill:#263238"></path><path d="M196.47,425.08c-3.89-.78-8.68-.24-11.69,2.5-.12.11,0,.27.16.23a55.54,55.54,0,0,1,11.51-2.24A.25.25,0,0,0,196.47,425.08Z" style="fill:#263238"></path><path d="M199.27,426.81c-3.9-.77-8.68-.24-11.7,2.51-.12.1,0,.27.16.23a54.38,54.38,0,0,1,11.51-2.24A.25.25,0,0,0,199.27,426.81Z" style="fill:#263238"></path><path d="M202.06,428.55c-3.89-.78-8.67-.24-11.69,2.5-.12.11,0,.27.16.23A55.54,55.54,0,0,1,202,429,.25.25,0,0,0,202.06,428.55Z" style="fill:#263238"></path><path d="M201.66,416.63c-1.51-2.13-4.38-1.22-6,.13a20.85,20.85,0,0,0-6.12,8.86c0,.08,0,.13.09.15a.48.48,0,0,0,.6.49c3.24-1.15,6.85-2,9.64-4.09C201.46,420.94,203.08,418.65,201.66,416.63Zm-6.9,6.88c-1.58.61-3.18,1.13-4.74,1.79,1.2-1.72,2.32-3.49,3.69-5.09a23.12,23.12,0,0,1,2.1-2.21c1.18-1,5.8-3.23,5.06,1C200.46,421.4,196.64,422.79,194.76,423.51Z" style="fill:#263238"></path><path d="M179.6,424.48c3.2,1.41,6.9,1.39,10.31,1.76a.48.48,0,0,0,.48-.62.11.11,0,0,0,.06-.16,20.92,20.92,0,0,0-8-7.21c-1.91-.94-4.91-1.16-5.89,1.26S177.73,423.65,179.6,424.48Zm-1.73-2.81c-1.7-4,3.3-2.92,4.69-2.18a23.27,23.27,0,0,1,2.55,1.67,62,62,0,0,1,4.76,4.11c-1.67-.29-3.34-.43-5-.66C182.85,424.35,178.81,423.87,177.87,421.67Z" style="fill:#263238"></path><path d="M176.9,446c-11.14-.31-20.35-.77-21.2-1.32s-1.24-8.88-1.41-19.07C158.86,429.69,170.21,439.81,176.9,446Z" style="fill:#263238"></path><path d="M142.27,217.32s8.84,99.43,10.28,107c.33,1.73.54,11.13.67,23.21.31,26.35.13,73.89.13,73.89h41.48s-1.23-82.36-3.07-97.52-13.58-106.6-13.58-106.6Z" style="fill:#455a64"></path><path d="M193,414.22c-6.47-.14-4.61-.19-11.08-.25-3.17,0-24-.21-27,.28-.06,0-.06.12,0,.13,3,.49,23.78.31,27,.28,6.47-.07,4.61-.12,11.08-.25A.1.1,0,0,0,193,414.22Z" style="fill:#263238"></path><path d="M161.23,367.13q-.07-9-.14-18.05c0-5.82,0-11.66-.31-17.48-.56-11.79-2.95-23.38-4.65-35s-3.12-23.36-4.41-35.08c-1.44-13.14-2.71-26.3-4.06-39.45,0-.09-.15-.09-.14,0,1.95,23.48,4.13,46.95,7.38,70.29q1.22,8.71,2.65,17.39c1,5.85,1.93,11.71,2.4,17.63s.52,11.61.58,17.41l.18,18c.13,13.36.26,33.91.39,47.27a.2.2,0,0,0,.4,0C161.41,398.16,161.32,379,161.23,367.13Z" style="fill:#263238"></path><path d="M133.53,217.32s17.58,99.43,19,107c.33,1.73.54,11.13.67,23.21v0L173,217.32Z" style="fill:#263238"></path><path d="M170.65,449.73c-2.1.52-60.74-4.41-62.86-6-.81-.59-.59-9.18,0-19.55,0-.11,0-.21,0-.32.11-2.14.24-4.34.39-6.57,0-.3,0-.61,0-.92,1-15,2.32-30.43,2.32-30.43l39.24,3.18-3.33,30.08-.13,1.19-.68,6.23-.06.64s21.6,11.92,23.74,13.93S172.76,449.22,170.65,449.73Z" style="fill:#eb9481"></path><path d="M170.65,449.73c-2.1.52-60.74-4.41-62.86-6-.81-.59-.59-9.18,0-19.55,0-.11,0-.21,0-.32.11-2.14.24-4.34.39-6.57,0-.3,0-.61,0-.92l38.23,2.83-.13,1.19-.68,6.23-.06.64s21.6,11.92,23.74,13.93S172.76,449.22,170.65,449.73Z" style="fill:#ebebeb"></path><path d="M170.65,449.73c-2.1.52-60.74-4.41-62.86-6-.81-.59-.59-9.18,0-19.55,0-.11,0-.21,0-.32l37.86,2.76-.06.64s21.6,11.92,23.74,13.93S172.76,449.22,170.65,449.73Z" style="fill:#F1C111"></path><path d="M170.18,447.4c-9.86-1.07-49.75-4.47-59.59-4.78-.08,0-.08.05,0,.06,9.75,1.28,49.67,4.35,59.58,4.88C170.38,447.58,170.39,447.42,170.18,447.4Z" style="fill:#263238"></path><path d="M149.86,427.06c-3.83-1.06-8.64-.86-11.85,1.66-.12.1,0,.28.15.25a54.26,54.26,0,0,1,11.64-1.42A.25.25,0,0,0,149.86,427.06Z" style="fill:#263238"></path><path d="M152.52,429c-3.83-1.06-8.63-.86-11.84,1.66-.12.1,0,.27.15.25a54.19,54.19,0,0,1,11.64-1.42A.25.25,0,0,0,152.52,429Z" style="fill:#263238"></path><path d="M155.19,430.91c-3.83-1.05-8.64-.85-11.84,1.67-.13.1,0,.27.14.24a55.56,55.56,0,0,1,11.64-1.42A.25.25,0,0,0,155.19,430.91Z" style="fill:#263238"></path><path d="M155.63,419c-1.35-2.24-4.28-1.53-6-.3a20.88,20.88,0,0,0-6.74,8.41.11.11,0,0,0,.08.15c0,.29.23.63.57.53,3.31-.92,7-1.49,9.9-3.4C155.13,423.28,156.91,421.11,155.63,419Zm-7.37,6.37c-1.62.49-3.25.9-4.85,1.45,1.32-1.63,2.56-3.32,4-4.82A21.79,21.79,0,0,1,149.7,420c1.25-1,6-2.82,5,1.39C154.1,423.67,150.19,424.79,148.26,425.37Z" style="fill:#263238"></path><path d="M133.07,425.26c3.09,1.64,6.78,1.88,10.17,2.49.35.07.55-.29.51-.58a.11.11,0,0,0,.07-.16,20.91,20.91,0,0,0-7.47-7.76c-1.84-1.07-4.82-1.51-6,.84S131.27,424.31,133.07,425.26Zm-1.52-2.92c-1.42-4.1,3.5-2.68,4.82-1.84a22.8,22.8,0,0,1,2.43,1.84,62.27,62.27,0,0,1,4.46,4.44c-1.64-.41-3.3-.67-5-1C136.33,425.36,132.33,424.6,131.55,422.34Z" style="fill:#263238"></path><path d="M147.35,423.68l-41.45-1.75S117.22,331,117.43,325.4c.54-14.5,10.17-108.11,10.17-108.11h50.62S175,238.9,169.56,252.6A63.45,63.45,0,0,0,159,257.43s-4.74,61.91-4.92,69.63C153.71,342.33,147.35,423.68,147.35,423.68Z" style="fill:#455a64"></path><path d="M146.24,416.09c-6.46-.41-4.6-.38-11.06-.72-3.17-.16-24-1.23-26.93-.86-.07,0-.08.12,0,.13,2.94.61,23.74,1.31,26.91,1.42,6.47.21,4.61.08,11.08.22A.1.1,0,0,0,146.24,416.09Z" style="fill:#263238"></path><path d="M131.32,222.84c-1.88,23.57-3.81,47.15-6,70.7s-4.7,47.25-7.78,70.78c-1.72,13.15-3.63,31.67-5.67,44.77,0,.09.12.13.13,0,4.18-23.28,7.25-52.17,9.86-75.67s4.75-47.06,6.65-70.62c1.08-13.33,2.05-26.67,3.07-40C131.63,222.64,131.33,222.65,131.32,222.84Z" style="fill:#263238"></path><path d="M171.37,251.66A78.77,78.77,0,0,0,159,257.43a.14.14,0,0,0,.11.26c4.18-1.8,8.44-3.51,12.51-5.53A.28.28,0,0,0,171.37,251.66Z" style="fill:#263238"></path><path d="M172.7,223c0-.15-.27-.18-.26,0,0,4.95-.29,9.32-.7,13.95-.2,2.15-1.93,14-5.66,13.17-.62-.15-.94-.76-1-1.7a14.79,14.79,0,0,1,.5-3.65c.41-2.49.74-5,1-7.5a68.83,68.83,0,0,0-.16-14.06.12.12,0,0,0-.24,0A128.6,128.6,0,0,1,165,242.63c-.47,3.09-2,7.74,1.21,8.22s5.42-7.31,5.82-9.44A70.89,70.89,0,0,0,172.7,223Z" style="fill:#263238"></path><path d="M166.18,250.43a19.82,19.82,0,0,0-.84,2.46,5.67,5.67,0,0,0-.35,2,.15.15,0,0,0,.26.05,7.12,7.12,0,0,0,.87-2c.28-.76.58-1.52.84-2.29A.41.41,0,0,0,166.18,250.43Z" style="fill:#263238"></path><path d="M149.3,226.9a6.19,6.19,0,0,0-.16-1.55c0-.07-.12-.06-.15,0a6.54,6.54,0,0,0-.17,1.33c0,.51-.12,1-.17,1.53a25,25,0,0,1-.55,3.11,11.08,11.08,0,0,1-2.85,5.12,14.85,14.85,0,0,1-4.82,3.17,55.15,55.15,0,0,1-6.18,1.77.08.08,0,0,0,0,.15,17.87,17.87,0,0,0,6.69-1.31,14.42,14.42,0,0,0,5-3.21,11.21,11.21,0,0,0,2.92-5.26,15.7,15.7,0,0,0,.41-3.12A14.44,14.44,0,0,0,149.3,226.9Z" style="fill:#263238"></path><path d="M157,170.72c1.88,7.77,19.7,46.07,31.63,49.35,12.48,3.44,46.92-11.32,50.17-12.47,8.91-3.16-9.09-29.32-13.7-26.2-7.7,5.21-25.47,14.39-29.07,12.83-7.56-3.28-21.33-20.33-31.6-29.82C158.25,158.69,154.94,162.12,157,170.72Z" style="fill:#eb9481"></path><path d="M236.69,208.34c1.56-.65,13.85-4.64,19.17-9.76,2.81-2.72,9.72-11.05,8.28-13-1.31-1.75-3.76.07-3.76.07s3-3.76,1.17-6.18-5.83.87-5.83.87,2.82-4.09.8-6.37-5.47,1.69-5.47,1.69,2.76-3.61.31-4.79c-3-1.41-7.28,5.83-10.88,8.24-.82.54-17.36,9.89-17.36,9.89Z" style="fill:#eb9481"></path><path d="M250.88,175.66c-3.19,5.32-5.51,7.09-11,9.84-.1.05,0,.22.07.18,5.59-2.21,8.81-4,11.17-9.88C251.26,175.51,251,175.4,250.88,175.66Z" style="fill:#263238"></path><path d="M255.55,180.31c-3.8,5.23-6.3,7.18-11.8,10.48-.08,0,0,.18.07.14,5.67-2.79,8.85-4.66,12-10.39C255.92,180.28,255.72,180.07,255.55,180.31Z" style="fill:#263238"></path><path d="M260.11,185.83c-4.05,4.8-6.7,7-12.45,9.57a.12.12,0,0,0,.08.22c6.12-2,9.44-4.79,12.5-9.65C260.45,185.63,260.36,185.53,260.11,185.83Z" style="fill:#263238"></path><path d="M218.2,188.13s4.85-6.08,7.57-8.28,15.87-6.66,17-3.87c1.46,3.59-5.63,7.67-9.36,9.21,0,0,3.37,8.32-1.08,12.34S218.2,188.13,218.2,188.13Z" style="fill:#eb9481"></path><path d="M242.84,177.1c-1,4.23-6.07,5.94-9.58,7.71a.36.36,0,0,0-.11.58c1.18,3.58,1.8,9-.59,12.15-.07.09.06.21.14.12,3-3.06,2.85-8.41,1.31-12.25,3.62-1.75,8.59-3.69,8.87-8.3C242.88,177.08,242.85,177.07,242.84,177.1Z" style="fill:#263238"></path><path d="M166.67,200.7l19.21-15.82s-10-11.8-18.67-19.55-16.05-7.16-10.14,10.7S166.67,200.7,166.67,200.7Z" style="fill:#F1C111"></path><path d="M157.1,167.63v.27h-.84a1.39,1.39,0,0,1-1.25-.78,12.45,12.45,0,0,1-.07-1.32,1.35,1.35,0,0,1,.19.69,1.14,1.14,0,0,0,1.13,1.14Z" style="fill:#fff"></path><path d="M176.65,178.56h-.83a1.41,1.41,0,0,1-1.41-1.41,1.14,1.14,0,0,0-1.14-1.14h-.88v-.27h.88a1.41,1.41,0,0,1,1.41,1.41,1.14,1.14,0,0,0,1.14,1.13h.83Z" style="fill:#fff"></path><path d="M168.36,198.61a1.13,1.13,0,0,0-.32,1l-.24.2a1.39,1.39,0,0,1,.36-1.35,1.13,1.13,0,0,0,0-1.61l-.62-.62.2-.2.62.63A1.41,1.41,0,0,1,168.36,198.61Z" style="fill:#fff"></path><path d="M162.65,172.42l-.2-.19.59-.59a1.4,1.4,0,0,1,2,0,1.13,1.13,0,0,0,1.6,0l.62-.62.2.19-.62.62a1.4,1.4,0,0,1-2,0,1.15,1.15,0,0,0-1.6,0Z" style="fill:#fff"></path><path d="M175,189.19l-.19-.19.59-.59a1.41,1.41,0,0,1,2,0,1.15,1.15,0,0,0,1.61,0l.62-.63.19.2-.62.62a1.41,1.41,0,0,1-2,0,1.15,1.15,0,0,0-1.61,0Z" style="fill:#fff"></path><path d="M165.23,187.76H165v-.87a1.42,1.42,0,0,1,1.41-1.42,1.13,1.13,0,0,0,1.13-1.13v-.83h.28v.83a1.41,1.41,0,0,1-1.41,1.41,1.14,1.14,0,0,0-1.14,1.14Z" style="fill:#fff"></path><path d="M179,190.55,166.67,200.7s-3.69-6.81-9.6-24.67c-4.55-13.74-1.24-17.26,4.49-14.61C167.19,170.84,175.26,184.32,179,190.55Z" style="fill:#263238"></path><path d="M165.13,196.1a197.61,197.61,0,0,0,16.41-13.73c.06-.05,0-.15-.1-.09-1.27,1.18-10.5,8.31-16.42,13.72C165,196.06,165.05,196.16,165.13,196.1Z" style="fill:#263238"></path><path d="M122.75,239.23c.15.16,61.73-1.79,62.27-2.44.75-.91-12.43-62.08-22.89-75-2.62-3.24-11.43-4.12-14.89-.52-10,10.42-11.85,17.86-14.25,24.79-1.77,5.13-3.8,13.84-5.56,22.75C124.49,223.46,122.22,238.67,122.75,239.23Z" style="fill:#F1C111"></path><path d="M171.28,212.87h-.83a1.41,1.41,0,0,1-1.41-1.41,1.14,1.14,0,0,0-1.14-1.14H167v-.27h.88a1.41,1.41,0,0,1,1.41,1.41,1.13,1.13,0,0,0,1.14,1.13h.83Z" style="fill:#fff"></path><path d="M157.1,167.9h-.84a1.41,1.41,0,0,1-1.41-1.41,1.14,1.14,0,0,0-1.13-1.13h-.88v-.28h.88a1.41,1.41,0,0,1,1.41,1.41,1.14,1.14,0,0,0,1.13,1.14h.84Z" style="fill:#fff"></path><path d="M138.2,198.64h-.83a1.41,1.41,0,0,1-1.41-1.41,1.14,1.14,0,0,0-1.14-1.14h-.88v-.28h.88a1.42,1.42,0,0,1,1.41,1.42,1.14,1.14,0,0,0,1.14,1.13h.83Z" style="fill:#fff"></path><path d="M159.23,194.82h-.84a1.41,1.41,0,0,1-1.41-1.41,1.14,1.14,0,0,0-1.13-1.14H155V192h.88a1.41,1.41,0,0,1,1.41,1.41,1.14,1.14,0,0,0,1.13,1.13h.84Z" style="fill:#fff"></path><path d="M148.63,217h-.84a1.41,1.41,0,0,1-1.41-1.41,1.14,1.14,0,0,0-1.13-1.13h-.88v-.28h.88a1.41,1.41,0,0,1,1.41,1.41,1.14,1.14,0,0,0,1.13,1.14h.84Z" style="fill:#fff"></path><path d="M161.83,235.71H161a1.41,1.41,0,0,1-1.41-1.41,1.14,1.14,0,0,0-1.13-1.13h-.88v-.28h.88a1.41,1.41,0,0,1,1.41,1.41,1.14,1.14,0,0,0,1.13,1.14h.84Z" style="fill:#fff"></path><path d="M133.15,234.36h-.83a1.41,1.41,0,0,1-1.41-1.41,1.14,1.14,0,0,0-1.14-1.14h-.88v-.27h.88a1.41,1.41,0,0,1,1.41,1.41,1.14,1.14,0,0,0,1.14,1.13h.83Z" style="fill:#fff"></path><path d="M160.56,221.11l-.59-.59a1.42,1.42,0,0,1,0-2,1.13,1.13,0,0,0,0-1.6l-.62-.62.19-.2.63.63a1.41,1.41,0,0,1,.41,1,1.43,1.43,0,0,1-.41,1,1.12,1.12,0,0,0,0,1.6l.58.59Z" style="fill:#fff"></path><path d="M177.16,234.92l-.59-.59a1.42,1.42,0,0,1,0-2,1.13,1.13,0,0,0,0-1.6l-.62-.62.19-.2.62.62a1.42,1.42,0,0,1,0,2,1.13,1.13,0,0,0,0,1.6l.59.59Z" style="fill:#fff"></path><path d="M168.75,201l-.59-.59a1.41,1.41,0,0,1,0-2,1.13,1.13,0,0,0,0-1.61l-.62-.62.2-.2.62.63a1.41,1.41,0,0,1,0,2,1.15,1.15,0,0,0,0,1.61l.59.59Z" style="fill:#fff"></path><path d="M139.23,184.87l-.59-.59a1.41,1.41,0,0,1,0-2,1.13,1.13,0,0,0,0-1.61l-.62-.62.2-.19.62.62a1.43,1.43,0,0,1,.41,1,1.41,1.41,0,0,1-.41,1,1.15,1.15,0,0,0,0,1.61l.59.59Z" style="fill:#fff"></path><path d="M157.16,182.15l-.59-.59a1.41,1.41,0,0,1,0-2,1.15,1.15,0,0,0,0-1.61l-.62-.62.19-.19.62.62a1.4,1.4,0,0,1,.42,1,1.38,1.38,0,0,1-.42,1,1.15,1.15,0,0,0,0,1.61l.59.59Z" style="fill:#fff"></path><path d="M137.59,212.24l-.59-.59a1.42,1.42,0,0,1,0-2,1.12,1.12,0,0,0,0-1.6l-.62-.62.2-.2.62.62a1.42,1.42,0,0,1,0,2,1.13,1.13,0,0,0,0,1.6l.59.59Z" style="fill:#fff"></path><path d="M165.19,226.27l-.19-.19.59-.59a1.41,1.41,0,0,1,2,0,1.15,1.15,0,0,0,1.61,0l.62-.62.19.19-.62.62a1.4,1.4,0,0,1-1,.42,1.38,1.38,0,0,1-1-.42,1.15,1.15,0,0,0-1.61,0Z" style="fill:#fff"></path><path d="M136,223.63l-.2-.2.59-.58a1.42,1.42,0,0,1,2,0,1.13,1.13,0,0,0,1.6,0l.62-.63.2.2-.62.62a1.42,1.42,0,0,1-2,0,1.13,1.13,0,0,0-1.6,0Z" style="fill:#fff"></path><path d="M144.65,203.4l-.19-.19.59-.59a1.41,1.41,0,0,1,2,0,1.15,1.15,0,0,0,1.61,0l.62-.62.19.19-.62.63a1.42,1.42,0,0,1-2,0,1.13,1.13,0,0,0-1.61,0Z" style="fill:#fff"></path><path d="M141.21,235.52l-.19-.19.59-.59a1.41,1.41,0,0,1,2,0,1.15,1.15,0,0,0,1.61,0l.62-.62.19.19-.62.62a1.39,1.39,0,0,1-2,0,1.17,1.17,0,0,0-1.61,0Z" style="fill:#fff"></path><path d="M167.33,171.34l-.49.49a1.4,1.4,0,0,1-2,0,1.15,1.15,0,0,0-1.6,0l-.59.59-.2-.19.59-.59a1.4,1.4,0,0,1,2,0,1.13,1.13,0,0,0,1.6,0l.57-.57A1.59,1.59,0,0,1,167.33,171.34Z" style="fill:#fff"></path><path d="M178.09,205a1.37,1.37,0,0,1-.62-.35,1.12,1.12,0,0,0-1.6,0l-.59.58-.19-.19.58-.59a1.42,1.42,0,0,1,2,0,1.08,1.08,0,0,0,.34.23C178,204.79,178.07,204.9,178.09,205Z" style="fill:#fff"></path><path d="M144.19,174.76l-.19-.2.58-.59a1.42,1.42,0,0,1,2,0,1.1,1.1,0,0,0,.8.34h0a1.1,1.1,0,0,0,.8-.34l.63-.62.19.2-.62.62a1.39,1.39,0,0,1-1,.41h0a1.41,1.41,0,0,1-1-.41,1.13,1.13,0,0,0-1.6,0Z" style="fill:#fff"></path><path d="M176.2,221.58h-.28v-.88a1.41,1.41,0,0,1,1.41-1.41,1.14,1.14,0,0,0,1.14-1.14v-.83h.27v.83a1.41,1.41,0,0,1-1.41,1.41,1.14,1.14,0,0,0-1.13,1.14Z" style="fill:#fff"></path><path d="M149.41,228.89h-.27V228a1.41,1.41,0,0,1,1.41-1.41,1.13,1.13,0,0,0,1.13-1.14v-.83H152v.83a1.41,1.41,0,0,1-1.41,1.41,1.14,1.14,0,0,0-1.14,1.14Z" style="fill:#fff"></path><path d="M156,208.79h-.27v-.88a1.41,1.41,0,0,1,1.41-1.41,1.14,1.14,0,0,0,1.13-1.14v-.83h.28v.83a1.42,1.42,0,0,1-1.41,1.42,1.14,1.14,0,0,0-1.14,1.13Z" style="fill:#fff"></path><path d="M127.76,218.23h-.28v-.88a1.42,1.42,0,0,1,1.41-1.41,1.14,1.14,0,0,0,1.14-1.13V214h.27v.84a1.41,1.41,0,0,1-1.41,1.41,1.14,1.14,0,0,0-1.13,1.13Z" style="fill:#fff"></path><path d="M145.83,191.55h-.28v-.88a1.41,1.41,0,0,1,1.41-1.41,1.14,1.14,0,0,0,1.14-1.14v-.83h.27v.83a1.41,1.41,0,0,1-1.41,1.41,1.14,1.14,0,0,0-1.13,1.14Z" style="fill:#fff"></path><path d="M165.23,187.76H165v-.87a1.42,1.42,0,0,1,1.41-1.42,1.13,1.13,0,0,0,1.13-1.13v-.83h.28v.83a1.41,1.41,0,0,1-1.41,1.41,1.14,1.14,0,0,0-1.14,1.14Z" style="fill:#fff"></path><path d="M159.14,169.51c-2.55.5-8.61-3.5-11.31-7.23-.18-.26-.12-3.21-.21-6.8-.07-2.17-.19-4.59-.47-6.79-.05-.45,1.59.18,1.59.18l2.93.34,9.7,1.12a35.41,35.41,0,0,0-.28,8.61,4.64,4.64,0,0,0,.21.89s0,.09,0,.15C161.83,161.66,163.13,168.72,159.14,169.51Z" style="fill:#eb9481"></path><path d="M161.3,159.83s0,.09,0,.15a8.25,8.25,0,0,1-1.41.25c-9.32,1-12-10.72-12-10.72l3.69-.3,9.7,1.12a35.41,35.41,0,0,0-.28,8.61A4.64,4.64,0,0,0,161.3,159.83Z" style="fill:#263238"></path><path d="M162.7,123s4.69,1.89,5.59,6.62-.12,9.71-.53,10S162.7,123,162.7,123Z" style="fill:#263238"></path><path d="M151.5,156.09h0" style="fill:none;stroke:#f4a69d;stroke-linecap:round;stroke-linejoin:round;stroke-width:0px"></path><path d="M144.59,130.06c-1.49,4.94,1.15,19.18,4.66,22.35,5.1,4.59,13.43,5,17.33-1.11,3.77-5.94,0-24.44-3.92-27.31C156.88,119.75,146.79,122.77,144.59,130.06Z" style="fill:#eb9481"></path><path d="M157.7,138s-.06.06-.06.09c.22,1,.31,2.08-.5,2.57,0,0,0,.06,0,.05C158.19,140.34,158.06,138.84,157.7,138Z" style="fill:#263238"></path><path d="M156.65,137.14c-1.56.18-1.08,3.29.36,3.13S158,137,156.65,137.14Z" style="fill:#263238"></path><path d="M163.37,136.91s.09,0,.09.07c.12,1,.42,2.06,1.34,2.24,0,0,0,.06,0,.06C163.71,139.29,163.33,137.84,163.37,136.91Z" style="fill:#263238"></path><path d="M164.08,135.77c1.53-.36,2.13,2.73.71,3.06S162.8,136.06,164.08,135.77Z" style="fill:#263238"></path><path d="M155.21,135.91c.4-.18.75-.4,1.14-.61a2.12,2.12,0,0,0,1-.85.66.66,0,0,0-.23-.78,1.65,1.65,0,0,0-1.67.09,2.38,2.38,0,0,0-1.22,1.24A.72.72,0,0,0,155.21,135.91Z" style="fill:#263238"></path><path d="M165,134.39c-.44,0-.85-.08-1.29-.13a2.07,2.07,0,0,1-1.28-.39.66.66,0,0,1-.09-.81,1.65,1.65,0,0,1,1.58-.55,2.39,2.39,0,0,1,1.6.69A.71.71,0,0,1,165,134.39Z" style="fill:#263238"></path><path d="M158.18,147.06c.27.19.54.47.9.44a2.48,2.48,0,0,0,1-.4s.06,0,0,.05a1.35,1.35,0,0,1-1.15.71,1.05,1.05,0,0,1-.89-.74C158.07,147.07,158.14,147,158.18,147.06Z" style="fill:#263238"></path><path d="M158.75,144a3.36,3.36,0,0,0,2.42,1.13,4.82,4.82,0,0,0,1.19-.13l.22-.06.2-.07a.23.23,0,0,0,.16-.24h0a.44.44,0,0,0,0-.1h0l0-.09c-.09-.74-.34-1.86-.34-1.86.3.09,1.78.5,1.69.12a49.85,49.85,0,0,0-2.79-9.74.09.09,0,0,0-.17.05c.53,3.08,1.61,6,2.19,9.14a5.65,5.65,0,0,0-1.62-.23c-.1,0,.51,2.15.53,2.49v0a4.61,4.61,0,0,1-3.56-.53C158.75,143.88,158.68,144,158.75,144Z" style="fill:#263238"></path><path d="M161.86,144.71a3.94,3.94,0,0,1-1.37,1.45,1.82,1.82,0,0,1-1.06.23c-.8-.09-.93-.79-.88-1.42a4.25,4.25,0,0,1,.21-1A5.1,5.1,0,0,0,161.86,144.71Z" style="fill:#263238"></path><path d="M160.49,146.16a1.82,1.82,0,0,1-1.06.23c-.8-.09-.93-.79-.88-1.42A1.85,1.85,0,0,1,160.49,146.16Z" style="fill:#ff9bbc"></path><path d="M145.81,141.67c1.63.24,2.69-4.73,2.92-6.61.2-1.66-.08-6.78,0-7.14s7.49,3.4,11.24,1.64,5.83-5.71,5.63-7.36-5.74-5.07-10-4.63-9.13,6.71-9.13,6.71a19.4,19.4,0,0,0,1.48-2.8,4.68,4.68,0,0,0-2.85,3.36s.16-2.53-.05-2.54-2,2.41-1.29,3.92c0,0-2.12,2.5-2,4.87S143.89,141.4,145.81,141.67Z" style="fill:#263238"></path><path d="M162.59,128.3a13.44,13.44,0,0,1-3.51,1.91,9,9,0,0,1-4.34,0,13.49,13.49,0,0,1-4.06-1.62c-1.11-.66-2.14-1.5-3.3-2-.29-.14-.53.28-.34.5a14.34,14.34,0,0,0,8,4.14,8.21,8.21,0,0,0,7.61-2.83S162.61,128.28,162.59,128.3Z" style="fill:#263238"></path><path d="M162.78,137.94c-.4-2.44.58-4.64,2.2-4.91s3.25,1.51,3.65,3.95-.59,4.63-2.2,4.9S163.18,140.38,162.78,137.94Zm.59-.1c.35,2.11,1.67,3.66,3,3.45s2-2.11,1.71-4.22-1.68-3.66-3-3.44S163,135.73,163.37,137.84Z" style="fill:#F1C111"></path><path d="M151.66,139.76a4.19,4.19,0,1,1,4.85,3.75A4.34,4.34,0,0,1,151.66,139.76Zm.59-.09a3.59,3.59,0,1,0,2.91-4.42A3.75,3.75,0,0,0,152.25,139.67Z" style="fill:#F1C111"></path><path d="M159.65,138c2.09-1.14,3.21-.58,3.22-.57l.29-.53c-.06,0-1.39-.74-3.79.57Z" style="fill:#F1C111"></path><path d="M151.89,139.33v-.6c-.39,0-7.05-.21-8.05-.1s-3.23,1.85-3.48,2.05l.38.47a11.34,11.34,0,0,1,3.12-1.92h0C144.68,139.14,148.56,139.26,151.89,139.33Z" style="fill:#F1C111"></path><path d="M147.66,141.67s-3.32-4.54-5.38-3.34.5,7.82,3,8.68a2.5,2.5,0,0,0,3.31-1.42Z" style="fill:#eb9481"></path><path d="M143.06,140.21s-.05,0,0,.07a6.3,6.3,0,0,1,3.35,3.87,1.37,1.37,0,0,0-2.07-.33c-.05,0,0,.1,0,.09a1.52,1.52,0,0,1,1.7.5,6.94,6.94,0,0,1,.84,1.35c.08.15.36.06.3-.12l0,0C147.19,143.41,145.42,140.38,143.06,140.21Z" style="fill:#263238"></path><path d="M139.24,179.52c-.34,6.66-.76,42.32,5.71,50.74,9.63,12.53,28.72,24.14,36,27.78,3.19,1.58,17.76-21.27,14.64-23.45-6.68-4.67-28.75-17.19-30.55-19.39s-8-25.16-11.83-37C148.12,162.29,140.06,163.33,139.24,179.52Z" style="fill:#eb9481"></path><path d="M181,258.11c10.13,5.89,30.39,5.2,33.16,4.38,2.36-.69,3.57-1.07,3.57-1.07,4.26-1.15,5.42-3.5,5.42-3.5s5.32.11,5.92-3.09c.69-3.59-6.92-3.05-11.28-5.3-10-5.17-22.78-15.32-25.51-17.1Z" style="fill:#eb9481"></path><path d="M203.5,251.48a74.12,74.12,0,0,0,9,4,73.52,73.52,0,0,0,10.57,2.31.09.09,0,0,1,0,.18,38.53,38.53,0,0,1-19.7-6.27C203.23,251.64,203.35,251.4,203.5,251.48Z" style="fill:#263238"></path><path d="M199.5,257.06c3,1.26,8.21,3.45,18.24,4.26a0,0,0,0,1,0,.06,34.46,34.46,0,0,1-18.36-4C199.2,257.27,199.3,257,199.5,257.06Z" style="fill:#263238"></path><path d="M206.13,242.53c-1-1.19-.42-1.74,2.34-1.21s13.21,4.93,14.44,1.15-13.62-9.79-18.27-10.31-12.61.27-12.61.27C194.68,234.18,201,239,206.13,242.53Z" style="fill:#eb9481"></path><path d="M137.54,206.68l24-6.74s-4.37-14.81-9.21-25.42-11.81-13-13.6,5.71S137.54,206.68,137.54,206.68Z" style="fill:#F1C111"></path><path d="M159.23,194.82h-.84a1.41,1.41,0,0,1-1.41-1.41,1.14,1.14,0,0,0-1.13-1.14H155V192h.88a1.41,1.41,0,0,1,1.41,1.41,1.14,1.14,0,0,0,1.13,1.13h.84Z" style="fill:#fff"></path><path d="M139.43,184.68l-.2.19-.59-.59a1.52,1.52,0,0,1-.28-.4h0l.12-1.38h0a1.46,1.46,0,0,1,.16-.19,1.13,1.13,0,0,0,0-1.6l0-.36.16.16a1.43,1.43,0,0,1,.41,1,1.41,1.41,0,0,1-.41,1,1.15,1.15,0,0,0,0,1.61Z" style="fill:#fff"></path><path d="M144.65,203.4l-.19-.19.59-.59a1.41,1.41,0,0,1,2,0,1.15,1.15,0,0,0,1.61,0l.62-.62.19.19-.62.63a1.42,1.42,0,0,1-2,0,1.13,1.13,0,0,0-1.61,0Z" style="fill:#fff"></path><path d="M144.19,174.76l-.19-.2.58-.59a1.42,1.42,0,0,1,2,0,1.1,1.1,0,0,0,.8.34h0a1.1,1.1,0,0,0,.8-.34l.63-.62.19.2-.62.62a1.39,1.39,0,0,1-1,.41h0a1.41,1.41,0,0,1-1-.41,1.13,1.13,0,0,0-1.6,0Z" style="fill:#fff"></path><path d="M145.83,191.55h-.28v-.88a1.41,1.41,0,0,1,1.41-1.41,1.14,1.14,0,0,0,1.14-1.14v-.83h.27v.83a1.41,1.41,0,0,1-1.41,1.41,1.14,1.14,0,0,0-1.13,1.14Z" style="fill:#fff"></path><path d="M138.2,198.36v.28h-.71a2.72,2.72,0,0,1,0-.28Z" style="fill:#fff"></path><path d="M138.36,201.47A199.22,199.22,0,0,0,159,195.66c.08,0,0-.15,0-.13-1.64.56-13,3.29-20.6,5.8C138.22,201.36,138.27,201.49,138.36,201.47Z" style="fill:#263238"></path><path d="M139.67,206.08a12.45,12.45,0,0,0-2.1.59c0-3.77.24-7.49.47-11.25.12-1.9.25-3.8.37-5.71s.34-3.88.29-5.81a.05.05,0,0,0-.1,0,43.55,43.55,0,0,0-.7,5l0-.22c-.12-.84-.24-1.67-.3-2.52a.08.08,0,0,0-.16,0c0,.85,0,1.72.08,2.57,0,.4.1.8.17,1.2l.09.35c-.18,1.68-.34,3.36-.45,5.05-.12,1.9-.18,3.81-.2,5.71a49.56,49.56,0,0,0,.2,5.92,10.45,10.45,0,0,0,2.35-.75S139.73,206.08,139.67,206.08Z" style="fill:#263238"></path><path d="M161.64,200c-.81-3-1.64-6.15-2.67-9.08-.36-1-.76-2-1.15-3-.2-1.18-.54-2.33-.83-3.49,0-.1-.17,0-.15,0,.14.66.27,1.32.41,2q-.84-2.07-1.74-4.11s-.1,0-.08,0c1,2.9,2,5.82,3,8.74s2.07,5.84,3,8.79c0,0-1.51.45-1.49.5A12.93,12.93,0,0,0,161.64,200Z" style="fill:#263238"></path></g><g id="freepik--Plant--inject-93"><path d="M98.44,336.51c-3.07-3-7-6.64-11.73-5.35-4.42,1.22-6.11,6-6.9,10.06-1,5.17-1.81,10.4-2.63,15.61s-1.61,10.53-2.37,15.8c-.43,3-.85,5.95-1.26,8.93-.21,1.49-.42,3-.62,4.47s-.45,2.92-.53,4.39c0,.47.71.54.81.09.57-2.48.81-5.07,1.17-7.59s.73-5.06,1.1-7.6q1.11-7.54,2.26-15.09t2.35-15.09c.68-4.26,1-9.55,4.78-12.36a7.29,7.29,0,0,1,7.06-.67,21.08,21.08,0,0,1,6.42,4.49A.06.06,0,0,0,98.44,336.51Z" style="fill:#263238"></path><path d="M94.24,333.44s-6.28-2.26-9.37,2.32.6,16.22,29.17,22.8a80.79,80.79,0,0,0-6.87-25.83C101,319.37,90.13,324.43,94.24,333.44Z" style="fill:#F1C111"></path><path d="M112.4,356.65a22.34,22.34,0,0,0-1.44-2.32c-.48-.73-1-1.47-1.45-2.2-.36-.55-.74-1.09-1.11-1.63,0-.13,0-.27,0-.41s.06-.5.1-.74c.07-.54.14-1.07.22-1.61s.17-1.06.27-1.59a8.54,8.54,0,0,1,.38-1.68c0-.09-.12-.13-.13,0a6.33,6.33,0,0,1-.25.95c-.07.23-.13.48-.19.72-.14.54-.28,1.08-.4,1.63s-.21,1-.29,1.51c0,.25-.08.49-.11.74-.51-.73-1-1.45-1.57-2.15-1.51-2-3.12-3.93-4.78-5.8,0,0,0,0,0-.05a51.25,51.25,0,0,1,.74-8.93c0-.08-.1-.12-.12,0a30.45,30.45,0,0,0-1.07,8.54c-.6-.67-1.2-1.33-1.81-2q-2.09-2.25-4.25-4.41c-.06-.06-.15,0-.1.08,2.41,2.59,4.7,5.29,6.92,8a50.6,50.6,0,0,0-5.22.2c-1.94.14-3.86.39-5.79.65-.08,0,0,.14,0,.13a53,53,0,0,1,5.78-.52c1.86-.08,3.71,0,5.58,0q1.8,2.25,3.56,4.51h-.26c-.44,0-.88,0-1.32,0-.86,0-1.73.08-2.6.15a39,39,0,0,0-5.27.79.07.07,0,0,0,0,.13c1.76-.2,3.52-.37,5.28-.43.84,0,1.69,0,2.53,0h1.31a1.55,1.55,0,0,0,.72-.06c.77,1,1.54,2,2.3,3,.61.79,1.21,1.6,1.79,2.41s1.15,1.74,1.82,2.51C112.34,356.78,112.43,356.71,112.4,356.65Z" style="fill:#263238"></path><path d="M97,339.93a18.35,18.35,0,0,0-3.06-.15c-1,0-2,0-3,.06-.1,0-.09.14,0,.13,1-.07,2.07-.09,3.11-.08s2,.11,3,.09A0,0,0,0,0,97,339.93Z" style="fill:#263238"></path><path d="M105.94,342.23c.11-1,.24-2,.44-2.92,0-.09-.11-.12-.12,0-.15,1-.33,1.92-.48,2.88-.07.48-.13,1-.19,1.45a6.2,6.2,0,0,0-.12,1.36.09.09,0,0,0,.17,0,8.84,8.84,0,0,0,.15-1.36C105.83,343.16,105.88,342.69,105.94,342.23Z" style="fill:#263238"></path><path d="M104.06,331.42c-.25.95-.5,1.91-.68,2.87-.08.49-.16,1-.23,1.48a6.34,6.34,0,0,0-.09,1.44,0,0,0,0,0,.07,0,8,8,0,0,0,.23-1.38c.06-.47.14-.94.22-1.42.17-1,.35-2,.6-3C104.2,331.38,104.08,331.34,104.06,331.42Z" style="fill:#263238"></path><path d="M66.85,389.36c-.15-1.8-.33-3.59-.52-5.39-.37-3.56-.81-7.11-1.28-10.66s-.94-7.08-1.5-10.6a26.19,26.19,0,0,0-1.09-4.81,4.59,4.59,0,0,0-2.67-3c-3.36-1.16-5.63,2.32-7,4.79,0,.07.07.13.12.06.81-1.17,3.06-4.45,5.6-4.29,1.72.1,3.09,1.31,3.92,5.59,2,10.66,3.9,32.3,4.12,33.71.11.75.64.72.64-.09C67.21,392.9,67,391.12,66.85,389.36Z" style="fill:#263238"></path><path d="M53.71,358.35s2.94-10.37-3.56-5.18C39.34,361.8,39,380.58,39,380.58s19.22-11.16,21.61-18.52C64.13,351.09,53.71,358.35,53.71,358.35Z" style="fill:#F1C111"></path><path d="M57.35,363.44c-1.51.31-3,.51-4.56.73-.72.1-1.44.21-2.17.3-.48.07-1,.12-1.47.18,1.44-2,2.88-3.94,4.25-5.95.05-.08-.06-.16-.13-.1a47.43,47.43,0,0,0-3.21,3.71c-.28-.8-.57-1.6-.85-2.41a27.88,27.88,0,0,1-.91-2.81c0-.08-.15,0-.13,0,.26.95.45,1.92.7,2.87s.53,1.83.86,2.73c-.71.91-1.38,1.85-2,2.8-.33-.94-.74-1.85-1-2.8,0-.08-.15,0-.12,0,.34,1.05.53,2.14.85,3.2-.44.65-.88,1.29-1.3,1.94-.78,1.2-1.51,2.42-2.23,3.65a.31.31,0,0,0-.17.29c-1.21,2.1-2.37,4.24-3.5,6.39,0,.07.07.13.11.06,1.14-2.13,2.41-4.19,3.73-6.22h0a3.91,3.91,0,0,1,.63-.12l.66-.14c.5-.11,1-.24,1.49-.36,1-.24,1.94-.47,2.93-.64.08,0,0-.14,0-.13-1.16.22-2.33.36-3.51.49-.55.07-1.11.14-1.66.23h-.08c.69-1.05,1.39-2.1,2.1-3.13s1.42-2,2.14-3c.67-.09,1.33-.27,2-.39l2.23-.44c1.49-.29,3-.62,4.47-.87C57.47,363.56,57.43,363.43,57.35,363.44Z" style="fill:#263238"></path><path d="M45.8,364.47l-.26-.83a17,17,0,0,1-.44-1.74c0-.08-.14,0-.13,0,.13.59.27,1.17.4,1.75a11.42,11.42,0,0,0,.5,1.73.12.12,0,0,0,.22-.07C46,365.05,45.89,364.76,45.8,364.47Z" style="fill:#263238"></path><path d="M59.31,361c-.87.13-1.76.2-2.64.27s-1.76.2-2.64.34c-.05,0-.05.08,0,.07.89-.06,1.76-.13,2.65-.24s1.75-.25,2.64-.31C59.4,361.17,59.39,361,59.31,361Z" style="fill:#263238"></path><path d="M81,376.23c-.34-7.64-.83-15.27-1.6-22.87-.38-3.79-.81-7.58-1.34-11.35a80.5,80.5,0,0,0-2.19-11,21.06,21.06,0,0,0-3.65-7.74,8.3,8.3,0,0,0-7.39-3.23c-3.34.42-6,2.52-8.36,4.81-2.61,2.57-5,5.37-7.42,8.12-.62.69-1.22,1.39-1.83,2.09,0,.07,0,.16.1.09,2.36-2.71,4.82-5.36,7.39-7.88,2.38-2.33,4.83-4.88,8.12-5.85a8.39,8.39,0,0,1,4.71-.11,7.4,7.4,0,0,1,3.22,2,16.83,16.83,0,0,1,3.64,7.07c2,7,2.79,14.38,3.55,21.63s1.3,14.75,1.67,22.15.66,14.88,1.38,22.3c.09.91.2,1.83.32,2.74.08.61,1,.61,1,0C81.69,391.57,81.34,383.91,81,376.23Z" style="fill:#263238"></path><path d="M56.05,325.7s4.36-8.08-.79-10.66S32.85,331.7,27.81,359.86c0,0,27.86-12.33,37.32-24.61S63.87,320.26,56.05,325.7Z" style="fill:#F1C111"></path><path d="M60.14,332.26c-3.13,0-6.25-.23-9.38-.21l1.76-2A28.67,28.67,0,0,0,55,327.19c0-.07,0-.16-.11-.11a21.31,21.31,0,0,0-2.37,2.38c-.79.83-1.57,1.67-2.34,2.51-1.2,1.29-2.37,2.61-3.54,3.93,0-.13,0-.26,0-.38,0-.55,0-1.1,0-1.65,0-1.06,0-2.12,0-3.18,0-2.16,0-4.32.16-6.47,0-.08-.12-.08-.13,0-.15,2.15-.37,4.3-.48,6.47,0,1.06-.07,2.12-.09,3.19,0,.54,0,1.09,0,1.64,0,.3,0,.61,0,.92-.19.21-.38.41-.56.62-2.5,2.85-4.87,5.81-7.18,8.81,0-.16,0-.33,0-.5,0-.33-.07-.66-.1-1-.09-.72-.18-1.43-.29-2.15s-.21-1.34-.32-2-.31-1.52-.37-2.28a.07.07,0,1,0-.13,0,22.19,22.19,0,0,1,.27,2.3c.06.68.12,1.37.19,2.06s.12,1.38.19,2.07c0,.33.07.66.1,1l.06.5a.89.89,0,0,0,.14.39l-1.19,1.56c-1.58,2.09-3.14,4.21-4.69,6.32,0,.06,0,.15.1.09,1.47-1.92,3-3.8,4.51-5.66,1.15,0,2.31,0,3.46-.06l3.63,0c.08,0,.08-.13,0-.13l-3.62.05c-1.1,0-2.23-.05-3.33,0q2-2.46,4.07-4.89l1.5-1.77a7.26,7.26,0,0,0,1.4,0h1.65c1,0,2.06,0,3.08,0,2.13,0,4.26-.11,6.38-.11a.07.07,0,0,0,0-.13c-2.13,0-4.26-.12-6.39-.17l-3.09-.08H43.88c-.32,0-.64,0-1,0l3.51-4.16a.16.16,0,0,0,.07-.07c1.14-1.35,2.28-2.7,3.44-4l.47-.55c3.25.1,6.49-.11,9.74-.05C60.23,332.39,60.23,332.26,60.14,332.26Z" style="fill:#263238"></path><path d="M58.54,337.8h-.76c-.07,0-.07.11,0,.11h.76C58.63,337.93,58.63,337.8,58.54,337.8Z" style="fill:#263238"></path><path d="M56.86,337.81l-3-.06-1.51-.05a5.46,5.46,0,0,0-1.4,0s0,.08,0,.1a5.44,5.44,0,0,0,1.4.1l1.5,0h3A.07.07,0,0,0,56.86,337.81Z" style="fill:#263238"></path><path d="M48.1,347.21a41.11,41.11,0,0,0-6.16-.55,0,0,0,1,0,0,0c2,.2,4.09.31,6.13.64C48.15,347.35,48.18,347.22,48.1,347.21Z" style="fill:#263238"></path><path d="M39.72,338.25l-.06-.54c0-.4-.12-.8-.18-1.21-.12-.76-.26-1.52-.4-2.29,0-.07-.14,0-.13,0,.1.79.18,1.58.26,2.37,0,.39.06.78.1,1.16a3.42,3.42,0,0,0,.15,1.11c.06.12.24.07.27,0A1.26,1.26,0,0,0,39.72,338.25Z" style="fill:#263238"></path><path d="M80.72,315.33c-1-1.86-2.26-4.31-4.75-4.15-2.06.13-3,2.22-3.42,4-1.36,5.36-1.45,11-1.72,16.51-.56,11.61-1.06,23.24-1.13,34.86q0,4.85,0,9.67c0,3.29,0,6.6.23,9.88a.24.24,0,0,0,.48,0c0-2.82-.08-5.63-.09-8.44s0-5.49,0-8.23q.14-8.34.45-16.67c.2-5.52.44-11,.68-16.56.12-2.76.23-5.52.36-8.27s.23-5.35.54-8c.17-1.49.39-3,.7-4.44a6.11,6.11,0,0,1,1.29-3,2.8,2.8,0,0,1,3.63-.27,7.73,7.73,0,0,1,2.57,3.22C80.65,315.47,80.76,315.4,80.72,315.33Z" style="fill:#263238"></path><path d="M80.05,314.44s-2-7.22,2.48-3.61c7.53,6,7.8,19.1,7.8,19.1S76.94,322.15,75.27,317C72.79,309.39,80.05,314.44,80.05,314.44Z" style="fill:#F1C111"></path><path d="M87.51,324.57c-.12-.2-.25-.4-.38-.6a4.14,4.14,0,0,0,0-.61c0-.31,0-.62,0-.94,0-.61,0-1.22.07-1.83,0-.08-.13-.08-.13,0,0,.6-.06,1.19-.07,1.79l0,.9q0,.18,0,.39c-.53-.82-1.06-1.63-1.62-2.42l-.5-.68a14.31,14.31,0,0,1,0-2.36c0-.84,0-1.68,0-2.52a.07.07,0,0,0-.13,0c0,.88-.07,1.75-.11,2.62a16.68,16.68,0,0,0,0,1.87c-1.29-1.76-2.67-3.45-4.05-5.14,0-.05-.15,0-.1.08.86,1.09,1.68,2.21,2.49,3.34-1.58-.37-3.18-.58-4.78-.81-.08,0-.11.11,0,.12,1.69.26,3.36.68,5,1.05h0c.64.9,1.28,1.81,1.91,2.72l.76,1.12h-.07l-.53-.08-1.11-.1c-.77-.06-1.54-.1-2.32-.14-.08,0-.08.13,0,.13.76,0,1.51.07,2.27.15l1.2.15.52.06.15,0,1.29,1.9c.76,1.12,1.43,2.32,2.24,3.4a.06.06,0,0,0,.1-.07A34.1,34.1,0,0,0,87.51,324.57Z" style="fill:#263238"></path><path d="M84.18,316.4c0-.28,0-.56,0-.84a13,13,0,0,1,.07-1.77.07.07,0,1,0-.13,0c0,.58-.06,1.17-.09,1.75,0,.29,0,.58,0,.88v.4a1.18,1.18,0,0,0,0,.42.06.06,0,0,0,.11,0,1.26,1.26,0,0,0,0-.39Z" style="fill:#263238"></path><path d="M82.52,319.4c-.5-.09-1-.11-1.51-.16s-1.1-.09-1.65-.16a.06.06,0,1,0,0,.12c1.06.07,2.11.26,3.17.3A.05.05,0,0,0,82.52,319.4Z" style="fill:#263238"></path><path d="M86.73,319.44c0,.06,0,.21,0,.28v.74c0,.17,0,.33,0,.5a1.07,1.07,0,0,0,0,.44,0,0,0,0,0,0,0,.47.47,0,0,0,0-.21v-.73c0-.17,0-.34,0-.51v-.23c0-.07,0-.22,0-.28S86.64,319.32,86.73,319.44Z" style="fill:#263238"></path><path d="M81,353.89c-2.82-2.11-5.35-5.15-9.14-5.3-3.12-.12-5.31,2.23-6.57,4.85a27.37,27.37,0,0,0-1.53,4.32c-.56,2-1.09,4-1.59,6-1,3.93-1.83,7.89-2.51,11.88-.38,2.22-.74,4.45-1,6.69a56.48,56.48,0,0,0-.65,6.85.35.35,0,0,0,.69.08c.39-1.87.55-3.8.82-5.7s.57-3.8.89-5.7q1-5.69,2.24-11.32c.81-3.54,1.6-7.14,2.75-10.59.81-2.47,2.13-5.36,4.8-6.24C74.28,348.31,78,351.75,81,354,81,354,81.1,353.94,81,353.89Z" style="fill:#263238"></path><path d="M78.12,351.87s-2.59-7.41,1.16-8.87c5.63-2.17,20.35,14.41,17.47,39.82A143.94,143.94,0,0,1,77,369.5c-8.4-7.05-10.55-16.25-6.85-18.64S78.12,351.87,78.12,351.87Z" style="fill:#F1C111"></path><path d="M95.05,377.38a19.81,19.81,0,0,0-1.37-2.57c-.48-.87-1-1.73-1.47-2.59-1-1.67-1.95-3.35-2.95-5l-.49-.8.06-.3.17-.73c.12-.55.22-1.11.32-1.67.2-1.08.39-2.19.69-3.25,0-.08-.11-.11-.13,0-.23,1.09-.58,2.16-.9,3.22-.16.53-.32,1.05-.46,1.58l-.14.54c-1.21-2-2.44-3.95-3.77-5.86a2.69,2.69,0,0,0,.13-.81c0-.38.09-.75.13-1.12.1-.84.19-1.67.32-2.5a46.87,46.87,0,0,1,.89-4.87c0-.08-.11-.1-.13,0-.4,1.59-.84,3.2-1.15,4.82-.15.79-.29,1.59-.39,2.39-.06.41-.1.81-.14,1.21,0,.12,0,.24,0,.37-.41-.58-.81-1.16-1.24-1.72-1.3-1.71-2.65-3.38-4-5,0-.06-.16,0-.1.07a91.9,91.9,0,0,1,6.4,9.35c.37.6.73,1.2,1.1,1.79l-.36,0c-.48-.06-1-.09-1.44-.14-1-.08-1.91-.17-2.87-.24-1.92-.16-3.84-.27-5.75-.48-.08,0-.11.12,0,.13,1.93.22,3.86.53,5.79.8l2.85.39a11.22,11.22,0,0,0,2.19.22L89,368.14c-.16,0-.34,0-.5,0H85.78l-3.71,0c-.08,0-.07.13,0,.13,1.25,0,2.49.08,3.74.14l1.78.11.89.07a2,2,0,0,0,.78,0l1.92,3.12c.59,1,1.18,1.92,1.79,2.86a22.82,22.82,0,0,0,1.93,2.9C95,377.5,95.08,377.46,95.05,377.38Z" style="fill:#263238"></path><path d="M89.63,356.84a18.12,18.12,0,0,1-.51,2.41c-.21.83-.45,1.64-.72,2.45a.08.08,0,1,0,.15.05c.26-.8.48-1.61.68-2.43s.33-1.65.52-2.46A.06.06,0,1,0,89.63,356.84Z" style="fill:#263238"></path><path d="M81.27,361.8a.93.93,0,0,0-.62-.23l-1.08-.15c-.66-.09-1.33-.16-2-.24-1.38-.16-2.77-.3-4.16-.47-.08,0-.1.12,0,.13,1.31.16,2.61.35,3.92.52.64.09,1.27.18,1.92.25l.92.11a3.19,3.19,0,0,1,1.06.18C81.27,361.93,81.31,361.85,81.27,361.8Z" style="fill:#263238"></path><path d="M89.61,373c-.66-.06-1.32-.08-2-.1l-1,0-.47,0a2.56,2.56,0,0,1-.62,0c-.09,0-.1.14,0,.13a2.8,2.8,0,0,1,.58,0l.52,0,1,.06c.66,0,1.32.08,2,.09C89.68,373.12,89.69,373,89.61,373Z" style="fill:#263238"></path><path d="M93.62,370.13l.21-1.11c.14-.74.27-1.47.41-2.2a.07.07,0,0,0-.13,0l-.48,2.14L93.39,370c0,.16-.07.33-.1.49a1.38,1.38,0,0,0-.06.53c0,.06.1.11.14,0A2.67,2.67,0,0,0,93.62,370.13Z" style="fill:#263238"></path><polygon points="92.1 392.03 91.47 402.54 89.6 433.54 51.26 433.54 49.39 402.54 48.76 392.03 92.1 392.03" style="fill:#455a64"></polygon><polygon points="92.1 392.03 91.47 402.54 49.39 402.54 48.76 392.03 92.1 392.03" style="fill:#263238"></polygon><rect x="45.83" y="384.6" width="49.21" height="10.51" style="fill:#455a64"></rect></g></svg>